{
.appVersion = "3324";
.formatVersion = 3;
axes = (
{
name = Weight;
tag = wght;
}
);
customParameters = (
{
disabled = 1;
name = glyphOrder;
value = (
space,
exclam,
quotesingle,
quotedbl,
numbersign,
dollar,
percent,
ampersand,
parenleft,
parenright,
asterisk,
plus,
comma,
hyphen,
period,
slash,
zero,
one,
two,
three,
four,
five,
six,
seven,
eight,
nine,
colon,
semicolon,
less,
equal,
greater,
question,
at,
A,
B,
C,
D,
E,
F,
G,
H,
I,
J,
K,
L,
M,
N,
O,
P,
Q,
R,
S,
T,
U,
V,
W,
X,
Y,
Z,
bracketleft,
backslash,
bracketright,
asciicircum,
underscore,
grave,
a,
b,
c,
d,
e,
f,
g,
h,
i,
j,
k,
l,
m,
n,
o,
p,
q,
r,
s,
t,
u,
v,
w,
x,
y,
z,
braceleft,
bar,
braceright,
asciitilde,
exclamdown,
cent,
sterling,
currency,
yen,
brokenbar,
section,
dieresis,
copyright,
ordfeminine,
guillemetleft,
logicalnot,
registered,
macron,
degree,
plusminus,
twosuperior,
threesuperior,
acute,
mu,
paragraph,
periodcentered,
cedilla,
onesuperior,
ordmasculine,
guillemetright,
onequarter,
onehalf,
threequarters,
questiondown,
Agrave,
Aacute,
Acircumflex,
Atilde,
Adieresis,
Aring,
AE,
Ccedilla,
Egrave,
Eacute,
Ecircumflex,
Edieresis,
Igrave,
Iacute,
Icircumflex,
Idieresis,
Eth,
Ntilde,
Ograve,
Oacute,
Ocircumflex,
Otilde,
Odieresis,
multiply,
Oslash,
Ugrave,
Uacute,
Ucircumflex,
Udieresis,
Yacute,
Thorn,
germandbls,
agrave,
aacute,
acircumflex,
atilde,
adieresis,
aring,
ae,
ccedilla,
egrave,
eacute,
ecircumflex,
edieresis,
igrave,
iacute,
icircumflex,
idieresis,
eth,
ntilde,
ograve,
oacute,
ocircumflex,
otilde,
odieresis,
divide,
oslash,
ugrave,
uacute,
ucircumflex,
udieresis,
yacute,
thorn,
ydieresis,
dotlessi,
circumflex,
caron,
breve,
dotaccent,
ring,
ogonek,
tilde,
hungarumlaut,
quoteleft,
quoteright,
minus,
g.ss01,
a.ss01
);
},
{
name = "Use Typo Metrics";
value = 1;
},
{
name = fsType;
value = (
);
},
{
name = "Variable Font Origin";
value = m002;
}
);
date = "2024-11-02 04:16:01 +0000";
familyName = "Inclusive Sans";
featurePrefixes = (
{
automatic = 1;
code = "languagesystem DFLT dflt;


glyphs = (
{
glyphname = A;
kernLeft = A;
kernRight = A;
lastChange = "2024-11-21 09:01:52 +0000";
layers = (
{
anchors = (
{
name = bottom;
pos = (246,0);
},
{
name = ogonek;
pos = (544,0);
},
{
name = top;
pos = (339,700);
}
);
layerId = m01;
shapes = (
{
closed = 1;
nodes = (
(55,0,l),
(368,700,l),
(306,700,l),
(-16,0,l)
);
},
{
closed = 1;
nodes = (
(444,206,l),
(450,262,l),
(129,262,l),
(123,206,l)
);
},
{
closed = 1;
nodes = (
(544,0,l),
(368,700,l),
(310,700,l),
(480,0,l)
);
}
);
width = 580;
},
{
anchors = (
{
name = bottom;
pos = (262,0);
},
{
name = ogonek;
pos = (557,0);
},
{
name = top;
pos = (345,700);
}
);
layerId = m002;
shapes = (
{
closed = 1;
nodes = (
(78,0,l),
(386,700,l),
(300,700,l),
(-18,0,l)
);
},
{
closed = 1;
nodes = (
(449,195,l),
(458,275,l),
(137,275,l),
(128,195,l)
);
},
{
closed = 1;
nodes = (
(557,0,l),
(386,700,l),
(306,700,l),
(469,0,l)
);
}
);
width = 591;
},
{
anchors = (
{
name = bottom;
pos = (290,0);
},
{
name = ogonek;
pos = (637,0);
},
{
name = top;
pos = (380,700);
}
);
layerId = m003;
shapes = (
{
closed = 1;
nodes = (
(136,0,l),
(447,700,l),
(297,700,l),
(-22,0,l)
);
},
{
closed = 1;
nodes = (
(491,161,l),
(504,287,l),
(182,287,l),
(169,161,l)
);
},
{
closed = 1;
nodes = (
(637,0,l),
(467,700,l),
(329,700,l),
(485,0,l)
);
}
);
width = 669;
}
);
unicode = 65;
},
{
glyphname = AE;
kernLeft = A;
lastChange = "2024-11-02 04:49:56 +0000";
layers = (
{
anchors = (
{
name = top;
pos = (641,701);
}
);
layerId = m01;
shapes = (
{
closed = 1;
nodes = (
(40,0,l),
(484,700,l),
(422,700,l),
(-31,0,l)
);
},
{
closed = 1;
nodes = (
(409,190,l),
(415,246,l),
(161,246,l),
(155,190,l)
);
},
{
closed = 1;
nodes = (
(781,0,l),
(787,56,l),
(453,56,l),
(482,332,l),
(754,332,l),
(760,388,l),
(488,388,l),
(514,644,l),
(848,644,l),
(854,700,l),
(456,700,l),
(383,0,l)
);
}
);
width = 867;
},
{
anchors = (
{
name = top;
pos = (661,700);
}
);
layerId = m002;
shapes = (
{
closed = 1;
nodes = (
(78,0,l),
(517,700,l),
(431,700,l),
(-18,0,l)
);
},
{
closed = 1;
nodes = (
(460,169,l),
(469,249,l),
(185,249,l),
(176,169,l)
);
},
{
closed = 1;
nodes = (
(812,0,l),
(820,80,l),
(497,80,l),
(522,320,l),
(784,320,l),
(793,398,l),
(531,398,l),
(554,620,l),
(877,620,l),
(885,700,l),
(474,700,l),
(401,0,l)
);
}
);
width = 896;
},
{
anchors = (
{
name = top;
pos = (707,700);
}
);
layerId = m003;
shapes = (
{
closed = 1;
nodes = (
(136,0,l),
(581,700,l),
(431,700,l),
(-22,0,l)
);
},
{
closed = 1;
nodes = (
(462,142,l),
(475,268,l),
(184,268,l),
(171,142,l)
);
},
{
closed = 1;
nodes = (
(898,0,l),
(912,126,l),
(601,126,l),
(619,297,l),
(879,297,l),
(892,423,l),
(632,423,l),
(648,574,l),
(959,574,l),
(972,700,l),
(515,700,l),
(441,0,l)
);
}
);
width = 967;
}
);
unicode = 198;
},
{
glyphname = B;
kernLeft = B;
kernRight = B;
lastChange = "2024-11-02 04:49:56 +0000";
layers = (
{
layerId = m01;
shapes = (
{
closed = 1;
nodes = (
(304,0,ls),
(464,0,o),
(548,72,o),
(562,202,cs),
(571,288,o),
(529,343,o),
(437,365,c),
(498,385,o),
(548,438,o),
(557,526,cs),
(569,642,o),
(498,701,o),
(366,701,cs),
(147,701,l),
(74,0,l)
);
},
{
closed = 1;
nodes = (
(168,330,l),
(168,330,o),
(357,330,o),
(357,330,cs),
(455,330,o),
(508,277,o),
(500,202,cs),
(492,122,o),
(431,56,o),
(320,56,cs),
(140,56,l)
);
},
{
closed = 1;
nodes = (
(202,645,l),
(202,645,o),
(356,645,o),
(356,645,cs),
(463,645,o),
(502,595,o),
(495,525,cs),
(486,439,o),
(426,386,o),
(329,386,cs),
(174,386,l)
);
}
);
width = 618;
},
{
layerId = m002;
shapes = (
{
closed = 1;
nodes = (
(327,0,ls),
(492,0,o),
(578,73,o),
(592,200,cs),
(601,287,o),
(559,344,o),
(467,366,c),
(528,384,o),
(576,424,o),
(586,521,cs),
(599,637,o),
(529,701,o),
(392,701,cs),
(156,701,l),
(83,0,l)
);
},
{
closed = 1;
nodes = (
(204,319,l),
(204,319,o),
(370,319,o),
(370,319,cs),
(462,319,o),
(507,267,o),
(500,200,cs),
(491,120,o),
(432,80,o),
(335,80,cs),
(179,80,l)
);
},
{
closed = 1;
nodes = (
(236,621,l),
(236,621,o),
(379,621,o),
(379,621,cs),
(452,621,o),
(502,587,o),
(495,520,cs),
(486,435,o),
(430,399,o),
(357,399,cs),
(213,399,l)
);
}
);
width = 655;
},
{
layerId = m003;
shapes = (
{
closed = 1;
nodes = (
(375,0,ls),
(546,0,o),
(638,77,o),
(652,204,cs),
(660,283,o),
(619,341,o),
(543,363,c),
(591,386,o),
(637,434,o),
(646,518,cs),
(656,620,o),
(589,701,o),
(441,701,cs),
(156,701,l),
(82,0,l)
);
},
{
closed = 1;
nodes = (
(259,293,l),
(259,293,o),
(396,293,o),
(396,293,c),
(463,293,o),
(504,264,o),
(498,211,cs),
(492,145,o),
(446,126,o),
(369,126,cs),
(242,126,l)
);
},
{
closed = 1;
nodes = (
(289,575,l),
(289,575,o),
(410,575,o),
(410,575,cs),
(466,575,o),
(496,549,o),
(491,504,cs),
(485,441,o),
(449,419,o),
(394,419,cs),
(272,419,l)
);
}
);
width = 701;
}
);
unicode = 66;
},
{
glyphname = C;
kernLeft = O;
lastChange = "2024-11-02 04:49:56 +0000";
layers = (
{
anchors = (
{
name = bottom;
pos = (311,-6);
},
{
name = top;
pos = (387,713);
}
);
layerId = m01;
shapes = (
{
closed = 1;
nodes = (
(471,-13,o),
(570,76,o),
(611,199,c),
(552,211,l),
(517,117,o),
(444,43,o),
(332,43,cs),
(185,43,o),
(113,167,o),
(133,357,cs),
(153,542,o),
(266,657,o),
(397,657,cs),
(495,657,o),
(569,581,o),
(577,488,c),
(642,501,l),
(627,624,o),
(548,713,o),
(403,713,cs),
(200,713,o),
(91,541,o),
(71,355,cs),
(51,163,o),
(118,-13,o),
(326,-13,cs)
);
}
);
width = 663;
},
{
anchors = (
{
name = bottom;
pos = (322,-13);
},
{
name = top;
pos = (399,713);
}
);
layerId = m002;
shapes = (
{
closed = 1;
nodes = (
(478,-13,o),
(590,75,o),
(631,198,c),
(543,216,l),
(511,130,o),
(433,67,o),
(341,67,cs),
(210,67,o),
(148,194,o),
(165,357,cs),
(182,512,o),
(269,633,o),
(400,633,cs),
(492,633,o),
(558,570,o),
(572,484,c),
(662,502,l),
(647,625,o),
(555,713,o),
(409,713,cs),
(203,713,o),
(95,548,o),
(75,355,cs),
(56,171,o),
(125,-13,o),
(332,-13,cs)
);
}
);
width = 689;
},
{
anchors = (
{
name = bottom;
pos = (337,-12);
},
{
name = top;
pos = (411,713);
}
);
layerId = m003;
shapes = (
{
closed = 1;
nodes = (
(507,-12,o),
(604,76,o),
(645,199,c),
(507,227,l),
(486,161,o),
(425,119,o),
(369,119,cs),
(248,119,o),
(199,198,o),
(216,357,cs),
(231,499,o),
(293,583,o),
(414,583,cs),
(474,583,o),
(524,532,o),
(533,474,c),
(677,502,l),
(662,625,o),
(558,713,o),
(429,713,cs),
(205,713,o),
(82,549,o),
(62,355,cs),
(42,171,o),
(109,-12,o),
(355,-12,cs)
);
}
);
width = 684;
},
{
associatedMasterId = m01;
layerId = "09577142-2BA9-4939-A4E9-BA986ECE9950";
name = "27 Mar 24 at 12:02";
shapes = (
{
closed = 1;
nodes = (
(596,-12,o),
(684,157,o),
(684,349,cs),
(684,543,o),
(596,712,o),
(372,712,cs),
(148,712,o),
(60,543,o),
(60,349,cs),
(60,157,o),
(148,-12,o),
(372,-12,cs)
);
},
{
closed = 1;
nodes = (
(217,44,o),
(122,154,o),
(122,349,cs),
(122,540,o),
(217,656,o),
(372,656,cs),
(527,656,o),
(622,540,o),
(622,349,cs),
(622,154,o),
(527,44,o),
(372,44,cs)
);
}
);
width = 693;
}
);
unicode = 67;
},
{
glyphname = D;
kernRight = O;
lastChange = "2024-11-02 04:49:56 +0000";
layers = (
{
anchors = (
{
name = bottom;
pos = (288,0);
},
{
name = top;
pos = (361,700);
}
);
layerId = m01;
shapes = (
{
closed = 1;
nodes = (
(265,0,ls),
(491,0,o),
(613,141,o),
(634,349,cs),
(657,560,o),
(564,700,o),
(338,700,cs),
(151,700,l),
(78,0,l)
);
},
{
closed = 1;
nodes = (
(209,644,l),
(335,644,ls),
(529,644,o),
(589,507,o),
(573,350,cs),
(556,192,o),
(468,56,o),
(274,56,cs),
(148,56,l)
);
}
);
width = 681;
},
{
anchors = (
{
name = bottom;
pos = (294,0);
},
{
name = top;
pos = (367,700);
}
);
layerId = m002;
shapes = (
{
closed = 1;
nodes = (
(265,0,ls),
(497,0,o),
(619,141,o),
(640,349,cs),
(663,560,o),
(570,700,o),
(338,700,cs),
(143,700,l),
(70,0,l)
);
},
{
closed = 1;
nodes = (
(223,620,l),
(333,620,ls),
(496,620,o),
(565,507,o),
(549,350,cs),
(532,192,o),
(439,80,o),
(276,80,cs),
(166,80,l)
);
}
);
width = 680;
},
{
anchors = (
{
name = bottom;
pos = (324,0);
},
{
name = top;
pos = (398,700);
}
);
layerId = m003;
shapes = (
{
closed = 1;
nodes = (
(311,0,ls),
(541,0,o),
(663,141,o),
(685,349,cs),
(707,560,o),
(615,700,o),
(385,700,cs),
(137,700,l),
(63,0,l)
);
},
{
closed = 1;
nodes = (
(270,574,l),
(375,574,ls),
(493,574,o),
(548,507,o),
(531,350,cs),
(514,192,o),
(446,126,o),
(328,126,cs),
(223,126,l)
);
}
);
width = 723;
}
);
unicode = 68;
},
{
glyphname = Eth;
lastChange = "2024-11-02 04:49:56 +0000";
layers = (
{
layerId = m01;
shapes = (
{
pos = (-26,0);
ref = D;
},
{
closed = 1;
nodes = (
(352,329,l),
(358,385,l),
(36,385,l),
(30,329,l)
);
}
);
width = 681;
},
{
layerId = m002;
shapes = (
{
pos = (-26,0);
ref = D;
},
{
closed = 1;
nodes = (
(371,315,l),
(378,385,l),
(41,385,l),
(34,315,l)
);
}
);
width = 680;
},
{
layerId = m003;
shapes = (
{
pos = (-27,0);
ref = D;
},
{
closed = 1;
nodes = (
(387,291,l),
(398,401,l),
(15,401,l),
(4,291,l)
);
}
);
width = 723;
}
);
unicode = 208;
},
{
glyphname = E;
kernLeft = E;
kernRight = E;
lastChange = "2024-11-21 09:07:06 +0000";
layers = (
{
anchors = (
{
name = bottom;
pos = (280,0);
},
{
name = ogonek;
pos = (472,0);
},
{
name = top;
pos = (345,700);
},
{
name = topleft;
pos = (99,700);
}
);
layerId = m01;
shapes = (
{
closed = 1;
nodes = (
(472,0,l),
(478,56,l),
(144,56,l),
(173,332,l),
(445,332,l),
(451,388,l),
(179,388,l),
(205,644,l),
(539,644,l),
(545,700,l),
(147,700,l),
(74,0,l)
);
}
);
width = 558;
},
{
anchors = (
{
name = bottom;
pos = (282,0);
},
{
name = ogonek;
pos = (481,0);
},
{
name = top;
pos = (351,700);
},
{
name = topleft;
pos = (99,700);
}
);
layerId = m002;
shapes = (
{
closed = 1;
nodes = (
(481,0,l),
(489,80,l),
(166,80,l),
(191,320,l),
(453,320,l),
(462,398,l),
(200,398,l),
(223,620,l),
(546,620,l),
(554,700,l),
(143,700,l),
(70,0,l)
);
}
);
width = 564;
},
{
anchors = (
{
name = bottom;
pos = (270,0);
},
{
name = ogonek;
pos = (520,0);
},
{
name = top;
pos = (364,700);
},
{
name = topleft;
pos = (99,700);
}
);
layerId = m003;
shapes = (
{
closed = 1;
nodes = (
(520,0,l),
(534,126,l),
(223,126,l),
(241,297,l),
(501,297,l),
(514,423,l),
(254,423,l),
(270,574,l),
(581,574,l),
(594,700,l),
(137,700,l),
(63,0,l)
);
}
);
width = 589;
}
);
unicode = 69;
},
{
glyphname = Eopen;
lastChange = "2024-11-07 16:45:41 +0000";
layers = (
{
layerId = m01;
shapes = (
{
closed = 1;
nodes = (
(411,-12,o),
(516,61,o),
(543,195,c),
(482,199,l),
(462,120,o),
(406,44,o),
(283,44,cs),
(159,44,o),
(109,123,o),
(117,203,cs),
(125,278,o),
(189,350,o),
(314,350,cs),
(327,350,o),
(339,349,o),
(351,348,c),
(357,404,l),
(346,402,o),
(333,401,o),
(320,401,cs),
(215,401,o),
(179,465,o),
(185,530,cs),
(191,586,o),
(239,656,o),
(345,656,cs),
(430,656,o),
(470,611,o),
(479,564,c),
(541,584,l),
(527,668,o),
(453,712,o),
(352,712,cs),
(233,712,o),
(136,649,o),
(123,530,cs),
(117,465,o),
(153,415,o),
(190,384,c),
(124,348,o),
(64,286,o),
(55,203,cs),
(40,64,o),
(137,-12,o),
(276,-12,cs)
);
}
);
width = 596;
},
{
layerId = m002;
shapes = (
{
closed = 1;
nodes = (
(474,-12,o),
(577,63,o),
(607,200,c),
(515,207,l),
(515,185,o),
(481,68,o),
(341,68,cs),
(241,68,o),
(186,123,o),
(194,203,cs),
(202,278,o),
(264,340,o),
(367,340,cs),
(382,340,o),
(396,340,o),
(411,340,c),
(420,418,l),
(406,418,o),
(391,418,o),
(377,418,cs),
(290,418,o),
(252,465,o),
(258,530,cs),
(264,586,o),
(310,636,o),
(398,636,cs),
(476,636,o),
(514,597,o),
(517,549,c),
(605,576,l),
(595,665,o),
(518,712,o),
(407,712,cs),
(280,712,o),
(183,649,o),
(170,530,cs),
(164,465,o),
(188,415,o),
(225,384,c),
(159,348,o),
(111,286,o),
(102,203,cs),
(87,64,o),
(186,-12,o),
(331,-12,cs)
);
}
);
width = 660;
},
{
layerId = m003;
shapes = (
{
closed = 1;
nodes = (
(526,-12,o),
(621,81,o),
(649,207,c),
(503,216,l),
(489,161,o),
(453,116,o),
(366,116,cs),
(283,116,o),
(253,157,o),
(259,212,cs),
(264,260,o),
(303,306,o),
(384,306,cs),
(400,306,o),
(415,307,o),
(431,307,c),
(445,434,l),
(430,434,o),
(414,433,o),
(399,433,cs),
(351,433,o),
(314,458,o),
(320,512,cs),
(324,550,o),
(364,584,o),
(413,584,cs),
(454,584,o),
(487,559,o),
(493,527,c),
(645,569,l),
(635,656,o),
(557,712,o),
(427,712,cs),
(282,712,o),
(183,639,o),
(172,530,cs),
(165,465,o),
(190,415,o),
(227,384,c),
(161,348,o),
(112,286,o),
(104,203,cs),
(90,74,o),
(192,-12,o),
(352,-12,cs)
);
}
);
width = 687;
}
);
unicode = 400;
},
{
glyphname = Schwa;
lastChange = "2024-11-07 16:44:58 +0000";
layers = (
{
anchors = (
{
name = bottom;
pos = (352,0);
},
{
name = top;
pos = (352,700);
}
);
layerId = m01;
shapes = (
{
closed = 1;
nodes = (
(507,-12,o),
(645,126,o),
(669,352,cs),
(692,575,o),
(593,712,o),
(402,712,cs),
(237,712,o),
(136,608,o),
(91,496,c),
(153,482,l),
(185,559,o),
(261,656,o),
(390,656,cs),
(545,656,o),
(626,531,o),
(607,356,cs),
(589,186,o),
(499,44,o),
(330,44,cs),
(182,44,o),
(115,174,o),
(129,310,c),
(622,310,l),
(628,365,l),
(72,365,l),
(68,326,l),
(45,112,o),
(163,-12,o),
(329,-12,cs)
);
}
);
width = 704;
},
{
anchors = (
{
name = bottom;
pos = (363,0);
},
{
name = top;
pos = (363,700);
}
);
layerId = m002;
shapes = (
{
closed = 1;
nodes = (
(522,-12,o),
(660,126,o),
(684,353,cs),
(707,574,o),
(599,712,o),
(405,712,cs),
(232,712,o),
(140,618,o),
(94,506,c),
(178,485,l),
(205,569,o),
(294,632,o),
(387,632,c),
(559,632,o),
(606,487,o),
(592,357,cs),
(574,187,o),
(486,68,o),
(336,68,cs),
(204,68,o),
(147,163,o),
(160,287,c),
(606,287,l),
(614,367,l),
(76,367,l),
(73,334,l),
(48,96,o),
(159,-12,o),
(332,-12,cs)
);
}
);
width = 726;
},
{
anchors = (
{
name = bottom;
pos = (375,0);
},
{
name = top;
pos = (375,700);
}
);
layerId = m003;
shapes = (
{
closed = 1;
nodes = (
(512,-12,o),
(700,103,o),
(726,347,cs),
(751,583,o),
(591,712,o),
(420,712,cs),
(313,712,o),
(178,663,o),
(98,512,c),
(238,469,l),
(264,538,o),
(336,582,o),
(403,582,cs),
(521,582,o),
(588,504,o),
(572,347,cs),
(557,204,o),
(473,118,o),
(362,118,cs),
(261,118,o),
(205,205,o),
(213,286,c),
(596,286,l),
(608,402,l),
(67,402,l),
(62,357,l),
(38,126,o),
(154,-12,o),
(346,-12,cs)
);
}
);
width = 749;
}
);
unicode = 399;
},
{
glyphname = F;
kernLeft = E;
kernRight = E;
lastChange = "2024-11-09 08:17:28 +0000";
layers = (
{
layerId = m01;
shapes = (
{
closed = 1;
nodes = (
(138,0,l),
(173,335,l),
(445,335,l),
(451,391,l),
(179,391,l),
(205,644,l),
(539,644,l),
(545,700,l),
(147,700,l),
(74,0,l)
);
}
);
width = 558;
},
{
layerId = m002;
shapes = (
{
closed = 1;
nodes = (
(158,0,l),
(191,320,l),
(453,320,l),
(462,400,l),
(200,400,l),
(223,620,l),
(546,620,l),
(554,700,l),
(143,700,l),
(70,0,l)
);
}
);
width = 541;
},
{
layerId = m003;
shapes = (
{
closed = 1;
nodes = (
(209,0,l),
(241,297,l),
(501,297,l),
(514,423,l),
(254,423,l),
(270,574,l),
(581,574,l),
(594,700,l),
(137,700,l),
(63,0,l)
);
}
);
width = 577;
}
);
unicode = 70;
},
{
glyphname = G;
kernLeft = O;
kernRight = O;
lastChange = "2024-11-21 09:07:50 +0000";
layers = (
{
anchors = (
{
name = bottom;
pos = (320,-13);
},
{
name = top;
pos = (408,713);
}
);
layerId = m01;
shapes = (
{
closed = 1;
nodes = (
(442,-13,o),
(533,49,o),
(565,127,c),
(565,127,o),
(559,0,o),
(559,0,c),
(611,0,l),
(649,368,l),
(370,368,l),
(365,312,l),
(582,312,l),
(565,159,o),
(462,43,o),
(337,43,cs),
(183,43,o),
(111,167,o),
(131,357,cs),
(151,542,o),
(264,657,o),
(402,657,cs),
(508,657,o),
(582,581,o),
(590,488,c),
(655,501,l),
(640,624,o),
(561,713,o),
(408,713,cs),
(198,713,o),
(89,541,o),
(69,355,cs),
(49,163,o),
(116,-13,o),
(331,-13,cs)
);
}
);
width = 701;
},
{
anchors = (
{
name = bottom;
pos = (333,-12);
},
{
name = top;
pos = (418,713);
}
);
layerId = m002;
shapes = (
{
closed = 1;
nodes = (
(433,-12,o),
(515,30,o),
(563,107,c),
(563,107,o),
(565,0,o),
(565,0,c),
(634,0,l),
(672,368,l),
(392,368,l),
(384,284,l),
(575,284,l),
(561,158,o),
(450,67,o),
(347,67,cs),
(205,67,o),
(146,194,o),
(163,357,cs),
(180,512,o),
(267,633,o),
(409,633,cs),
(512,633,o),
(578,570,o),
(592,484,c),
(682,502,l),
(667,625,o),
(575,713,o),
(418,713,cs),
(201,713,o),
(93,548,o),
(73,355,cs),
(52,158,o),
(126,-12,o),
(351,-12,c)
);
}
);
width = 730;
},
{
anchors = (
{
name = bottom;
pos = (328,-12);
},
{
name = top;
pos = (434,712);
}
);
layerId = m003;
shapes = (
{
closed = 1;
nodes = (
(416,-12,o),
(490,13,o),
(536,80,c),
(536,80,o),
(539,0,o),
(539,0,c),
(637,0,l),
(677,380,l),
(392,380,l),
(380,260,l),
(530,260,l),
(513,170,o),
(435,119,o),
(372,119,cs),
(245,119,o),
(196,198,o),
(213,357,cs),
(228,499,o),
(294,583,o),
(421,583,cs),
(485,583,o),
(534,532,o),
(543,474,c),
(687,502,l),
(672,625,o),
(570,712,o),
(434,712,cs),
(204,712,o),
(79,549,o),
(59,355,cs),
(39,171,o),
(106,-12,o),
(358,-12,cs)
);
}
);
width = 726;
},
{
associatedMasterId = m01;
layerId = "60D9B074-3643-47F8-BA45-851CCB9418B6";
name = "6 Jul 24 at 15:54";
shapes = (
{
closed = 0;
nodes = (
(514,106,l)
);
},
{
closed = 0;
nodes = (
(531,106,l),
(533,94,o),
(544,0,o),
(544,0,c),
(596,0,l),
(596,368,l),
(349,368,l),
(349,312,l),
(516,312,l),
(516,158,o),
(420,43,o),
(299,43,cs),
(142,43,o),
(57,167,o),
(57,357,cs),
(57,542,o),
(158,657,o),
(299,657,cs),
(406,657,o),
(488,581,o),
(506,488,c),
(570,501,l),
(542,624,o),
(453,713,o),
(299,713,cs),
(86,713,o),
(-5,541,o),
(-5,355,cs),
(-5,163,o),
(81,-13,o),
(299,-13,cs),
(453,-13,o),
(542,76,o),
(570,199,c)
);
},
{
closed = 1;
nodes = (
(453,-13,o),
(542,76,o),
(570,199,c),
(510,211,l),
(485,117,o),
(420,43,o),
(299,43,cs),
(142,43,o),
(57,167,o),
(57,357,cs),
(57,542,o),
(158,657,o),
(299,657,cs),
(406,657,o),
(488,581,o),
(506,488,c),
(570,501,l),
(542,624,o),
(453,713,o),
(299,713,cs),
(86,713,o),
(-5,541,o),
(-5,355,cs),
(-5,163,o),
(81,-13,o),
(299,-13,cs)
);
}
);
width = 600;
}
);
unicode = 71;
},
{
glyphname = H;
lastChange = "2024-11-14 11:32:06 +0000";
layers = (
{
anchors = (
{
name = bottom;
pos = (324,0);
},
{
name = center;
pos = (393,525);
},
{
name = top;
pos = (385,700);
},
{
name = topleft;
pos = (99,700);
}
);
layerId = m01;
shapes = (
{
closed = 1;
nodes = (
(138,0,l),
(173,336,l),
(535,336,l),
(500,0,l),
(564,0,l),
(637,700,l),
(573,700,l),
(541,392,l),
(179,392,l),
(211,700,l),
(147,700,l),
(74,0,l)
);
}
);
width = 690;
},
{
anchors = (
{
name = bottom;
pos = (325,0);
},
{
name = center;
pos = (398,525);
},
{
name = top;
pos = (394,700);
},
{
name = topleft;
pos = (99,700);
}
);
layerId = m002;
shapes = (
{
closed = 1;
nodes = (
(156,0,l),
(190,324,l),
(526,324,l),
(492,0,l),
(580,0,l),
(653,700,l),
(565,700,l),
(534,404,l),
(198,404,l),
(229,700,l),
(141,700,l),
(68,0,l)
);
}
);
width = 700;
},
{
anchors = (
{
name = bottom;
pos = (353,0);
},
{
name = center;
pos = (425,525);
},
{
name = top;
pos = (421,700);
},
{
name = topleft;
pos = (99,700);
}
);
layerId = m003;
shapes = (
{
closed = 1;
nodes = (
(209,0,l),
(241,301,l),
(523,301,l),
(491,0,l),
(637,0,l),
(711,700,l),
(565,700,l),
(536,427,l),
(254,427,l),
(283,700,l),
(137,700,l),
(63,0,l)
);
}
);
width = 754;
}
);
unicode = 72;
},
{
glyphname = Hbar;
lastChange = "2024-11-09 08:18:09 +0000";
layers = (
{
layerId = m01;
shapes = (
{
closed = 1;
nodes = (
(138,0,l),
(173,336,l),
(535,336,l),
(500,0,l),
(564,0,l),
(637,700,l),
(573,700,l),
(541,392,l),
(179,392,l),
(211,700,l),
(147,700,l),
(74,0,l)
);
},
{
closed = 1;
nodes = (
(695,494,l),
(701,550,l),
(57,550,l),
(51,494,l)
);
}
);
width = 690;
},
{
layerId = m002;
shapes = (
{
closed = 1;
nodes = (
(153,0,l),
(186,318,l),
(522,318,l),
(489,0,l),
(577,0,l),
(650,700,l),
(562,700,l),
(531,398,l),
(195,398,l),
(226,700,l),
(138,700,l),
(65,0,l)
);
},
{
closed = 1;
nodes = (
(695,498,l),
(702,568,l),
(58,568,l),
(51,498,l)
);
}
);
width = 700;
},
{
layerId = m003;
shapes = (
{
closed = 1;
nodes = (
(209,0,l),
(240,290,l),
(522,290,l),
(491,0,l),
(637,0,l),
(711,700,l),
(565,700,l),
(535,416,l),
(253,416,l),
(283,700,l),
(137,700,l),
(63,0,l)
);
},
{
closed = 1;
nodes = (
(776,497,l),
(787,607,l),
(45,607,l),
(34,497,l)
);
}
);
width = 754;
}
);
unicode = 294;
},
{
glyphname = I;
lastChange = "2024-11-14 11:32:34 +0000";
layers = (
{
anchors = (
{
name = bottom;
pos = (222,0);
},
{
name = ogonek;
pos = (385,0);
},
{
name = top;
pos = (295,700);
}
);
layerId = m01;
shapes = (
{
closed = 1;
nodes = (
(385,0,l),
(391,56,l),
(260,56,l),
(321,644,l),
(452,644,l),
(458,700,l),
(132,700,l),
(126,644,l),
(257,644,l),
(196,56,l),
(65,56,l),
(59,0,l)
);
}
);
width = 496;
},
{
anchors = (
{
name = bottom;
pos = (212,0);
},
{
name = ogonek;
pos = (374,0);
},
{
name = top;
pos = (285,700);
}
);
layerId = m002;
shapes = (
{
closed = 1;
nodes = (
(374,0,l),
(382,76,l),
(264,76,l),
(321,624,l),
(439,624,l),
(447,700,l),
(123,700,l),
(115,624,l),
(233,624,l),
(176,76,l),
(58,76,l),
(50,0,l)
);
}
);
width = 476;
},
{
anchors = (
{
name = bottom;
pos = (240,0);
},
{
name = ogonek;
pos = (426,0);
},
{
name = top;
pos = (314,700);
}
);
layerId = m003;
shapes = (
{
closed = 1;
nodes = (
(426,0,l),
(439,122,l),
(326,122,l),
(374,578,l),
(487,578,l),
(500,700,l),
(127,700,l),
(114,578,l),
(228,578,l),
(180,122,l),
(66,122,l),
(53,0,l)
);
}
);
width = 533;
}
);
unicode = 73;
},
{
glyphname = J;
lastChange = "2024-11-02 04:49:56 +0000";
layers = (
{
anchors = (
{
name = top;
pos = (445,700);
}
);
layerId = m01;
shapes = (
{
closed = 1;
nodes = (
(333,-12,o),
(409,65,o),
(428,253,cs),
(475,700,l),
(415,700,l),
(368,252,ls),
(353,111,o),
(307,44,o),
(197,44,cs),
(111,44,o),
(72,107,o),
(67,192,c),
(7,173,l),
(13,56,o),
(78,-12,o),
(195,-12,cs)
);
}
);
width = 516;
},
{
anchors = (
{
name = top;
pos = (446,700);
}
);
layerId = m002;
shapes = (
{
closed = 1;
nodes = (
(352,-12,o),
(428,85,o),
(446,256,cs),
(492,700,l),
(404,700,l),
(358,255,ls),
(346,148,o),
(302,68,o),
(211,68,cs),
(138,68,o),
(95,120,o),
(90,200,c),
(3,173,l),
(9,56,o),
(84,-12,o),
(206,-12,cs)
);
}
);
width = 527;
},
{
anchors = (
{
name = top;
pos = (473,700);
}
);
layerId = m003;
shapes = (
{
closed = 1;
nodes = (
(400,-12,o),
(484,90,o),
(502,261,cs),
(548,700,l),
(402,700,l),
(356,260,ls),
(348,185,o),
(314,118,o),
(241,118,cs),
(165,118,o),
(131,170,o),
(126,227,c),
(-5,183,l),
(0,66,o),
(88,-12,o),
(228,-12,cs)
);
}
);
width = 575;
},
{
associatedMasterId = m01;
layerId = "F0224C38-C702-4CDE-838B-2E373CDF467B";
name = "5 Aug 24 at 10:34";
shapes = (
{
closed = 1;
nodes = (
(314,-12,o),
(407,94,o),
(407,275,cs),
(407,701,l),
(347,701,l),
(347,275,l),
(347,121,o),
(270,44,o),
(164,44,cs),
(60,44,o),
(-19,121,o),
(-19,275,cs),
(-19,701,l),
(-79,701,l),
(-79,275,ls),
(-79,94,o),
(15,-12,o),
(168,-12,cs)
);
}
);
width = 496;
},
{
associatedMasterId = m002;
layerId = "D039DF4E-49D3-4032-B6A6-5E0752F96B5B";
name = "5 Aug 24 at 10:37";
shapes = (
{
closed = 1;
nodes = (
(328,-12,o),
(413,98,o),
(413,275,cs),
(413,701,l),
(325,701,l),
(325,275,ls),
(325,139,o),
(251,73,o),
(162,73,cs),
(69,73,o),
(-1,139,o),
(-1,275,cs),
(-1,701,l),
(-89,701,l),
(-89,275,ls),
(-89,98,o),
(7,-12,o),
(166,-12,cs)
);
}
);
width = 495;
}
);
unicode = 74;
},
{
glyphname = K;
lastChange = "2024-11-02 04:49:56 +0000";
layers = (
{
anchors = (
{
name = bottom;
pos = (290,0);
}
);
layerId = m01;
shapes = (
{
closed = 1;
nodes = (
(134,0,l),
(159,244,l),
(608,700,l),
(531,700,l),
(168,330,l),
(207,700,l),
(147,700,l),
(74,0,l)
);
},
{
closed = 1;
nodes = (
(550,0,l),
(335,429,l),
(288,382,l),
(472,0,l)
);
}
);
width = 592;
},
{
anchors = (
{
name = bottom;
pos = (326,0);
}
);
layerId = m002;
shapes = (
{
closed = 1;
nodes = (
(154,0,l),
(179,242,l),
(634,700,l),
(527,700,l),
(191,358,l),
(227,700,l),
(139,700,l),
(66,0,l)
);
},
{
closed = 1;
nodes = (
(579,0,l),
(359,435,l),
(292,373,l),
(474,0,l)
);
}
);
width = 615;
},
{
anchors = (
{
name = bottom;
pos = (313,0);
}
);
layerId = m003;
shapes = (
{
closed = 1;
nodes = (
(209,0,l),
(233,224,l),
(698,700,l),
(538,700,l),
(252,404,l),
(283,700,l),
(137,700,l),
(63,0,l)
);
},
{
closed = 1;
nodes = (
(634,0,l),
(436,450,l),
(322,340,l),
(464,0,l)
);
}
);
width = 665;
}
);
unicode = 75;
},
{
glyphname = L;
lastChange = "2024-11-21 09:10:56 +0000";
layers = (
{
anchors = (
{
name = bottom;
pos = (282,0);
},
{
name = top;
pos = (177,700);
},
{
name = topright;
pos = (384,583);
}
);
layerId = m01;
shapes = (
{
closed = 1;
nodes = (
(483,0,l),
(489,56,l),
(142,56,l),
(209,700,l),
(145,700,l),
(72,0,l)
);
}
);
width = 529;
},
{
anchors = (
{
name = bottom;
pos = (275,0);
},
{
name = top;
pos = (183,700);
},
{
name = topright;
pos = (384,563);
}
);
layerId = m002;
shapes = (
{
closed = 1;
nodes = (
(480,0,l),
(488,80,l),
(164,80,l),
(229,700,l),
(141,700,l),
(68,0,l)
);
}
);
width = 524;
},
{
anchors = (
{
name = bottom;
pos = (308,0);
},
{
name = top;
pos = (206,700);
},
{
name = topright;
pos = (384,529);
}
);
layerId = m003;
shapes = (
{
closed = 1;
nodes = (
(538,0,l),
(552,126,l),
(223,126,l),
(283,700,l),
(137,700,l),
(63,0,l)
);
}
);
width = 579;
}
);
unicode = 76;
},
{
glyphname = Lcaron;
lastChange = "2024-11-21 09:10:56 +0000";
layers = (
{
layerId = m01;
shapes = (
{
ref = L;
},
{
pos = (308,-3);
ref = caroncomb.alt;
}
);
width = 529;
},
{
layerId = m002;
shapes = (
{
ref = L;
},
{
pos = (338,-27);
ref = caroncomb.alt;
}
);
width = 524;
},
{
background = {
shapes = (
{
closed = 1;
nodes = (
(435,530,l),
(507,700,l),
(377,700,l),
(340,530,l)
);
}
);
};
layerId = m003;
shapes = (
{
ref = L;
},
{
pos = (320,-30);
ref = caroncomb.alt;
}
);
width = 579;
}
);
unicode = 317;
},
{
glyphname = Lslash;
lastChange = "2024-11-21 09:11:57 +0000";
layers = (
{
layerId = m01;
shapes = (
{
closed = 1;
nodes = (
(374,392,l),
(358,444,l),
(10,305,l),
(24,252,l)
);
},
{
ref = L;
}
);
width = 529;
},
{
layerId = m002;
shapes = (
{
closed = 1;
nodes = (
(403,395,l),
(383,459,l),
(10,308,l),
(32,243,l)
);
},
{
pos = (4,0);
ref = L;
}
);
width = 528;
},
{
layerId = m003;
shapes = (
{
closed = 1;
nodes = (
(481,400,l),
(452,494,l),
(12,320,l),
(40,223,l)
);
},
{
pos = (20,0);
ref = L;
}
);
width = 599;
}
);
metricRight = L;
unicode = 321;
},
{
glyphname = M;
lastChange = "2024-11-09 08:18:26 +0000";
layers = (
{
layerId = m01;
shapes = (
{
closed = 1;
nodes = (
(132,0,l),
(196,613,l),
(367,80,l),
(437,80,l),
(720,613,l),
(656,0,l),
(716,0,l),
(789,700,l),
(702,700,l),
(409,139,l),
(232,700,l),
(145,700,l),
(72,0,l)
);
}
);
width = 840;
},
{
layerId = m002;
shapes = (
{
closed = 1;
nodes = (
(157,0,l),
(216,562,l),
(369,62,l),
(464,62,l),
(718,562,l),
(659,0,l),
(747,0,l),
(820,700,l),
(698,700,l),
(425,164,l),
(264,700,l),
(142,700,l),
(69,0,l)
);
}
);
width = 868;
},
{
layerId = m003;
shapes = (
{
closed = 1;
nodes = (
(209,0,l),
(254,429,l),
(368,62,l),
(503,62,l),
(687,430,l),
(642,0,l),
(788,0,l),
(862,700,l),
(691,700,l),
(452,244,l),
(309,700,l),
(137,700,l),
(63,0,l)
);
}
);
width = 905;
}
);
unicode = 77;
},
{
glyphname = N;
lastChange = "2024-11-02 04:49:56 +0000";
layers = (
{
anchors = (
{
name = bottom;
pos = (314,0);
},
{
name = top;
pos = (387,700);
}
);
layerId = m01;
shapes = (
{
closed = 1;
nodes = (
(134,0,l),
(203,656,l),
(172,656,l),
(480,0,l),
(555,0,l),
(628,700,l),
(568,700,l),
(499,44,l),
(530,44,l),
(223,700,l),
(147,700,l),
(74,0,l)
);
}
);
width = 681;
},
{
anchors = (
{
name = bottom;
pos = (326,0);
},
{
name = top;
pos = (399,700);
}
);
layerId = m002;
shapes = (
{
closed = 1;
nodes = (
(158,0,l),
(223,623,l),
(193,623,l),
(468,0,l),
(577,0,l),
(650,700,l),
(562,700,l),
(497,77,l),
(527,77,l),
(265,700,l),
(143,700,l),
(70,0,l)
);
}
);
width = 699;
},
{
anchors = (
{
name = bottom;
pos = (346,0);
},
{
name = top;
pos = (417,700);
}
);
layerId = m003;
shapes = (
{
closed = 1;
nodes = (
(203,0,l),
(256,504,l),
(224,504,l),
(478,0,l),
(622,0,l),
(696,700,l),
(550,700,l),
(498,204,l),
(530,204,l),
(287,700,l),
(131,700,l),
(57,0,l)
);
}
);
width = 732;
}
);
unicode = 78;
},
{
glyphname = Nhookleft;
lastChange = "2024-11-08 23:40:59 +0000";
layers = (
{
guides = (
{
pos = (268,-165);
}
);
layerId = m003;
shapes = (
{
closed = 1;
nodes = (
(753,700,l),
(607,700,l),
(561,258,l),
(344,700,l),
(188,700,l),
(113,-28,ls),
(108,-66,o),
(85,-90,o),
(49,-90,cs),
(36,-90,o),
(8,-89,o),
(-8,-86,c),
(-23,-222,l),
(-7,-227,o),
(31,-230,o),
(47,-230,cs),
(175,-230,o),
(241,-169,o),
(251,-76,cs),
(307,451,l),
(535,0,l),
(679,0,l)
);
}
);
width = 789;
},
{
guides = (
{
pos = (619,-133);
}
);
layerId = m01;
shapes = (
{
closed = 1;
nodes = (
(678,700,l),
(618,700,l),
(558,130,l),
(280,700,l),
(204,700,l),
(121,-89,l),
(111,-162,o),
(87,-178,o),
(39,-178,cs),
(26,-178,o),
(9,-177,o),
(-7,-174,c),
(-12,-224,l),
(5,-229,o),
(26,-232,o),
(42,-232,cs),
(127,-232,o),
(170,-181,o),
(180,-88,c),
(255,604,l),
(550,0,l),
(605,0,l)
);
}
);
width = 731;
},
{
guides = (
{
pos = (371,-142);
}
);
layerId = m002;
shapes = (
{
closed = 1;
nodes = (
(695,700,l),
(607,700,l),
(552,176,l),
(332,700,l),
(203,700,l),
(123,-85,l),
(118,-139,o),
(89,-158,o),
(42,-158,cs),
(29,-158,o),
(11,-157,o),
(-4,-154,c),
(-12,-222,l),
(5,-227,o),
(28,-230,o),
(44,-230,cs),
(153,-230,o),
(199,-179,o),
(209,-86,c),
(278,571,l),
(535,0,l),
(622,0,l)
);
}
);
width = 744;
}
);
unicode = 413;
},
{
glyphname = Eng;
lastChange = "2024-11-07 16:47:15 +0000";
layers = (
{
anchors = (
{
name = bottom;
pos = (367,-230);
},
{
name = top;
pos = (367,700);
}
);
layerId = m003;
shapes = (
{
closed = 1;
nodes = (
(510,-230,o),
(576,-169,o),
(586,-76,cs),
(595,0,l),
(669,700,l),
(523,700,l),
(477,258,l),
(260,700,l),
(104,700,l),
(30,0,l),
(176,0,l),
(223,451,l),
(451,0,l),
(448,-28,ls),
(444,-66,o),
(420,-90,o),
(384,-90,cs),
(371,-90,o),
(343,-89,o),
(327,-86,c),
(312,-222,l),
(328,-227,o),
(366,-230,o),
(382,-230,cs)
);
}
);
width = 733;
},
{
anchors = (
{
name = bottom;
pos = (337,-230);
},
{
name = top;
pos = (337,700);
}
);
layerId = m01;
shapes = (
{
closed = 1;
nodes = (
(484,-232,o),
(527,-181,o),
(537,-88,cs),
(548,0,l),
(621,700,l),
(561,700,l),
(501,130,l),
(223,700,l),
(147,700,l),
(74,0,l),
(134,0,l),
(198,604,l),
(492,2,l),
(482,-87,ls),
(473,-160,o),
(444,-178,o),
(396,-178,cs),
(383,-178,o),
(366,-177,o),
(350,-174,c),
(345,-224,l),
(362,-229,o),
(383,-232,o),
(399,-232,cs)
);
}
);
width = 674;
},
{
anchors = (
{
name = bottom;
pos = (342,-230);
},
{
name = top;
pos = (342,700);
}
);
layerId = m002;
shapes = (
{
closed = 1;
nodes = (
(497,-230,o),
(543,-179,o),
(553,-86,cs),
(562,0,l),
(635,700,l),
(547,700,l),
(492,176,l),
(272,700,l),
(143,700,l),
(70,0,l),
(158,0,l),
(218,571,l),
(475,0,l),
(467,-85,ls),
(462,-139,o),
(433,-158,o),
(386,-158,cs),
(373,-158,o),
(355,-157,o),
(340,-154,c),
(332,-222,l),
(349,-227,o),
(372,-230,o),
(388,-230,cs)
);
}
);
width = 684;
}
);
unicode = 330;
},
{
glyphname = O;
kernLeft = O;
kernRight = O;
lastChange = "2024-11-14 11:33:38 +0000";
layers = (
{
anchors = (
{
name = bottom;
pos = (336,-11);
},
{
name = top;
pos = (417,712);
}
);
layerId = m01;
shapes = (
{
closed = 1;
nodes = (
(556,-12,o),
(662,157,o),
(682,349,cs),
(703,543,o),
(633,712,o),
(417,712,cs),
(201,712,o),
(95,543,o),
(74,349,cs),
(54,157,o),
(124,-12,o),
(340,-12,cs)
);
},
{
closed = 1;
nodes = (
(199,44,o),
(116,154,o),
(136,349,cs),
(156,540,o),
(264,656,o),
(411,656,cs),
(558,656,o),
(640,540,o),
(620,349,cs),
(600,154,o),
(493,44,o),
(346,44,cs)
);
}
);
width = 736;
},
{
anchors = (
{
name = bottom;
pos = (341,-11);
},
{
name = top;
pos = (421,713);
}
);
layerId = m002;
shapes = (
{
closed = 1;
nodes = (
(565,-11,o),
(675,158,o),
(696,351,cs),
(716,544,o),
(641,713,o),
(421,713,cs),
(201,713,o),
(90,544,o),
(70,351,cs),
(49,158,o),
(125,-11,o),
(345,-11,cs)
);
},
{
closed = 1;
nodes = (
(210,69,o),
(145,196,o),
(162,351,cs),
(178,506,o),
(269,633,o),
(412,633,cs),
(565,633,o),
(620,506,o),
(604,351,cs),
(587,196,o),
(506,69,o),
(353,69,cs)
);
}
);
width = 744;
},
{
anchors = (
{
name = bottom;
pos = (347,-11);
},
{
name = top;
pos = (428,713);
}
);
layerId = m003;
shapes = (
{
closed = 1;
nodes = (
(576,-11,o),
(699,148,o),
(720,351,cs),
(742,554,o),
(652,713,o),
(428,713,cs),
(204,713,o),
(80,554,o),
(58,351,cs),
(37,148,o),
(128,-11,o),
(352,-11,cs)
);
},
{
closed = 1;
nodes = (
(251,115,o),
(196,196,o),
(212,351,cs),
(228,506,o),
(301,587,o),
(415,587,cs),
(537,587,o),
(582,506,o),
(566,351,cs),
(550,196,o),
(487,115,o),
(365,115,cs)
);
}
);
width = 758;
}
);
unicode = 79;
},
{
glyphname = Ohorn;
kernLeft = O;
lastChange = "2024-11-21 09:14:56 +0000";
layers = (
{
layerId = m01;
shapes = (
{
closed = 1;
nodes = (
(660,627,o),
(752,705,o),
(716,827,c),
(653,808,l),
(676,738,o),
(642,676,o),
(578,676,cs),
(548,676,o),
(518,691,o),
(489,698,c),
(483,641,l),
(573,627,l)
);
},
{
pos = (-26,0);
ref = O;
}
);
width = 757;
},
{
layerId = m002;
shapes = (
{
closed = 1;
nodes = (
(681,614,o),
(753,710,o),
(717,832,c),
(635,810,l),
(657,751,o),
(640,681,o),
(572,681,cs),
(536,681,o),
(509,697,o),
(486,701,c),
(478,627,l),
(547,614,l)
);
},
{
pos = (-26,0);
ref = O;
}
);
width = 764;
},
{
layerId = m003;
shapes = (
{
closed = 1;
nodes = (
(745,603,o),
(842,712,o),
(802,847,c),
(685,816,l),
(708,757,o),
(696,684,o),
(615,684,cs),
(579,684,o),
(557,698,o),
(504,706,c),
(496,623,l),
(612,603,l)
);
},
{
ref = O;
}
);
width = 760;
}
);
metricLeft = O;
unicode = 416;
},
{
glyphname = Oopen;
lastChange = "2024-11-09 00:12:30 +0000";
layers = (
{
layerId = m01;
shapes = (
{
closed = 1;
nodes = (
(227,713,o),
(128,624,o),
(87,501,c),
(146,489,l),
(181,583,o),
(254,657,o),
(366,657,cs),
(513,657,o),
(585,533,o),
(565,343,cs),
(545,158,o),
(432,43,o),
(301,43,cs),
(203,43,o),
(129,119,o),
(121,212,c),
(56,199,l),
(71,76,o),
(150,-13,o),
(295,-13,cs),
(498,-13,o),
(607,159,o),
(627,345,cs),
(647,537,o),
(580,713,o),
(372,713,cs)
);
}
);
width = 663;
},
{
layerId = m002;
shapes = (
{
closed = 1;
nodes = (
(246,713,o),
(134,625,o),
(93,502,c),
(181,484,l),
(213,570,o),
(291,633,o),
(383,633,cs),
(514,633,o),
(576,506,o),
(559,343,cs),
(542,188,o),
(455,67,o),
(324,67,cs),
(232,67,o),
(166,130,o),
(152,216,c),
(62,198,l),
(77,75,o),
(169,-13,o),
(315,-13,cs),
(521,-13,o),
(629,152,o),
(649,345,cs),
(668,529,o),
(599,713,o),
(392,713,cs)
);
}
);
width = 689;
},
{
layerId = m003;
shapes = (
{
closed = 1;
nodes = (
(211,713,o),
(114,625,o),
(73,502,c),
(211,474,l),
(232,540,o),
(293,582,o),
(349,582,cs),
(470,582,o),
(519,503,o),
(502,344,cs),
(487,202,o),
(425,118,o),
(304,118,cs),
(244,118,o),
(194,169,o),
(185,227,c),
(41,199,l),
(56,76,o),
(160,-12,o),
(289,-12,cs),
(513,-12,o),
(636,152,o),
(656,346,cs),
(676,530,o),
(609,713,o),
(363,713,cs)
);
}
);
width = 684;
}
);
unicode = 390;
},
{
glyphname = Oslash;
lastChange = "2024-11-02 04:49:56 +0000";
layers = (
{
layerId = m01;
shapes = (
{
pos = (26,0);
ref = O;
},
{
closed = 1;
nodes = (
(81,-12,l),
(808,682,l),
(766,720,l),
(43,31,l)
);
}
);
width = 827;
},
{
layerId = m002;
shapes = (
{
pos = (36,0);
ref = O;
},
{
closed = 1;
nodes = (
(87,-12,l),
(839,656,l),
(785,712,l),
(38,47,l)
);
}
);
width = 855;
},
{
layerId = m003;
shapes = (
{
pos = (37,0);
ref = O;
},
{
closed = 1;
nodes = (
(109,-12,l),
(864,619,l),
(781,712,l),
(30,85,l)
);
}
);
width = 874;
}
);
unicode = 216;
},
{
glyphname = OE;
lastChange = "2024-11-07 16:48:45 +0000";
layers = (
{
anchors = (
{
name = bottom;
pos = (490,0);
},
{
name = top;
pos = (564,700);
}
);
layerId = m01;
shapes = (
{
closed = 1;
nodes = (
(893,0,l),
(899,56,l),
(565,56,l),
(594,332,l),
(866,332,l),
(872,388,l),
(600,388,l),
(626,644,l),
(960,644,l),
(966,700,l),
(445,700,ls),
(219,700,o),
(97,559,o),
(76,351,cs),
(53,140,o),
(146,0,o),
(372,0,cs)
);
},
{
closed = 1;
nodes = (
(181,56,o),
(121,193,o),
(137,350,cs),
(154,508,o),
(242,644,o),
(436,644,cs),
(562,644,l),
(501,56,l),
(375,56,ls)
);
}
);
width = 979;
},
{
anchors = (
{
name = bottom;
pos = (491,0);
},
{
name = top;
pos = (567,700);
}
);
layerId = m002;
shapes = (
{
closed = 1;
nodes = (
(898,0,l),
(906,80,l),
(583,80,l),
(608,320,l),
(870,320,l),
(879,398,l),
(617,398,l),
(640,620,l),
(963,620,l),
(971,700,l),
(440,700,ls),
(208,700,o),
(86,559,o),
(65,351,cs),
(42,140,o),
(135,0,o),
(367,0,cs)
);
},
{
closed = 1;
nodes = (
(209,80,o),
(140,193,o),
(156,350,cs),
(173,508,o),
(266,620,o),
(429,620,cs),
(539,620,l),
(482,80,l),
(372,80,ls)
);
}
);
width = 981;
},
{
anchors = (
{
name = bottom;
pos = (487,0);
},
{
name = top;
pos = (573,700);
}
);
layerId = m003;
shapes = (
{
closed = 1;
nodes = (
(905,0,l),
(919,126,l),
(608,126,l),
(626,297,l),
(886,297,l),
(899,423,l),
(639,423,l),
(655,574,l),
(966,574,l),
(979,700,l),
(432,700,ls),
(202,700,o),
(80,554,o),
(58,349,cs),
(37,147,o),
(128,0,o),
(358,0,cs)
);
},
{
closed = 1;
nodes = (
(260,126,o),
(196,198,o),
(212,350,cs),
(228,501,o),
(307,574,o),
(416,574,cs),
(521,574,l),
(474,126,l),
(369,126,ls)
);
}
);
width = 974;
}
);
unicode = 338;
},
{
glyphname = P;
lastChange = "2024-11-02 04:49:56 +0000";
layers = (
{
layerId = m01;
shapes = (
{
closed = 1;
nodes = (
(138,0,l),
(165,262,l),
(333,262,ls),
(471,262,o),
(558,350,o),
(570,472,cs),
(585,615,o),
(508,700,o),
(381,700,cs),
(145,700,l),
(72,0,l)
);
},
{
closed = 1;
nodes = (
(203,644,l),
(373,644,ls),
(467,644,o),
(519,578,o),
(508,472,cs),
(498,375,o),
(435,318,o),
(338,318,cs),
(169,318,l)
);
}
);
width = 585;
},
{
layerId = m002;
shapes = (
{
closed = 1;
nodes = (
(157,0,l),
(183,252,l),
(344,252,l),
(485,252,o),
(577,342,o),
(590,472,cs),
(605,615,o),
(523,700,o),
(393,700,cs),
(142,700,l),
(69,0,l)
);
},
{
closed = 1;
nodes = (
(222,621,l),
(383,621,ls),
(456,621,o),
(511,573,o),
(500,472,cs),
(490,376,o),
(426,332,o),
(352,332,cs),
(192,332,l)
);
}
);
width = 602;
},
{
layerId = m003;
shapes = (
{
closed = 1;
nodes = (
(211,-1,l),
(236,231,l),
(386,231,ls),
(530,231,o),
(627,336,o),
(640,465,cs),
(655,609,o),
(570,701,o),
(437,701,cs),
(137,701,l),
(63,-1,l)
);
},
{
closed = 1;
nodes = (
(270,575,l),
(399,575,ls),
(462,575,o),
(493,527,o),
(486,467,cs),
(480,410,o),
(440,357,o),
(376,357,cs),
(247,357,l)
);
}
);
width = 638;
}
);
unicode = 80;
},
{
glyphname = Thorn;
lastChange = "2024-11-02 04:49:56 +0000";
layers = (
{
layerId = m01;
shapes = (
{
closed = 1;
nodes = (
(138,0,l),
(152,138,l),
(320,138,ls),
(458,138,o),
(544,226,o),
(557,348,cs),
(572,491,o),
(495,576,o),
(368,576,cs),
(132,576,l),
(72,0,l)
);
},
{
closed = 1;
nodes = (
(190,520,l),
(360,520,ls),
(454,520,o),
(506,454,o),
(495,348,cs),
(485,251,o),
(422,194,o),
(325,194,cs),
(156,194,l)
);
},
{
closed = 1;
nodes = (
(126,512,l),
(191,512,l),
(210,700,l),
(145,700,l)
);
}
);
width = 585;
},
{
layerId = m002;
shapes = (
{
closed = 1;
nodes = (
(157,0,l),
(170,128,l),
(331,128,l),
(472,128,o),
(564,218,o),
(577,348,cs),
(592,491,o),
(510,576,o),
(380,576,cs),
(129,576,l),
(69,0,l)
);
},
{
closed = 1;
nodes = (
(209,497,l),
(370,497,ls),
(443,497,o),
(498,449,o),
(487,348,cs),
(477,252,o),
(413,208,o),
(339,208,cs),
(179,208,l)
);
},
{
closed = 1;
nodes = (
(121,500,l),
(207,500,l),
(228,700,l),
(142,700,l)
);
}
);
width = 602;
},
{
layerId = m003;
shapes = (
{
closed = 1;
nodes = (
(211,-1,l),
(224,122,l),
(374,122,ls),
(518,122,o),
(615,227,o),
(629,356,cs),
(644,500,o),
(559,592,o),
(426,592,cs),
(126,592,l),
(63,-1,l)
);
},
{
closed = 1;
nodes = (
(258,466,l),
(387,466,ls),
(450,466,o),
(481,418,o),
(475,358,cs),
(469,301,o),
(428,248,o),
(364,248,cs),
(235,248,l)
);
},
{
closed = 1;
nodes = (
(112,462,l),
(260,462,l),
(285,700,l),
(137,700,l)
);
}
);
width = 638;
}
);
unicode = 222;
},
{
glyphname = Q;
kernLeft = O;
kernRight = O;
lastChange = "2024-11-02 04:49:56 +0000";
layers = (
{
layerId = m01;
shapes = (
{
closed = 1;
nodes = (
(556,-12,o),
(662,157,o),
(682,349,cs),
(703,543,o),
(633,712,o),
(417,712,cs),
(201,712,o),
(95,543,o),
(74,349,cs),
(54,157,o),
(124,-12,o),
(340,-12,cs)
);
},
{
closed = 1;
nodes = (
(653,-33,l),
(437,256,l),
(390,220,l),
(604,-71,l)
);
},
{
closed = 1;
nodes = (
(199,44,o),
(116,154,o),
(136,349,cs),
(156,540,o),
(264,656,o),
(411,656,cs),
(558,656,o),
(640,540,o),
(620,349,cs),
(600,154,o),
(493,44,o),
(346,44,cs)
);
}
);
width = 745;
},
{
layerId = m002;
shapes = (
{
closed = 1;
nodes = (
(565,-11,o),
(675,158,o),
(696,351,cs),
(716,544,o),
(641,713,o),
(421,713,cs),
(201,713,o),
(90,544,o),
(70,351,cs),
(49,158,o),
(125,-11,o),
(345,-11,cs)
);
},
{
closed = 1;
nodes = (
(671,-34,l),
(438,272,l),
(380,227,l),
(609,-82,l)
);
},
{
closed = 1;
nodes = (
(200,69,o),
(145,196,o),
(162,351,cs),
(178,506,o),
(259,633,o),
(412,633,cs),
(565,633,o),
(620,506,o),
(604,351,cs),
(587,196,o),
(506,69,o),
(353,69,cs)
);
}
);
width = 752;
},
{
layerId = m003;
shapes = (
{
closed = 1;
nodes = (
(570,-11,o),
(688,158,o),
(708,351,cs),
(728,544,o),
(646,713,o),
(422,713,cs),
(198,713,o),
(78,544,o),
(58,351,cs),
(38,158,o),
(122,-11,o),
(346,-11,cs)
);
},
{
closed = 1;
nodes = (
(681,-30,l),
(435,299,l),
(338,226,l),
(583,-105,l)
);
},
{
closed = 1;
nodes = (
(216,111,o),
(177,224,o),
(190,351,cs),
(202,463,o),
(260,592,o),
(410,592,cs),
(560,592,o),
(586,463,o),
(574,351,cs),
(561,224,o),
(509,111,o),
(359,111,cs)
);
}
);
width = 734;
}
);
unicode = 81;
},
{
glyphname = R;
lastChange = "2024-11-02 04:49:56 +0000";
layers = (
{
anchors = (
{
name = bottom;
pos = (279,0);
},
{
name = top;
pos = (321,700);
}
);
layerId = m01;
shapes = (
{
closed = 1;
nodes = (
(138,0,l),
(168,292,l),
(320,292,ls),
(453,292,o),
(541,395,o),
(551,488,cs),
(566,631,o),
(487,700,o),
(365,700,cs),
(145,700,l),
(72,0,l)
);
},
{
closed = 1;
nodes = (
(537,0,l),
(391,306,l),
(330,292,l),
(467,0,l)
);
},
{
closed = 1;
nodes = (
(203,644,l),
(357,644,ls),
(446,644,o),
(500,594,o),
(489,488,cs),
(482,420,o),
(416,348,o),
(324,348,cs),
(172,348,l)
);
}
);
width = 608;
},
{
anchors = (
{
name = bottom;
pos = (302,0);
},
{
name = top;
pos = (375,700);
}
);
layerId = m002;
shapes = (
{
closed = 1;
nodes = (
(157,0,l),
(187,290,l),
(330,290,ls),
(474,290,o),
(577,376,o),
(590,498,cs),
(604,631,o),
(521,700,o),
(399,700,cs),
(142,700,l),
(69,0,l)
);
},
{
closed = 1;
nodes = (
(576,0,l),
(423,319,l),
(337,292,l),
(474,0,l)
);
},
{
closed = 1;
nodes = (
(222,620,l),
(385,620,ls),
(455,620,o),
(508,573,o),
(500,498,cs),
(492,422,o),
(429,370,o),
(359,370,cs),
(196,370,l)
);
}
);
width = 644;
},
{
anchors = (
{
name = bottom;
pos = (290,0);
},
{
name = top;
pos = (364,700);
}
);
layerId = m003;
shapes = (
{
closed = 1;
nodes = (
(211,-1,l),
(238,251,l),
(388,251,ls),
(532,251,o),
(627,341,o),
(642,478,cs),
(657,622,o),
(570,701,o),
(437,701,cs),
(137,701,l),
(63,-1,l)
);
},
{
closed = 1;
nodes = (
(640,0,l),
(492,283,l),
(332,269,l),
(467,0,l)
);
},
{
closed = 1;
nodes = (
(270,575,l),
(399,575,ls),
(462,575,o),
(493,533,o),
(488,480,cs),
(480,410,o),
(442,377,o),
(378,377,cs),
(249,377,l)
);
}
);
width = 699;
}
);
unicode = 82;
},
{
glyphname = S;
lastChange = "2024-11-02 04:49:56 +0000";
layers = (
{
anchors = (
{
name = bottom;
pos = (279,-12);
},
{
name = top;
pos = (353,712);
}
);
layerId = m01;
shapes = (
{
closed = 1;
nodes = (
(414,-12,o),
(523,58,o),
(537,195,cs),
(563,437,o),
(138,334,o),
(157,521,cs),
(165,591,o),
(228,656,o),
(335,656,cs),
(453,656,o),
(495,580,o),
(497,513,c),
(563,513,l),
(567,603,o),
(493,712,o),
(348,712,cs),
(191,712,o),
(106,618,o),
(95,516,cs),
(68,259,o),
(495,382,o),
(474,186,cs),
(467,114,o),
(404,44,o),
(283,44,cs),
(160,44,o),
(113,121,o),
(107,214,c),
(40,214,l),
(41,99,o),
(113,-12,o),
(277,-12,cs)
);
}
);
width = 596;
},
{
anchors = (
{
name = bottom;
pos = (285,-12);
},
{
name = top;
pos = (359,712);
}
);
layerId = m002;
shapes = (
{
closed = 1;
nodes = (
(425,-12,o),
(539,58,o),
(553,195,cs),
(581,457,o),
(175,344,o),
(193,521,cs),
(201,591,o),
(273,632,o),
(343,632,cs),
(438,632,o),
(480,572,o),
(484,513,c),
(577,513,l),
(581,603,o),
(512,712,o),
(359,712,cs),
(199,712,o),
(112,618,o),
(101,516,cs),
(73,246,o),
(480,371,o),
(460,186,cs),
(453,114,o),
(377,68,o),
(294,68,cs),
(199,68,o),
(150,129,o),
(145,214,c),
(48,214,l),
(49,99,o),
(115,-12,o),
(285,-12,cs)
);
}
);
width = 597;
},
{
anchors = (
{
name = bottom;
pos = (286,-5);
},
{
name = top;
pos = (362,712);
}
);
layerId = m003;
shapes = (
{
closed = 1;
nodes = (
(444,-12,o),
(555,63,o),
(569,200,cs),
(597,459,o),
(226,386,o),
(239,509,cs),
(245,568,o),
(304,582,o),
(348,582,cs),
(404,582,o),
(439,554,o),
(442,505,c),
(595,505,l),
(600,595,o),
(540,712,o),
(362,712,cs),
(185,712,o),
(96,606,o),
(85,504,cs),
(57,234,o),
(430,338,o),
(414,186,cs),
(409,142,o),
(360,118,o),
(299,118,cs),
(243,118,o),
(194,147,o),
(188,222,c),
(32,222,l),
(33,107,o),
(91,-12,o),
(285,-12,cs)
);
}
);
width = 611;
}
);
unicode = 83;
},
{
glyphname = Germandbls;
lastChange = "2024-11-02 04:49:56 +0000";
layers = (
{
layerId = m01;
shapes = (
{
closed = 1;
nodes = (
(134,0,l),
(207,700,l),
(147,700,l),
(74,0,l)
);
},
{
closed = 1;
nodes = (
(186,98,l),
(219,29,o),
(288,-12,o),
(373,-12,cs),
(495,-12,o),
(598,69,o),
(611,204,cs),
(622,320,o),
(552,423,o),
(398,423,c),
(621,639,l),
(627,700,l),
(169,700,l),
(163,644,l),
(548,644,l),
(317,423,l),
(312,370,l),
(369,370,ls),
(498,370,o),
(561,305,o),
(551,208,cs),
(542,124,o),
(481,44,o),
(379,44,cs),
(305,44,o),
(262,76,o),
(241,128,c)
);
}
);
width = 667;
},
{
layerId = m002;
shapes = (
{
closed = 1;
nodes = (
(171,0,l),
(244,700,l),
(156,700,l),
(83,0,l)
);
},
{
closed = 1;
nodes = (
(219,91,l),
(240,31,o),
(303,-12,o),
(398,-12,cs),
(533,-12,o),
(623,77,o),
(637,210,cs),
(648,312,o),
(578,414,o),
(443,414,c),
(636,615,l),
(645,700,l),
(221,700,l),
(213,620,l),
(531,620,l),
(332,414,l),
(325,346,l),
(384,346,ls),
(492,346,o),
(554,295,o),
(544,200,cs),
(535,114,o),
(475,68,o),
(407,68,cs),
(347,68,o),
(315,105,o),
(304,139,c)
);
}
);
width = 699;
},
{
layerId = m003;
shapes = (
{
closed = 1;
nodes = (
(228,0,l),
(302,700,l),
(156,700,l),
(82,0,l)
);
},
{
closed = 1;
nodes = (
(273,92,l),
(303,21,o),
(378,-13,o),
(465,-13,cs),
(628,-13,o),
(705,92,o),
(718,218,cs),
(730,331,o),
(652,423,o),
(551,423,c),
(714,574,l),
(727,700,l),
(231,700,l),
(218,574,l),
(551,574,l),
(388,422,l),
(377,317,l),
(449,317,ls),
(524,317,o),
(581,288,o),
(573,217,cs),
(567,155,o),
(523,117,o),
(475,117,cs),
(438,117,o),
(409,133,o),
(397,166,c)
);
}
);
width = 760;
}
);
unicode = 7838;
},
{
glyphname = T;
kernLeft = T;
kernRight = T;
lastChange = "2024-11-09 08:18:56 +0000";
layers = (
{
anchors = (
{
name = bottom;
pos = (224,0);
},
{
name = top;
pos = (297,700);
}
);
layerId = m01;
shapes = (
{
closed = 1;
nodes = (
(256,0,l),
(323,644,l),
(525,644,l),
(531,700,l),
(63,700,l),
(57,644,l),
(259,644,l),
(192,0,l)
);
}
);
width = 500;
},
{
anchors = (
{
name = bottom;
pos = (295,0);
},
{
name = top;
pos = (368,700);
}
);
layerId = m002;
shapes = (
{
closed = 1;
nodes = (
(339,0,l),
(404,620,l),
(593,620,l),
(601,700,l),
(135,700,l),
(127,620,l),
(316,620,l),
(251,0,l)
);
}
);
width = 600;
},
{
anchors = (
{
name = bottom;
pos = (313,0);
},
{
name = top;
pos = (383,700);
}
);
layerId = m003;
shapes = (
{
closed = 1;
nodes = (
(382,0,l),
(443,574,l),
(630,574,l),
(643,700,l),
(127,700,l),
(114,574,l),
(297,574,l),
(236,0,l)
);
}
);
width = 636;
}
);
unicode = 84;
},
{
glyphname = U;
lastChange = "2024-11-14 11:34:33 +0000";
layers = (
{
anchors = (
{
name = bottom;
pos = (308,-12);
},
{
name = ogonek;
pos = (390,0);
},
{
name = top;
pos = (385,713);
}
);
layerId = m01;
shapes = (
{
closed = 1;
nodes = (
(455,-12,o),
(560,94,o),
(579,275,cs),
(623,701,l),
(563,701,l),
(519,275,ls),
(502,121,o),
(417,44,o),
(311,44,cs),
(207,44,o),
(136,121,o),
(153,275,cs),
(197,701,l),
(137,701,l),
(93,275,ls),
(74,94,o),
(156,-12,o),
(309,-12,cs)
);
}
);
width = 666;
},
{
anchors = (
{
name = bottom;
pos = (314,-12);
},
{
name = ogonek;
pos = (404,0);
},
{
name = top;
pos = (391,713);
}
);
layerId = m002;
shapes = (
{
closed = 1;
nodes = (
(481,-12,o),
(578,98,o),
(597,275,cs),
(641,701,l),
(553,701,l),
(509,275,ls),
(494,139,o),
(413,73,o),
(321,73,cs),
(225,73,o),
(162,139,o),
(177,275,cs),
(221,701,l),
(133,701,l),
(89,275,ls),
(70,98,o),
(154,-12,o),
(316,-12,cs)
);
}
);
width = 680;
},
{
anchors = (
{
name = bottom;
pos = (323,-12);
},
{
name = ogonek;
pos = (416,0);
},
{
name = top;
pos = (398,700);
}
);
layerId = m003;
shapes = (
{
closed = 1;
nodes = (
(499,-12,o),
(610,98,o),
(628,275,cs),
(673,701,l),
(527,701,l),
(482,275,ls),
(473,184,o),
(420,118,o),
(333,118,cs),
(242,118,o),
(207,184,o),
(216,275,cs),
(261,701,l),
(115,701,l),
(70,275,ls),
(52,98,o),
(150,-12,o),
(323,-12,cs)
);
}
);
width = 694;
}
);
unicode = 85;
},
{
glyphname = Uhorn;
kernLeft = U;
kernRight = Uhorn;
lastChange = "2024-11-08 23:50:59 +0000";
layers = (
{
layerId = m01;
shapes = (
{
ref = U;
},
{
closed = 1;
nodes = (
(698,652,o),
(790,730,o),
(754,852,c),
(691,833,l),
(715,763,o),
(680,701,o),
(616,701,c),
(611,652,l)
);
}
);
width = 758;
},
{
layerId = m002;
shapes = (
{
pos = (-26,0);
ref = U;
},
{
closed = 1;
nodes = (
(726,647,o),
(796,730,o),
(760,852,c),
(678,830,l),
(701,771,o),
(689,701,o),
(608,701,c),
(603,647,l)
);
}
);
width = 830;
},
{
layerId = m003;
shapes = (
{
pos = (-27,0);
ref = U;
},
{
closed = 1;
nodes = (
(749,620,o),
(849,729,o),
(809,864,c),
(692,833,l),
(715,774,o),
(706,701,o),
(625,701,c),
(616,620,l)
);
}
);
width = 837;
}
);
unicode = 431;
},
{
glyphname = V;
kernLeft = V;
kernRight = V;
lastChange = "2024-11-09 08:19:48 +0000";
layers = (
{
layerId = m01;
shapes = (
{
closed = 1;
nodes = (
(231,0,l),
(293,0,l),
(126,700,l),
(55,700,l)
);
},
{
closed = 1;
nodes = (
(235,0,l),
(293,0,l),
(615,700,l),
(551,700,l)
);
}
);
width = 579;
},
{
layerId = m002;
shapes = (
{
closed = 1;
nodes = (
(227,0,l),
(313,0,l),
(153,700,l),
(55,700,l)
);
},
{
closed = 1;
nodes = (
(233,0,l),
(313,0,l),
(630,700,l),
(544,700,l)
);
}
);
width = 590;
},
{
layerId = m003;
shapes = (
{
closed = 1;
nodes = (
(220,0,l),
(370,0,l),
(207,700,l),
(49,700,l)
);
},
{
closed = 1;
nodes = (
(252,0,l),
(390,0,l),
(708,700,l),
(556,700,l)
);
}
);
width = 663;
}
);
unicode = 86;
},
{
glyphname = W;
kernLeft = V;
kernRight = V;
lastChange = "2024-11-02 04:49:56 +0000";
layers = (
{
anchors = (
{
name = bottom;
pos = (448,0);
},
{
name = top;
pos = (521,700);
}
);
guides = (
{
angle = 270;
pos = (268,658);
},
{
angle = 270;
pos = (474,649);
},
{
angle = 270;
pos = (695,658);
}
);
layerId = m01;
shapes = (
{
closed = 1;
nodes = (
(279,0,l),
(526,638,l),
(509,638,l),
(627,0,l),
(706,0,l),
(973,700,l),
(910,700,l),
(666,48,l),
(682,48,l),
(570,700,l),
(487,700,l),
(239,48,l),
(255,48,l),
(149,700,l),
(79,700,l),
(198,0,l)
);
}
);
width = 958;
},
{
anchors = (
{
name = bottom;
pos = (443,0);
},
{
name = top;
pos = (525,700);
}
);
guides = (
{
angle = 89.2931;
pos = (265,413);
},
{
angle = 89.2931;
pos = (474,411);
},
{
angle = 89.2931;
pos = (696,411);
}
);
layerId = m002;
shapes = (
{
closed = 1;
nodes = (
(292,0,l),
(528,616,l),
(502,616,l),
(610,0,l),
(725,0,l),
(973,700,l),
(880,700,l),
(659,59,l),
(688,59,l),
(579,700,l),
(469,700,l),
(226,59,l),
(255,59,l),
(168,700,l),
(75,700,l),
(177,0,l)
);
}
);
width = 954;
},
{
anchors = (
{
name = bottom;
pos = (464,0);
},
{
name = top;
pos = (538,700);
}
);
guides = (
{
angle = 270;
pos = (287,528);
},
{
angle = 270;
pos = (491,528);
},
{
angle = 270;
pos = (696,528);
}
);
layerId = m003;
shapes = (
{
closed = 1;
nodes = (
(335,0,l),
(542,567,l),
(506,567,l),
(595,0,l),
(759,0,l),
(1014,700,l),
(857,700,l),
(664,129,l),
(704,129,l),
(620,700,l),
(456,700,l),
(254,129,l),
(293,129,l),
(220,700,l),
(63,700,l),
(171,0,l)
);
}
);
width = 983;
},
{
associatedMasterId = m002;
layerId = "61F56607-383A-4625-9FCC-44CDCF2F703C";
name = "14 Jul 24 at 12:33";
shapes = (
{
closed = 1;
nodes = (
(293,0,l),
(463,569,l),
(633,0,l),
(748,0,l),
(898,700,l),
(805,700,l),
(688,116,l),
(517,700,l),
(409,700,l),
(238,116,l),
(121,700,l),
(28,700,l),
(178,0,l)
);
}
);
width = 926;
},
{
associatedMasterId = m003;
layerId = "5ACD06B8-073E-40FC-B562-77ADC4AD2B58";
name = "14 Jul 24 at 12:35";
shapes = (
{
closed = 1;
nodes = (
(332,0,l),
(168,0,l),
(18,700,l),
(175,700,l),
(262,213,l),
(408,700,l),
(556,700,l),
(702,213,l),
(789,700,l),
(946,700,l),
(796,0,l),
(632,0,l),
(482,485,l)
);
}
);
width = 964;
}
);
unicode = 87;
},
{
glyphname = X;
lastChange = "2024-11-09 08:20:02 +0000";
layers = (
{
layerId = m01;
shapes = (
{
closed = 1;
nodes = (
(547,-1,l),
(159,699,l),
(88,699,l),
(477,-1,l)
);
},
{
closed = 1;
nodes = (
(64,-1,l),
(597,699,l),
(526,699,l),
(-6,-1,l)
);
}
);
width = 593;
},
{
layerId = m002;
shapes = (
{
closed = 1;
nodes = (
(554,0,l),
(174,700,l),
(73,700,l),
(454,0,l)
);
},
{
closed = 1;
nodes = (
(89,0,l),
(616,700,l),
(516,700,l),
(-10,0,l)
);
}
);
width = 596;
},
{
layerId = m003;
shapes = (
{
closed = 1;
nodes = (
(609,0,l),
(213,700,l),
(54,700,l),
(451,0,l)
);
},
{
closed = 1;
nodes = (
(137,0,l),
(681,700,l),
(522,700,l),
(-21,0,l)
);
}
);
width = 642;
}
);
unicode = 88;
},
{
glyphname = Y;
lastChange = "2024-11-02 04:49:56 +0000";
layers = (
{
anchors = (
{
name = bottom;
pos = (260,0);
},
{
name = top;
pos = (333,700);
}
);
layerId = m01;
shapes = (
{
closed = 1;
nodes = (
(291,0,l),
(319,294,l),
(605,700,l),
(538,700,l),
(297,350,l),
(127,700,l),
(53,700,l),
(262,294,l),
(228,0,l)
);
}
);
width = 564;
},
{
anchors = (
{
name = bottom;
pos = (268,0);
},
{
name = top;
pos = (341,700);
}
);
layerId = m002;
shapes = (
{
closed = 1;
nodes = (
(313,0,l),
(341,294,l),
(624,700,l),
(531,700,l),
(306,375,l),
(152,700,l),
(52,700,l),
(259,294,l),
(225,0,l)
);
}
);
width = 582;
},
{
anchors = (
{
name = bottom;
pos = (297,0);
},
{
name = top;
pos = (370,700);
}
);
layerId = m003;
shapes = (
{
closed = 1;
nodes = (
(370,0,l),
(398,289,l),
(692,700,l),
(534,700,l),
(340,411,l),
(208,700,l),
(47,700,l),
(257,289,l),
(223,0,l)
);
}
);
width = 645;
}
);
unicode = 89;
},
{
glyphname = Z;
lastChange = "2024-11-02 04:49:56 +0000";
layers = (
{
anchors = (
{
name = bottom;
pos = (238,0);
},
{
name = top;
pos = (311,700);
}
);
layerId = m01;
shapes = (
{
closed = 1;
nodes = (
(457,1,l),
(463,57,l),
(94,57,l),
(524,642,l),
(530,700,l),
(93,700,l),
(87,644,l),
(457,644,l),
(26,59,l),
(20,1,l)
);
}
);
width = 533;
},
{
anchors = (
{
name = bottom;
pos = (245,0);
},
{
name = top;
pos = (318,700);
}
);
layerId = m002;
shapes = (
{
closed = 1;
nodes = (
(469,1,l),
(477,81,l),
(132,81,l),
(534,618,l),
(542,700,l),
(93,700,l),
(85,620,l),
(430,620,l),
(28,83,l),
(20,1,l)
);
}
);
width = 545;
},
{
anchors = (
{
name = bottom;
pos = (244,0);
},
{
name = top;
pos = (318,700);
}
);
layerId = m003;
shapes = (
{
closed = 1;
nodes = (
(490,1,l),
(504,127,l),
(186,127,l),
(551,578,l),
(564,700,l),
(77,700,l),
(64,574,l),
(384,574,l),
(16,123,l),
(3,1,l)
);
}
);
width = 549;
}
);
unicode = 90;
},
{
glyphname = a;
kernLeft = a;
lastChange = "2024-11-14 11:35:26 +0000";
layers = (
{
anchors = (
{
name = bottom;
pos = (250,-12);
},
{
name = ogonek;
pos = (472,0);
},
{
name = top;
pos = (309,512);
}
);
layerId = m01;
shapes = (
{
closed = 1;
nodes = (
(306,-12,o),
(395,23,o),
(425,92,c),
(416,0,l),
(472,0,l),
(524,500,l),
(468,500,l),
(458,406,l),
(444,461,o),
(381,512,o),
(296,512,cs),
(179,512,o),
(74,419,o),
(56,250,cs),
(39,86,o),
(123,-12,o),
(240,-12,cs)
);
},
{
closed = 1;
nodes = (
(159,38,o),
(102,124,o),
(115,252,cs),
(128,377,o),
(189,462,o),
(302,462,cs),
(381,462,o),
(457,392,o),
(443,250,cs),
(427,112,o),
(354,38,o),
(258,38,cs)
);
}
);
width = 568;
},
{
anchors = (
{
name = bottom;
pos = (244,-12);
},
{
name = ogonek;
pos = (497,0);
},
{
name = top;
pos = (319,512);
}
);
layerId = m002;
shapes = (
{
closed = 1;
nodes = (
(316,-12,o),
(394,27,o),
(423,96,c),
(413,0,l),
(497,0,l),
(549,500,l),
(465,500,l),
(455,402,l),
(442,457,o),
(396,512,o),
(308,512,cs),
(169,512,o),
(72,419,o),
(54,250,cs),
(37,86,o),
(113,-12,o),
(247,-12,cs)
);
},
{
closed = 1;
nodes = (
(167,64,o),
(128,148,o),
(139,252,cs),
(150,356,o),
(207,437,o),
(305,437,cs),
(404,437,o),
(450,360,o),
(438,250,cs),
(427,148,o),
(364,64,o),
(268,64,cs)
);
}
);
width = 609;
},
{
anchors = (
{
name = bottom;
pos = (245,-12);
},
{
name = ogonek;
pos = (528,0);
},
{
name = top;
pos = (313,520);
}
);
layerId = m003;
shapes = (
{
closed = 1;
nodes = (
(313,-12,o),
(366,29,o),
(398,83,c),
(389,0,l),
(528,0,l),
(583,508,l),
(443,508,l),
(433,415,l),
(413,470,o),
(369,520,o),
(285,520,cs),
(154,520,o),
(56,421,o),
(38,253,cs),
(21,88,o),
(88,-12,o),
(224,-12,cs)
);
},
{
closed = 1;
nodes = (
(213,95,o),
(174,157,o),
(184,253,cs),
(193,340,o),
(246,410,o),
(318,410,cs),
(386,410,o),
(425,341,o),
(416,253,cs),
(406,158,o),
(353,97,o),
(285,96,cs)
);
}
);
width = 610;
}
);
unicode = 97;
},
{
glyphname = ae;
lastChange = "2024-11-02 04:49:56 +0000";
layers = (
{
anchors = (
{
name = top;
pos = (480,512);
}
);
layerId = m01;
shapes = (
{
closed = 1;
nodes = (
(750,-13,o),
(825,62,o),
(859,144,c),
(807,154,l),
(782,100,o),
(727,37,o),
(631,37,cs),
(512,37,o),
(458,118,o),
(471,245,cs),
(484,368,o),
(542,462,o),
(672,462,cs),
(779,462,o),
(826,381,o),
(817,302,c),
(466,302,l),
(461,252,l),
(872,252,l),
(874,267,l),
(890,422,o),
(802,512,o),
(674,512,cs),
(537,512,o),
(440,412,o),
(423,248,cs),
(406,87,o),
(475,-13,o),
(621,-13,cs)
);
},
{
closed = 1;
nodes = (
(313,-12,o),
(421,65,o),
(431,163,c),
(453,145,l),
(473,338,ls),
(485,450,o),
(436,512,o),
(300,512,cs),
(221,512,o),
(145,476,o),
(98,400,c),
(147,373,l),
(173,420,o),
(225,460,o),
(294,460,cs),
(396,460,o),
(440,409,o),
(425,333,cs),
(418,301,l),
(178,301,o),
(58,271,o),
(44,132,cs),
(34,40,o),
(109,-12,o),
(193,-12,cs)
);
},
{
closed = 1;
nodes = (
(138,38,o),
(99,81,o),
(104,131,cs),
(115,228,o),
(176,251,o),
(413,251,c),
(411,230,ls),
(400,129,o),
(317,38,o),
(201,38,cs)
);
}
);
width = 924;
},
{
anchors = (
{
name = top;
pos = (499,512);
}
);
layerId = m002;
shapes = (
{
closed = 1;
nodes = (
(765,-13,o),
(841,55,o),
(874,137,c),
(794,151,l),
(769,97,o),
(709,63,o),
(652,63,cs),
(527,63,o),
(504,152,o),
(514,247,cs),
(527,369,o),
(580,436,o),
(689,436,cs),
(783,436,o),
(814,360,o),
(808,311,c),
(515,311,l),
(508,241,l),
(887,241,l),
(889,261,l),
(907,434,o),
(817,512,o),
(693,512,cs),
(556,512,o),
(458,414,o),
(441,250,cs),
(424,89,o),
(500,-13,o),
(640,-13,cs)
);
},
{
closed = 1;
nodes = (
(325,-12,o),
(439,73,o),
(447,147,c),
(473,148,l),
(493,332,ls),
(505,447,o),
(450,512,o),
(318,512,cs),
(207,512,o),
(139,462,o),
(102,392,c),
(167,356,l),
(190,413,o),
(251,442,o),
(306,442,cs),
(376,442,o),
(434,414,o),
(426,339,cs),
(424,313,l),
(168,313,o),
(69,261,o),
(57,141,cs),
(47,49,o),
(120,-12,o),
(203,-12,cs)
);
},
{
closed = 1;
nodes = (
(175,62,o),
(134,96,o),
(139,141,cs),
(146,210,o),
(193,247,o),
(417,247,c),
(413,215,ls),
(402,110,o),
(284,62,o),
(222,62,cs)
);
}
);
width = 941;
},
{
anchors = (
{
name = top;
pos = (489,520);
}
);
layerId = m003;
shapes = (
{
closed = 1;
nodes = (
(704,-13,o),
(804,23,o),
(862,134,c),
(734,173,l),
(711,130,o),
(662,107,o),
(632,107,cs),
(543,107,o),
(510,164,o),
(519,256,cs),
(528,337,o),
(573,400,o),
(657,400,cs),
(724,400,o),
(757,346,o),
(753,311,c),
(492,311,l),
(484,225,l),
(887,225,l),
(889,248,l),
(907,418,o),
(821,520,o),
(671,520,cs),
(540,520,o),
(419,436,o),
(400,256,cs),
(382,82,o),
(482,-13,o),
(617,-13,cs)
);
},
{
closed = 1;
nodes = (
(429,-12,o),
(451,173,o),
(451,173,c),
(480,174,l),
(497,340,ls),
(509,451,o),
(463,520,o),
(313,520,cs),
(192,520,o),
(111,459,o),
(79,387,c),
(179,342,l),
(198,385,o),
(239,412,o),
(294,412,cs),
(362,412,o),
(393,374,o),
(387,322,cs),
(387,318,l),
(163,318,o),
(42,273,o),
(28,144,cs),
(19,51,o),
(85,-12,o),
(199,-12,cs)
);
},
{
closed = 1;
nodes = (
(210,93,o),
(165,109,o),
(169,151,cs),
(174,199,o),
(205,226,o),
(377,226,c),
(375,206,ls),
(366,124,o),
(301,93,o),
(231,93,cs)
);
}
);
width = 935;
}
);
unicode = 230;
},
{
glyphname = b;
lastChange = "2024-11-02 04:49:56 +0000";
layers = (
{
layerId = m01;
shapes = (
{
closed = 1;
nodes = (
(199,700,l),
(143,700,l),
(70,0,l),
(126,0,l),
(136,98,l),
(150,43,o),
(213,-12,o),
(298,-12,cs),
(423,-12,o),
(520,81,o),
(538,250,cs),
(555,414,o),
(471,512,o),
(354,512,cs),
(263,512,o),
(194,457,o),
(168,402,c)
);
},
{
closed = 1;
nodes = (
(435,462,o),
(492,376,o),
(479,248,cs),
(466,123,o),
(405,38,o),
(292,38,cs),
(213,38,o),
(137,108,o),
(151,250,c),
(167,392,o),
(257,462,o),
(336,462,cs)
);
}
);
width = 600;
},
{
layerId = m002;
shapes = (
{
closed = 1;
nodes = (
(223,700,l),
(139,700,l),
(66,0,l),
(150,0,l),
(160,98,l),
(173,43,o),
(219,-12,o),
(307,-12,cs),
(446,-12,o),
(543,81,o),
(561,250,cs),
(578,414,o),
(502,512,o),
(368,512,cs),
(299,512,o),
(222,476,o),
(193,407,c)
);
},
{
closed = 1;
nodes = (
(448,436,o),
(487,352,o),
(476,248,cs),
(465,144,o),
(408,63,o),
(310,63,cs),
(211,63,o),
(165,140,o),
(177,250,cs),
(188,352,o),
(251,436,o),
(347,436,cs)
);
}
);
width = 615;
},
{
layerId = m003;
shapes = (
{
closed = 1;
nodes = (
(268,700,l),
(128,700,l),
(53,0,l),
(194,0,l),
(204,93,l),
(224,38,o),
(274,-12,o),
(352,-12,cs),
(483,-12,o),
(581,87,o),
(599,255,cs),
(616,420,o),
(544,520,o),
(413,520,cs),
(330,520,o),
(271,479,o),
(239,425,c)
);
},
{
closed = 1;
nodes = (
(424,413,o),
(463,351,o),
(453,255,cs),
(444,168,o),
(391,98,o),
(319,98,cs),
(251,98,o),
(212,167,o),
(221,255,cs),
(231,350,o),
(284,411,o),
(352,412,cs)
);
}
);
width = 643;
}
);
unicode = 98;
},
{
glyphname = c;
kernLeft = o;
lastChange = "2024-11-02 04:49:56 +0000";
layers = (
{
anchors = (
{
name = bottom;
pos = (256,-12);
},
{
name = top;
pos = (291,512);
}
);
layerId = m01;
shapes = (
{
closed = 1;
nodes = (
(458,468,o),
(391,512,o),
(308,512,cs),
(188,512,o),
(74,422,o),
(56,250,cs),
(38,78,o),
(132,-12,o),
(252,-12,cs),
(352,-12,o),
(409,35,o),
(457,121,c),
(408,142,l),
(381,86,o),
(329,38,o),
(258,38,cs),
(151,38,o),
(100,121,o),
(114,250,cs),
(128,379,o),
(195,462,o),
(302,462,cs),
(372,462,o),
(418,413,o),
(434,363,c),
(488,383,l)
);
}
);
width = 518;
},
{
anchors = (
{
name = bottom;
pos = (247,-12);
},
{
name = top;
pos = (303,512);
}
);
layerId = m002;
shapes = (
{
closed = 1;
nodes = (
(477,464,o),
(408,512,o),
(320,512,c),
(194,512,o),
(72,424,o),
(54,248,cs),
(36,74,o),
(138,-13,o),
(264,-13,cs),
(365,-13,o),
(433,37,o),
(476,120,c),
(403,150,l),
(377,99,o),
(330,63,o),
(270,63,cs),
(166,63,o),
(126,140,o),
(138,251,cs),
(149,359,o),
(205,436,o),
(310,436,cs),
(370,436,o),
(409,402,o),
(425,351,c),
(504,381,l)
);
}
);
width = 536;
},
{
anchors = (
{
name = bottom;
pos = (263,-12);
},
{
name = top;
pos = (319,520);
}
);
layerId = m003;
shapes = (
{
closed = 1;
nodes = (
(502,473,o),
(429,520,o),
(341,520,cs),
(178,520,o),
(61,420,o),
(44,254,cs),
(27,88,o),
(122,-12,o),
(285,-12,cs),
(373,-12,o),
(456,35,o),
(505,127,c),
(393,173,l),
(378,141,o),
(339,108,o),
(293,108,cs),
(221,108,o),
(180,163,o),
(190,255,cs),
(200,347,o),
(251,400,o),
(323,400,cs),
(369,400,o),
(402,367,o),
(411,335,c),
(531,381,l)
);
}
);
width = 550;
},
{
associatedMasterId = m01;
layerId = "D6DBBF6B-18E3-4F95-B026-A0427CA97C42";
name = "26 Mar 24 at 21:35";
visible = 1;
width = 529;
}
);
unicode = 99;
},
{
glyphname = d;
kernLeft = a;
lastChange = "2024-11-02 04:49:56 +0000";
layers = (
{
anchors = (
{
name = bottom;
pos = (276,-12);
}
);
layerId = m01;
shapes = (
{
closed = 1;
nodes = (
(418,17,o),
(456,0,o),
(495,-1,cs),
(520,-2,o),
(530,3,o),
(545,11,c),
(550,58,l),
(505,39,o),
(477,53,o),
(483,103,cs),
(545,700,l),
(489,700,l),
(458,404,l),
(442,473,o),
(362,512,o),
(296,512,cs),
(179,512,o),
(73,414,o),
(56,250,cs),
(38,81,o),
(117,-12,o),
(240,-12,cs),
(306,-12,o),
(395,19,o),
(425,88,c)
);
},
{
closed = 1;
nodes = (
(145,38,o),
(102,123,o),
(115,248,cs),
(128,376,o),
(203,462,o),
(302,462,cs),
(398,462,o),
(457,388,o),
(443,250,cs),
(427,112,o),
(354,38,o),
(258,38,cs)
);
}
);
width = 610;
},
{
anchors = (
{
name = bottom;
pos = (299,-12);
}
);
layerId = m002;
shapes = (
{
closed = 1;
nodes = (
(420,44,o),
(455,-1,o),
(507,-1,cs),
(532,-1,o),
(545,3,o),
(560,11,c),
(567,79,l),
(517,68,o),
(505,86,o),
(509,126,cs),
(569,700,l),
(485,700,l),
(454,406,l),
(441,461,o),
(395,512,o),
(307,512,cs),
(168,512,o),
(71,419,o),
(53,250,cs),
(36,86,o),
(108,-12,o),
(246,-12,cs),
(315,-12,o),
(396,25,o),
(426,94,c)
);
},
{
closed = 1;
nodes = (
(166,64,o),
(127,148,o),
(138,252,cs),
(149,356,o),
(206,437,o),
(304,437,cs),
(403,437,o),
(449,360,o),
(437,250,cs),
(426,148,o),
(363,64,o),
(267,64,cs)
);
}
);
width = 627;
},
{
anchors = (
{
name = bottom;
pos = (297,-12);
}
);
layerId = m003;
shapes = (
{
closed = 1;
nodes = (
(400,30,o),
(473,-1,o),
(520,-1,cs),
(547,-1,o),
(582,6,o),
(597,14,c),
(608,124,l),
(558,113,o),
(546,128,o),
(550,168,cs),
(607,700,l),
(467,700,l),
(437,415,l),
(417,470,o),
(372,520,o),
(289,520,cs),
(158,520,o),
(60,421,o),
(42,253,cs),
(25,88,o),
(97,-12,o),
(228,-12,cs),
(316,-12,o),
(373,32,o),
(408,101,c)
);
},
{
closed = 1;
nodes = (
(218,95,o),
(179,157,o),
(189,253,cs),
(198,340,o),
(251,410,o),
(323,410,cs),
(391,410,o),
(430,341,o),
(421,253,cs),
(411,158,o),
(358,97,o),
(290,96,cs)
);
}
);
width = 660;
},
{
associatedMasterId = m01;
layerId = "F3AABDD4-5D52-40E7-9352-25D68A3D59C9";
name = "5 Apr 24 at 08:05";
shapes = (
{
closed = 1;
nodes = (
(378,462,o),
(444,388,o),
(445,250,cs),
(444,108,o),
(361,38,o),
(282,38,cs),
(169,38,o),
(117,123,o),
(117,248,cs),
(117,376,o),
(183,462,o),
(282,462,cs)
);
},
{
closed = 1;
nodes = (
(500,700,l),
(444,700,l),
(444,404,l),
(421,473,o),
(336,512,o),
(270,512,cs),
(153,512,o),
(58,414,o),
(58,250,cs),
(58,81,o),
(153,-12,o),
(270,-12,cs),
(355,-12,o),
(424,41,o),
(444,96,c),
(444,25,o),
(484,0,o),
(523,-1,cs),
(548,-2,o),
(558,3,o),
(572,11,c),
(572,64,l),
(529,48,o),
(500,69,o),
(500,119,cs)
);
}
);
width = 652;
}
);
unicode = 100;
},
{
glyphname = dcaron;
lastChange = "2024-11-02 04:49:56 +0000";
layers = (
{
layerId = m01;
shapes = (
{
pos = (-26,0);
ref = d;
},
{
closed = 1;
nodes = (
(714,700,l),
(621,700,l),
(596,582,l),
(646,582,l)
);
}
);
width = 667;
},
{
layerId = m002;
shapes = (
{
pos = (-26,0);
ref = d;
},
{
closed = 1;
nodes = (
(755,701,l),
(645,701,l),
(620,564,l),
(692,564,l)
);
}
);
width = 708;
},
{
layerId = m003;
shapes = (
{
pos = (-27,0);
ref = d;
},
{
closed = 1;
nodes = (
(807,701,l),
(677,701,l),
(640,531,l),
(735,531,l)
);
}
);
width = 760;
}
);
unicode = 271;
},
{
glyphname = dcroat;
lastChange = "2024-11-21 09:18:26 +0000";
layers = (
{
layerId = m01;
shapes = (
{
ref = d;
},
{
closed = 1;
nodes = (
(340,562,l),
(606,562,l),
(611,609,l),
(345,609,l)
);
}
);
width = 607;
},
{
layerId = m002;
shapes = (
{
ref = d;
},
{
closed = 1;
nodes = (
(321,564,l),
(630,564,l),
(637,632,l),
(328,632,l)
);
}
);
width = 627;
},
{
layerId = m003;
shapes = (
{
ref = d;
},
{
closed = 1;
nodes = (
(315,560,l),
(658,560,l),
(669,640,l),
(326,640,l)
);
}
);
width = 660;
}
);
metricLeft = d;
unicode = 273;
},
{
glyphname = eth;
lastChange = "2024-11-07 16:48:49 +0000";
layers = (
{
anchors = (
{
name = bottom;
pos = (281,0);
},
{
name = top;
pos = (281,720);
}
);
layerId = m01;
shapes = (
{
closed = 1;
nodes = (
(403,-12,o),
(490,105,o),
(509,289,cs),
(528,472,o),
(477,622,o),
(277,713,c),
(246,664,l),
(301,647,o),
(459,542,o),
(453,389,c),
(430,453,o),
(371,489,o),
(299,489,cs),
(185,489,o),
(72,405,o),
(55,239,cs),
(37,72,o),
(132,-12,o),
(246,-12,cs)
);
},
{
closed = 1;
nodes = (
(151,38,o),
(101,113,o),
(114,239,cs),
(127,365,o),
(193,439,o),
(294,439,cs),
(387,439,o),
(446,365,o),
(433,239,cs),
(420,113,o),
(353,38,o),
(252,38,cs)
);
},
{
closed = 1;
nodes = (
(504,635,l),
(488,678,l),
(239,562,l),
(256,519,l)
);
}
);
width = 561;
},
{
anchors = (
{
name = bottom;
pos = (288,0);
},
{
name = top;
pos = (288,720);
}
);
layerId = m002;
shapes = (
{
closed = 1;
nodes = (
(414,-12,o),
(505,120,o),
(523,284,cs),
(548,529,o),
(450,654,o),
(292,725,c),
(250,660,l),
(301,640,o),
(435,558,o),
(438,429,c),
(406,471,o),
(350,488,o),
(306,488,cs),
(192,488,o),
(72,402,o),
(55,238,cs),
(38,74,o),
(132,-12,o),
(256,-12,cs)
);
},
{
closed = 1;
nodes = (
(172,60,o),
(127,128,o),
(139,238,cs),
(150,348,o),
(211,416,o),
(301,416,cs),
(394,416,o),
(439,348,o),
(428,238,cs),
(416,128,o),
(357,60,o),
(264,60,cs)
);
},
{
closed = 1;
nodes = (
(530,644,l),
(508,702,l),
(241,571,l),
(264,512,l)
);
}
);
width = 575;
},
{
anchors = (
{
name = bottom;
pos = (292,0);
},
{
name = top;
pos = (292,720);
}
);
layerId = m003;
shapes = (
{
closed = 1;
nodes = (
(424,-12,o),
(535,129,o),
(554,307,cs),
(577,533,o),
(460,677,o),
(277,744,c),
(217,651,l),
(255,642,o),
(409,578,o),
(435,432,c),
(416,466,o),
(359,498,o),
(300,498,cs),
(179,498,o),
(53,419,o),
(35,243,cs),
(17,76,o),
(133,-12,o),
(262,-12,cs)
);
},
{
closed = 1;
nodes = (
(203,108,o),
(168,161,o),
(177,243,cs),
(185,323,o),
(232,378,o),
(300,378,cs),
(378,378,o),
(407,323,o),
(399,243,cs),
(390,161,o),
(349,108,o),
(272,108,cs)
);
},
{
closed = 1;
nodes = (
(542,650,l),
(509,722,l),
(217,583,l),
(248,511,l)
);
}
);
width = 584;
}
);
unicode = 240;
},
{
glyphname = e;
kernLeft = o;
kernRight = o;
lastChange = "2024-11-14 11:26:23 +0000";
layers = (
{
anchors = (
{
name = bottom;
pos = (257,-13);
},
{
name = top;
pos = (313,512);
}
);
layerId = m01;
shapes = (
{
closed = 1;
nodes = (
(394,-13,o),
(469,62,o),
(503,144,c),
(451,154,l),
(426,100,o),
(371,37,o),
(275,37,cs),
(156,37,o),
(102,118,o),
(115,245,cs),
(128,368,o),
(186,462,o),
(316,462,cs),
(423,462,o),
(468,368,o),
(460,289,c),
(109,289,l),
(104,239,l),
(515,239,l),
(518,267,l),
(534,422,o),
(446,512,o),
(318,512,cs),
(181,512,o),
(75,412,o),
(58,248,cs),
(41,87,o),
(119,-13,o),
(265,-13,cs)
);
}
);
width = 568;
},
{
anchors = (
{
name = bottom;
pos = (259,-13);
},
{
name = top;
pos = (321,512);
}
);
layerId = m002;
shapes = (
{
closed = 1;
nodes = (
(393,-13,o),
(469,55,o),
(502,137,c),
(422,151,l),
(397,97,o),
(337,63,o),
(280,63,cs),
(155,63,o),
(131,150,o),
(141,245,cs),
(154,367,o),
(208,436,o),
(317,436,cs),
(411,436,o),
(440,345,o),
(436,304,c),
(143,304,l),
(135,234,l),
(514,234,l),
(517,261,l),
(535,434,o),
(445,512,o),
(321,512,cs),
(184,512,o),
(74,412,o),
(57,248,cs),
(40,87,o),
(128,-13,o),
(268,-13,cs)
);
}
);
width = 569;
},
{
anchors = (
{
name = bottom;
pos = (263,-13);
},
{
name = top;
pos = (319,520);
}
);
layerId = m003;
shapes = (
{
closed = 1;
nodes = (
(360,-13,o),
(460,23,o),
(518,134,c),
(390,173,l),
(367,130,o),
(318,107,o),
(288,107,cs),
(199,107,o),
(166,164,o),
(175,256,cs),
(184,337,o),
(229,400,o),
(313,400,cs),
(380,400,o),
(412,336,o),
(408,301,c),
(147,301,l),
(139,215,l),
(542,215,l),
(545,248,l),
(563,418,o),
(477,520,o),
(327,520,cs),
(196,520,o),
(57,436,o),
(38,256,cs),
(20,82,o),
(138,-13,o),
(273,-13,cs)
);
}
);
width = 591;
},
{
associatedMasterId = m003;
layerId = "35791070-3456-4186-8F4C-DCAEEFC69CEB";
name = "28 Feb 24 at 11:45";
shapes = (
{
closed = 1;
nodes = (
(395,-13,o),
(490,19,o),
(537,122,c),
(402,149,l),
(385,115,o),
(339,107,o),
(309,107,cs),
(216,107,o),
(179,161,o),
(179,253,cs),
(179,334,o),
(216,400,o),
(304,400,cs),
(375,400,o),
(410,335,o),
(410,300,c),
(141,300,l),
(142,210,l),
(553,210,l),
(553,245,l),
(553,415,o),
(456,520,o),
(302,520,cs),
(167,520,o),
(37,436,o),
(37,256,cs),
(37,82,o),
(165,-13,o),
(304,-13,cs)
);
}
);
visible = 1;
width = 582;
},
{
associatedMasterId = m01;
layerId = "DC9D73E7-764C-4C88-8E22-C9A4CAB6D2B5";
name = "26 Mar 24 at 21:50";
shapes = (
{
closed = 1;
nodes = (
(416,-12,o),
(550,70,o),
(550,254,cs),
(550,440,o),
(422,520,o),
(293,520,cs),
(168,520,o),
(34,440,o),
(34,254,cs),
(34,70,o),
(160,-12,o),
(293,-12,cs)
);
},
{
closed = 1;
nodes = (
(219,108,o),
(180,164,o),
(180,254,cs),
(180,342,o),
(220,400,o),
(293,400,cs),
(367,400,o),
(404,342,o),
(404,254,cs),
(404,164,o),
(366,108,o),
(293,108,cs)
);
},
{
closed = 0;
nodes = (
(293,520,l)
);
}
);
visible = 1;
width = 572;
}
);
unicode = 101;
},
{
glyphname = eogonek;
lastChange = "2024-11-08 23:53:00 +0000";
layers = (
{
layerId = m01;
shapes = (
{
pos = (-26,0);
ref = e;
},
{
closed = 1;
nodes = (
(400,-143,o),
(426,-134,o),
(441,-121,c),
(422,-70,l),
(391,-92,o),
(346,-78,o),
(350,-40,cs),
(352,-12,o),
(365,3,o),
(429,67,c),
(404,86,l),
(326,49,o),
(291,0,o),
(285,-55,cs),
(279,-110,o),
(320,-143,o),
(374,-143,cs)
);
}
);
width = 568;
},
{
layerId = m002;
shapes = (
{
pos = (-26,0);
ref = e;
},
{
closed = 1;
nodes = (
(397,-152,o),
(429,-140,o),
(444,-127,c),
(428,-64,l),
(383,-91,o),
(342,-79,o),
(347,-39,cs),
(350,-10,o),
(380,16,o),
(417,51,c),
(385,83,l),
(314,52,o),
(277,-4,o),
(272,-59,cs),
(266,-116,o),
(308,-152,o),
(361,-152,cs)
);
}
);
width = 569;
},
{
layerId = m003;
shapes = (
{
pos = (-27,0);
ref = e;
},
{
closed = 1;
nodes = (
(416,-183,o),
(455,-165,o),
(478,-145,c),
(448,-70,l),
(408,-101,o),
(366,-78,o),
(371,-35,cs),
(373,-15,o),
(385,13,o),
(436,60,c),
(414,96,l),
(313,50,o),
(273,3,o),
(264,-74,cs),
(256,-139,o),
(308,-183,o),
(368,-183,cs)
);
}
);
width = 592;
}
);
unicode = 281;
},
{
glyphname = eopen;
lastChange = "2024-11-02 04:49:56 +0000";
layers = (
{
layerId = m01;
shapes = (
{
closed = 1;
nodes = (
(434,143,l),
(409,76,o),
(341,38,o),
(255,38,cs),
(145,38,o),
(98,79,o),
(104,136,cs),
(109,184,o),
(159,240,o),
(289,240,cs),
(289,240,o),
(347,240,o),
(347,240,c),
(354,294,l),
(296,294,l),
(173,294,o),
(148,339,o),
(152,375,cs),
(157,423,o),
(194,462,o),
(295,462,cs),
(363,462,o),
(411,442,o),
(427,403,c),
(473,425,l),
(447,488,o),
(376,512,o),
(301,512,cs),
(180,512,o),
(103,456,o),
(94,374,cs),
(88,320,o),
(115,278,o),
(156,265,c),
(84,239,o),
(51,184,o),
(46,134,cs),
(35,31,o),
(117,-12,o),
(248,-12,cs),
(353,-12,o),
(449,38,o),
(478,128,c)
);
}
);
width = 543;
},
{
layerId = m002;
shapes = (
{
closed = 1;
nodes = (
(411,159,l),
(385,87,o),
(324,64,o),
(259,64,cs),
(160,64,o),
(125,98,o),
(130,147,cs),
(135,194,o),
(176,239,o),
(286,239,cs),
(286,239,o),
(339,239,o),
(339,239,c),
(348,312,l),
(295,312,l),
(199,312,o),
(172,335,o),
(176,371,cs),
(179,398,o),
(206,436,o),
(298,436,cs),
(341,436,o),
(379,426,o),
(397,387,c),
(467,421,l),
(454,479,o),
(369,512,o),
(302,512,cs),
(171,512,o),
(101,457,o),
(92,375,cs),
(86,321,o),
(117,288,o),
(158,275,c),
(98,252,o),
(52,203,o),
(46,142,cs),
(35,38,o),
(112,-12,o),
(250,-12,cs),
(353,-12,o),
(445,39,o),
(480,139,c)
);
}
);
width = 545;
},
{
layerId = m003;
shapes = (
{
closed = 1;
nodes = (
(396,177,l),
(379,140,o),
(344,108,o),
(274,108,cs),
(197,108,o),
(171,131,o),
(175,164,cs),
(178,201,o),
(208,221,o),
(284,221,cs),
(284,221,o),
(335,221,o),
(335,221,c),
(345,309,l),
(294,309,l),
(244,309,o),
(216,325,o),
(220,354,cs),
(222,381,o),
(245,400,o),
(298,400,cs),
(345,400,o),
(367,382,o),
(374,358,c),
(499,415,l),
(487,479,o),
(403,520,o),
(307,520,cs),
(171,520,o),
(88,461,o),
(79,379,cs),
(73,325,o),
(103,282,o),
(144,269,c),
(67,243,o),
(33,209,o),
(27,148,cs),
(16,44,o),
(109,-12,o),
(260,-12,cs),
(396,-12,o),
(478,56,o),
(513,149,c)
);
}
);
width = 569;
}
);
unicode = 603;
},
{
glyphname = f;
lastChange = "2024-11-02 04:49:56 +0000";
layers = (
{
layerId = m01;
shapes = (
{
closed = 1;
nodes = (
(174,0,l),
(221,450,l),
(348,450,l),
(353,500,l),
(226,500,l),
(234,575,ls),
(242,648,o),
(272,666,o),
(320,666,cs),
(333,666,o),
(350,665,o),
(365,662,c),
(371,712,l),
(354,717,o),
(332,720,o),
(316,720,cs),
(231,720,o),
(188,669,o),
(178,576,cs),
(170,500,l),
(78,500,l),
(73,450,l),
(165,450,l),
(118,0,l)
);
}
);
width = 346;
},
{
layerId = m002;
shapes = (
{
closed = 1;
nodes = (
(201,0,l),
(245,424,l),
(373,424,l),
(381,500,l),
(253,500,l),
(261,575,ls),
(267,629,o),
(296,648,o),
(345,648,cs),
(358,648,o),
(376,647,o),
(391,644,c),
(399,712,l),
(382,717,o),
(359,720,o),
(343,720,cs),
(234,720,o),
(187,669,o),
(177,576,cs),
(169,500,l),
(73,500,l),
(65,424,l),
(161,424,l),
(117,0,l)
);
}
);
width = 375;
},
{
layerId = m003;
shapes = (
{
closed = 1;
nodes = (
(245,0,l),
(286,388,l),
(402,388,l),
(415,508,l),
(299,508,l),
(302,539,ls),
(306,576,o),
(324,604,o),
(373,604,cs),
(386,604,o),
(403,603,o),
(418,600,c),
(431,712,l),
(415,717,o),
(380,720,o),
(345,720,cs),
(262,720,o),
(180,686,o),
(167,576,cs),
(159,508,l),
(59,508,l),
(46,388,l),
(146,388,l),
(105,0,l)
);
}
);
width = 400;
}
);
unicode = 102;
},
{
glyphname = g;
kernLeft = a;
lastChange = "2024-11-08 23:51:47 +0000";
layers = (
{
anchors = (
{
name = top;
pos = (296,512);
}
);
layerId = m01;
shapes = (
{
closed = 1;
nodes = (
(406,-103,o),
(342,-176,o),
(228,-176,cs),
(127,-176,o),
(88,-109,o),
(76,-81,c),
(23,-115,l),
(45,-171,o),
(99,-230,o),
(223,-230,cs),
(348,-230,o),
(454,-175,o),
(474,13,c),
(524,500,l),
(468,500,l),
(458,402,l),
(444,457,o),
(381,512,o),
(296,512,cs),
(179,512,o),
(74,419,o),
(56,250,cs),
(39,86,o),
(121,-12,o),
(240,-12,cs),
(306,-12,o),
(397,27,o),
(427,96,c),
(418,13,ls)
);
},
{
closed = 1;
nodes = (
(159,38,o),
(101,124,o),
(114,252,cs),
(127,377,o),
(189,462,o),
(302,462,cs),
(381,462,o),
(457,392,o),
(443,250,cs),
(427,112,o),
(354,38,o),
(258,38,cs)
);
}
);
width = 569;
},
{
anchors = (
{
name = top;
pos = (306,512);
}
);
guides = (
{
angle = 270;
pos = (52,419);
}
);
layerId = m002;
shapes = (
{
closed = 1;
nodes = (
(401,-96,o),
(351,-156,o),
(241,-156,cs),
(174,-156,o),
(122,-117,o),
(103,-60,c),
(26,-107,l),
(53,-195,o),
(144,-229,o),
(231,-230,cs),
(362,-232,o),
(477,-171,o),
(497,17,cs),
(547,500,l),
(463,500,l),
(453,402,l),
(440,457,o),
(394,512,o),
(306,512,cs),
(167,512,o),
(70,419,o),
(52,250,cs),
(35,86,o),
(111,-12,o),
(245,-12,cs),
(314,-12,o),
(392,27,o),
(421,96,c),
(413,17,ls)
);
},
{
closed = 1;
nodes = (
(165,64,o),
(126,148,o),
(137,252,cs),
(148,356,o),
(205,437,o),
(303,437,cs),
(402,437,o),
(448,360,o),
(436,250,cs),
(425,148,o),
(362,64,o),
(266,64,cs)
);
}
);
width = 607;
},
{
anchors = (
{
name = top;
pos = (298,520);
}
);
layerId = m003;
shapes = (
{
closed = 1;
nodes = (
(390,-80,o),
(333,-123,o),
(248,-123,cs),
(181,-123,o),
(133,-76,o),
(116,-29,c),
(1,-102,l),
(25,-180,o),
(112,-237,o),
(233,-237,cs),
(414,-237,o),
(519,-142,o),
(534,0,cs),
(589,508,l),
(455,508,l),
(445,419,l),
(424,474,o),
(382,520,o),
(298,520,cs),
(167,520,o),
(66,421,o),
(48,253,cs),
(31,88,o),
(106,-12,o),
(237,-12,cs),
(320,-12,o),
(377,25,o),
(407,79,c),
(398,0,ls)
);
},
{
closed = 1;
nodes = (
(223,95,o),
(184,157,o),
(194,253,cs),
(203,340,o),
(256,410,o),
(328,410,cs),
(396,410,o),
(435,341,o),
(426,253,cs),
(416,158,o),
(363,97,o),
(295,96,cs)
);
}
);
width = 632;
}
);
unicode = 103;
},
{
glyphname = h;
lastChange = "2024-11-14 11:28:33 +0000";
layers = (
{
anchors = (
{
name = bottom;
pos = (252,0);
},
{
name = center;
pos = (205,576);
},
{
name = top;
pos = (165,698);
}
);
layerId = m01;
shapes = (
{
closed = 1;
nodes = (
(126,0,l),
(154,270,ls),
(164,366,o),
(229,462,o),
(328,462,cs),
(409,462,o),
(465,411,o),
(454,310,cs),
(422,0,l),
(478,0,l),
(512,322,ls),
(524,442,o),
(447,512,o),
(350,512,cs),
(231,512,o),
(180,431,o),
(167,396,c),
(199,700,l),
(143,700,l),
(70,0,l)
);
}
);
width = 592;
},
{
anchors = (
{
name = bottom;
pos = (255,0);
},
{
name = center;
pos = (207,576);
},
{
name = top;
pos = (180,700);
}
);
layerId = m002;
shapes = (
{
closed = 1;
nodes = (
(150,0,l),
(178,270,ls),
(188,366,o),
(243,436,o),
(335,436,cs),
(402,436,o),
(443,403,o),
(434,316,cs),
(401,0,l),
(485,0,l),
(519,328,ls),
(532,448,o),
(468,512,o),
(371,512,cs),
(259,512,o),
(205,441,o),
(192,406,c),
(223,700,l),
(139,700,l),
(66,0,l)
);
}
);
width = 597;
},
{
anchors = (
{
name = bottom;
pos = (267,0);
},
{
name = center;
pos = (213,576);
},
{
name = top;
pos = (195,700);
}
);
layerId = m003;
shapes = (
{
closed = 1;
nodes = (
(193,0,l),
(218,239,ls),
(230,347,o),
(264,408,o),
(347,408,cs),
(404,408,o),
(428,370,o),
(420,296,cs),
(389,0,l),
(529,0,l),
(562,315,ls),
(575,435,o),
(526,520,o),
(392,520,cs),
(324,520,o),
(265,479,o),
(238,430,c),
(267,700,l),
(127,700,l),
(53,0,l)
);
}
);
width = 624;
}
);
unicode = 104;
},
{
glyphname = hbar;
lastChange = "2024-11-21 09:19:05 +0000";
layers = (
{
layerId = m01;
shapes = (
{
pos = (51,0);
ref = h;
},
{
closed = 1;
nodes = (
(129,562,l),
(395,562,l),
(400,609,l),
(134,609,l)
);
}
);
width = 669;
},
{
layerId = m002;
shapes = (
{
pos = (63,0);
ref = h;
},
{
closed = 1;
nodes = (
(125,564,l),
(434,564,l),
(441,632,l),
(132,632,l)
);
}
);
width = 686;
},
{
layerId = m003;
shapes = (
{
pos = (57,0);
ref = h;
},
{
closed = 1;
nodes = (
(110,560,l),
(453,560,l),
(464,640,l),
(121,640,l)
);
}
);
width = 712;
}
);
unicode = 295;
},
{
glyphname = i;
lastChange = "2024-11-21 09:19:29 +0000";
layers = (
{
guides = (
{
pos = (-47,680);
},
{
pos = (-42,585);
},
{
pos = (-47,632);
}
);
layerId = m01;
shapes = (
{
closed = 1;
nodes = (
(198,585,o),
(222,607,o),
(224,632,cs),
(227,658,o),
(208,680,o),
(183,680,cs),
(157,680,o),
(133,658,o),
(130,632,cs),
(128,607,o),
(147,585,o),
(173,585,cs)
);
},
{
closed = 1;
nodes = (
(139,0,l),
(191,500,l),
(135,500,l),
(83,0,l)
);
}
);
width = 274;
},
{
guides = (
{
pos = (-27,700);
},
{
pos = (-26,590);
},
{
pos = (-27,645);
}
);
layerId = m002;
shapes = (
{
closed = 1;
nodes = (
(193,581,o),
(219,606,o),
(223,636,cs),
(226,666,o),
(204,691,o),
(174,691,cs),
(144,691,o),
(117,666,o),
(114,636,cs),
(110,606,o),
(133,581,o),
(163,581,cs)
);
},
{
closed = 1;
nodes = (
(143,0,l),
(195,500,l),
(111,500,l),
(59,0,l)
);
}
);
width = 253;
},
{
guides = (
{
pos = (15,559);
}
);
layerId = m003;
shapes = (
{
closed = 1;
nodes = (
(214,559,o),
(254,598,o),
(259,644,cs),
(264,690,o),
(232,729,o),
(184,729,cs),
(139,729,o),
(96,690,o),
(91,644,cs),
(86,598,o),
(121,559,o),
(166,559,cs)
);
},
{
closed = 1;
nodes = (
(177,0,l),
(231,508,l),
(91,508,l),
(37,0,l)
);
}
);
width = 268;
}
);
unicode = 105;
},
{
glyphname = idotless;
lastChange = "2024-11-21 09:20:11 +0000";
layers = (
{
anchors = (
{
name = bottom;
pos = (91,0);
},
{
name = ogonek;
pos = (120,0);
},
{
name = top;
pos = (144,500);
}
);
layerId = m01;
shapes = (
{
closed = 1;
nodes = (
(120,0,l),
(172,500,l),
(116,500,l),
(64,0,l)
);
}
);
width = 236;
},
{
anchors = (
{
name = bottom;
pos = (88,0);
},
{
name = ogonek;
pos = (130,0);
},
{
name = top;
pos = (139,500);
}
);
layerId = m002;
shapes = (
{
closed = 1;
nodes = (
(130,0,l),
(182,500,l),
(98,500,l),
(46,0,l)
);
}
);
width = 228;
},
{
anchors = (
{
name = bottom;
pos = (93,0);
},
{
name = ogonek;
pos = (163,0);
},
{
name = top;
pos = (146,508);
}
);
layerId = m003;
shapes = (
{
closed = 1;
nodes = (
(163,0,l),
(217,508,l),
(77,508,l),
(23,0,l)
);
}
);
width = 240;
}
);
unicode = 305;
},
{
glyphname = j;
lastChange = "2024-11-02 04:49:56 +0000";
layers = (
{
guides = (
{
pos = (-37,680);
},
{
pos = (-32,585);
},
{
pos = (-37,632);
}
);
layerId = m01;
shapes = (
{
closed = 1;
nodes = (
(89,-232,o),
(133,-181,o),
(142,-88,cs),
(205,500,l),
(149,500,l),
(87,-87,ls),
(77,-160,o),
(49,-178,o),
(1,-178,cs),
(-12,-178,o),
(-29,-177,o),
(-45,-174,c),
(-50,-224,l),
(-33,-229,o),
(-12,-232,o),
(4,-232,cs)
);
},
{
closed = 1;
nodes = (
(208,585,o),
(232,607,o),
(234,632,cs),
(237,658,o),
(218,680,o),
(193,680,cs),
(167,680,o),
(143,658,o),
(140,632,cs),
(138,607,o),
(157,585,o),
(183,585,cs)
);
}
);
width = 278;
},
{
layerId = m002;
shapes = (
{
closed = 1;
nodes = (
(117,-230,o),
(163,-179,o),
(173,-86,cs),
(235,500,l),
(151,500,l),
(90,-85,ls),
(84,-139,o),
(55,-158,o),
(6,-158,cs),
(-7,-158,o),
(-25,-157,o),
(-40,-154,c),
(-48,-222,l),
(-31,-227,o),
(-8,-230,o),
(8,-230,cs)
);
},
{
closed = 1;
nodes = (
(231,590,o),
(257,615,o),
(261,645,cs),
(264,675,o),
(242,700,o),
(212,700,cs),
(182,700,o),
(155,675,o),
(152,645,cs),
(148,615,o),
(171,590,o),
(201,590,cs)
);
}
);
width = 289;
},
{
layerId = m003;
shapes = (
{
closed = 1;
nodes = (
(108,-230,o),
(175,-169,o),
(184,-76,cs),
(247,508,l),
(107,508,l),
(50,-28,ls),
(46,-66,o),
(22,-90,o),
(-14,-90,cs),
(-27,-90,o),
(-59,-89,o),
(-75,-86,c),
(-90,-222,l),
(-74,-227,o),
(-36,-230,o),
(-20,-230,cs)
);
},
{
closed = 1;
nodes = (
(230,559,o),
(270,598,o),
(275,644,cs),
(280,690,o),
(248,729,o),
(200,729,cs),
(155,729,o),
(112,690,o),
(107,644,cs),
(102,598,o),
(137,559,o),
(182,559,cs)
);
}
);
width = 284;
}
);
unicode = 106;
},
{
glyphname = jdotless;
lastChange = "2024-11-02 04:49:56 +0000";
layers = (
{
anchors = (
{
name = top;
pos = (176,500);
}
);
layerId = m01;
shapes = (
{
closed = 1;
nodes = (
(89,-232,o),
(133,-181,o),
(142,-88,cs),
(205,500,l),
(149,500,l),
(87,-87,ls),
(77,-160,o),
(49,-178,o),
(1,-178,cs),
(-12,-178,o),
(-29,-177,o),
(-45,-174,c),
(-50,-224,l),
(-33,-229,o),
(-12,-232,o),
(4,-232,cs)
);
}
);
width = 265;
},
{
anchors = (
{
name = top;
pos = (192,500);
}
);
layerId = m002;
shapes = (
{
closed = 1;
nodes = (
(117,-230,o),
(163,-179,o),
(173,-86,cs),
(235,500,l),
(151,500,l),
(90,-85,ls),
(84,-139,o),
(55,-158,o),
(6,-158,cs),
(-7,-158,o),
(-25,-157,o),
(-40,-154,c),
(-48,-222,l),
(-31,-227,o),
(-8,-230,o),
(8,-230,cs)
);
}
);
width = 279;
},
{
anchors = (
{
name = top;
pos = (177,508);
}
);
layerId = m003;
shapes = (
{
closed = 1;
nodes = (
(108,-230,o),
(175,-169,o),
(184,-76,cs),
(247,508,l),
(107,508,l),
(50,-28,ls),
(46,-66,o),
(22,-90,o),
(-14,-90,cs),
(-27,-90,o),
(-59,-89,o),
(-75,-86,c),
(-90,-222,l),
(-74,-227,o),
(-36,-230,o),
(-20,-230,cs)
);
}
);
width = 270;
}
);
unicode = 567;
},
{
glyphname = k;
lastChange = "2024-11-02 04:49:56 +0000";
layers = (
{
anchors = (
{
name = bottom;
pos = (235,0);
}
);
layerId = m01;
shapes = (
{
closed = 1;
nodes = (
(247,291,l),
(266,301,l),
(478,500,l),
(408,500,l),
(104,219,l),
(96,145,l)
);
},
{
closed = 1;
nodes = (
(126,0,l),
(199,700,l),
(143,700,l),
(70,0,l)
);
},
{
closed = 1;
nodes = (
(442,0,l),
(276,331,l),
(234,294,l),
(377,0,l)
);
}
);
width = 483;
},
{
anchors = (
{
name = bottom;
pos = (257,0);
}
);
layerId = m002;
shapes = (
{
closed = 1;
nodes = (
(269,272,l),
(295,288,l),
(525,500,l),
(421,500,l),
(112,219,l),
(101,120,l)
);
},
{
closed = 1;
nodes = (
(150,0,l),
(223,700,l),
(139,700,l),
(66,0,l)
);
},
{
closed = 1;
nodes = (
(489,0,l),
(319,322,l),
(251,269,l),
(387,0,l)
);
}
);
width = 525;
},
{
anchors = (
{
name = bottom;
pos = (288,0);
}
);
layerId = m003;
shapes = (
{
closed = 1;
nodes = (
(310,241,l),
(335,251,l),
(597,508,l),
(419,508,l),
(97,210,l),
(162,116,l)
);
},
{
closed = 1;
nodes = (
(193,0,l),
(268,712,l),
(128,711,l),
(53,-1,l)
);
},
{
closed = 1;
nodes = (
(561,0,l),
(377,351,l),
(248,280,l),
(393,0,l)
);
}
);
width = 588;
}
);
unicode = 107;
},
{
glyphname = l;
lastChange = "2024-11-02 04:49:56 +0000";
layers = (
{
anchors = (
{
name = bottom;
pos = (92,0);
},
{
name = top;
pos = (166,700);
}
);
layerId = m01;
shapes = (
{
closed = 1;
nodes = (
(120,0,l),
(193,700,l),
(137,700,l),
(64,0,l)
);
}
);
width = 236;
},
{
anchors = (
{
name = bottom;
pos = (87,0);
},
{
name = top;
pos = (160,700);
}
);
layerId = m002;
shapes = (
{
closed = 1;
nodes = (
(130,0,l),
(203,700,l),
(119,700,l),
(46,0,l)
);
}
);
width = 228;
},
{
anchors = (
{
name = bottom;
pos = (121,0);
},
{
name = top;
pos = (196,700);
}
);
layerId = m003;
shapes = (
{
closed = 1;
nodes = (
(191,0,l),
(265,700,l),
(125,700,l),
(51,0,l)
);
}
);
width = 296;
}
);
unicode = 108;
},
{
glyphname = lcaron;
lastChange = "2024-11-02 04:49:56 +0000";
layers = (
{
layerId = m01;
shapes = (
{
pos = (-26,0);
ref = l;
},
{
closed = 1;
nodes = (
(366,700,l),
(273,700,l),
(248,582,l),
(298,582,l)
);
}
);
width = 319;
},
{
layerId = m002;
shapes = (
{
pos = (-26,0);
ref = l;
},
{
closed = 1;
nodes = (
(390,700,l),
(280,700,l),
(255,563,l),
(327,563,l)
);
}
);
width = 343;
},
{
layerId = m003;
shapes = (
{
pos = (-27,0);
ref = l;
},
{
closed = 1;
nodes = (
(465,700,l),
(335,700,l),
(298,530,l),
(393,530,l)
);
}
);
width = 418;
}
);
unicode = 318;
},
{
glyphname = ldot;
lastChange = "2024-11-02 04:49:56 +0000";
layers = (
{
layerId = m01;
shapes = (
{
pos = (-26,0);
ref = l;
},
{
closed = 1;
nodes = (
(328,303,o),
(351,325,o),
(353,349,cs),
(356,375,o),
(337,397,o),
(313,397,cs),
(287,397,o),
(263,375,o),
(260,349,cs),
(258,325,o),
(278,303,o),
(304,303,cs)
);
}
);
width = 369;
},
{
layerId = m002;
shapes = (
{
pos = (-26,0);
ref = l;
},
{
closed = 1;
nodes = (
(337,285,o),
(369,315,o),
(373,350,cs),
(376,386,o),
(350,416,o),
(315,416,cs),
(279,416,o),
(246,386,o),
(243,350,cs),
(239,315,o),
(266,285,o),
(302,285,cs)
);
}
);
width = 382;
},
{
layerId = m003;
shapes = (
{
pos = (-27,0);
ref = l;
},
{
closed = 1;
nodes = (
(423,262,o),
(468,302,o),
(473,352,cs),
(478,400,o),
(441,439,o),
(393,439,cs),
(344,439,o),
(299,400,o),
(294,352,cs),
(289,302,o),
(326,262,o),
(375,262,cs)
);
}
);
width = 467;
}
);
unicode = 320;
},
{
glyphname = lslash;
lastChange = "2024-11-21 09:21:55 +0000";
layers = (
{
layerId = m01;
shapes = (
{
pos = (11,0);
ref = l;
},
{
closed = 1;
nodes = (
(302,423,l),
(276,468,l),
(-6,284,l),
(19,238,l)
);
}
);
width = 263;
},
{
layerId = m002;
shapes = (
{
pos = (18,0);
ref = l;
},
{
closed = 1;
nodes = (
(311,420,l),
(274,480,l),
(-24,286,l),
(11,226,l)
);
}
);
width = 281;
},
{
layerId = m003;
shapes = (
{
pos = (17,0);
ref = l;
},
{
closed = 1;
nodes = (
(386,443,l),
(340,518,l),
(-36,278,l),
(8,201,l)
);
}
);
width = 333;
}
);
unicode = 322;
},
{
glyphname = m;
lastChange = "2024-11-02 04:49:56 +0000";
layers = (
{
layerId = m01;
shapes = (
{
closed = 1;
nodes = (
(126,0,l),
(154,270,ls),
(164,366,o),
(229,462,o),
(328,462,cs),
(409,462,o),
(465,411,o),
(454,310,cs),
(422,0,l),
(478,0,l),
(512,322,ls),
(524,442,o),
(447,512,o),
(350,512,cs),
(231,512,o),
(180,431,o),
(167,396,c),
(178,500,l),
(122,500,l),
(70,0,l)
);
},
{
closed = 1;
nodes = (
(830,0,l),
(864,322,ls),
(876,442,o),
(799,512,o),
(702,512,cs),
(583,512,o),
(519,414,o),
(507,379,c),
(506,270,l),
(517,373,o),
(581,462,o),
(680,462,cs),
(761,462,o),
(817,411,o),
(806,310,cs),
(774,0,l)
);
}
);
width = 944;
},
{
layerId = m002;
shapes = (
{
closed = 1;
nodes = (
(150,0,l),
(178,270,ls),
(188,366,o),
(243,436,o),
(335,436,cs),
(402,436,o),
(443,403,o),
(434,316,cs),
(401,0,l),
(485,0,l),
(519,328,ls),
(532,448,o),
(468,512,o),
(371,512,cs),
(259,512,o),
(205,441,o),
(192,406,c),
(202,500,l),
(118,500,l),
(66,0,l)
);
},
{
closed = 1;
nodes = (
(820,0,l),
(854,328,ls),
(867,448,o),
(803,512,o),
(706,512,cs),
(594,512,o),
(529,432,o),
(516,397,c),
(513,270,l),
(523,366,o),
(578,436,o),
(670,436,cs),
(737,436,o),
(778,403,o),
(769,316,cs),
(736,0,l)
);
}
);
width = 934;
},
{
layerId = m003;
shapes = (
{
closed = 1;
nodes = (
(193,0,l),
(218,239,ls),
(230,347,o),
(268,408,o),
(351,408,cs),
(408,408,o),
(434,373,o),
(425,296,cs),
(394,0,l),
(534,0,l),
(567,315,ls),
(580,435,o),
(526,520,o),
(397,520,cs),
(329,520,o),
(265,479,o),
(238,430,c),
(247,508,l),
(107,508,l),
(53,0,l)
);
},
{
closed = 1;
nodes = (
(875,0,l),
(908,315,ls),
(921,435,o),
(867,520,o),
(738,520,cs),
(674,520,o),
(598,496,o),
(561,410,c),
(559,239,l),
(571,347,o),
(609,408,o),
(692,408,cs),
(749,408,o),
(775,373,o),
(766,296,cs),
(735,0,l)
);
}
);
width = 974;
},
{
associatedMasterId = m01;
layerId = "9734DA5E-3835-4262-844E-572FF4DD55DE";
name = "5 Apr 24 at 07:53";
shapes = (
{
closed = 1;
nodes = (
(152,0,l),
(152,270,ls),
(152,366,o),
(200,458,o),
(299,458,cs),
(380,458,o),
(448,411,o),
(448,310,cs),
(448,0,l),
(504,0,l),
(504,322,ls),
(504,442,o),
(424,512,o),
(327,512,cs),
(208,512,o),
(161,431,o),
(152,396,c),
(152,500,l),
(96,500,l),
(96,0,l)
);
},
{
closed = 1;
nodes = (
(504,270,l),
(504,366,o),
(552,458,o),
(651,458,cs),
(732,458,o),
(800,411,o),
(800,310,cs),
(800,0,l),
(856,0,l),
(856,322,ls),
(856,442,o),
(776,512,o),
(679,512,cs),
(560,512,o),
(513,431,o),
(504,396,c)
);
}
);
width = 926;
}
);
unicode = 109;
},
{
glyphname = n;
lastChange = "2024-11-02 04:49:56 +0000";
layers = (
{
anchors = (
{
name = bottom;
pos = (281,0);
},
{
name = top;
pos = (335,512);
}
);
layerId = m01;
shapes = (
{
closed = 1;
nodes = (
(126,0,l),
(154,270,ls),
(164,366,o),
(229,462,o),
(328,462,cs),
(409,462,o),
(465,411,o),
(454,310,cs),
(422,0,l),
(478,0,l),
(512,322,ls),
(524,442,o),
(447,512,o),
(350,512,cs),
(231,512,o),
(180,431,o),
(167,396,c),
(178,500,l),
(122,500,l),
(70,0,l)
);
}
);
width = 592;
},
{
anchors = (
{
name = bottom;
pos = (281,0);
},
{
name = top;
pos = (335,512);
}
);
layerId = m002;
shapes = (
{
closed = 1;
nodes = (
(150,0,l),
(178,270,ls),
(188,366,o),
(243,436,o),
(335,436,cs),
(402,436,o),
(443,403,o),
(434,316,cs),
(401,0,l),
(485,0,l),
(519,328,ls),
(532,448,o),
(468,512,o),
(371,512,cs),
(259,512,o),
(205,441,o),
(192,406,c),
(202,500,l),
(118,500,l),
(66,0,l)
);
}
);
width = 587;
},
{
anchors = (
{
name = bottom;
pos = (299,0);
},
{
name = top;
pos = (359,520);
}
);
layerId = m003;
shapes = (
{
closed = 1;
nodes = (
(193,0,l),
(218,239,ls),
(230,347,o),
(264,408,o),
(347,408,cs),
(404,408,o),
(428,370,o),
(420,296,cs),
(389,0,l),
(529,0,l),
(562,315,ls),
(575,435,o),
(526,520,o),
(392,520,cs),
(324,520,o),
(265,479,o),
(238,430,c),
(247,508,l),
(107,508,l),
(53,0,l)
);
}
);
width = 624;
}
);
unicode = 110;
},
{
glyphname = nhookleft;
lastChange = "2024-11-08 23:57:51 +0000";
layers = (
{
anchors = (
{
name = bottom;
pos = (302,0);
},
{
name = top;
pos = (362,520);
}
);
guides = (
{
pos = (184,-165);
}
);
layerId = m003;
shapes = (
{
closed = 1;
nodes = (
(117,-165,o),
(184,-104,o),
(194,-11,cs),
(221,239,ls),
(233,347,o),
(267,408,o),
(350,408,cs),
(407,408,o),
(431,370,o),
(423,296,cs),
(392,0,l),
(532,0,l),
(565,315,ls),
(578,435,o),
(529,520,o),
(395,520,cs),
(327,520,o),
(268,479,o),
(241,430,c),
(250,508,l),
(110,508,l),
(59,37,ls),
(55,-1,o),
(31,-25,o),
(-5,-25,cs),
(-18,-25,o),
(-50,-24,o),
(-66,-21,c),
(-81,-157,l),
(-65,-162,o),
(-27,-165,o),
(-11,-165,cs)
);
}
);
width = 666;
},
{
anchors = (
{
name = bottom;
pos = (272,0);
},
{
name = top;
pos = (326,512);
}
);
guides = (
{
pos = (562,-133);
}
);
layerId = m01;
shapes = (
{
closed = 1;
nodes = (
(64,-133,o),
(107,-88,o),
(117,5,cs),
(145,270,ls),
(155,366,o),
(220,462,o),
(319,462,cs),
(400,462,o),
(456,411,o),
(445,310,cs),
(413,0,l),
(469,0,l),
(503,322,ls),
(515,442,o),
(438,512,o),
(341,512,cs),
(222,512,o),
(171,431,o),
(158,396,c),
(169,500,l),
(113,500,l),
(61,6,ls),
(54,-67,o),
(23,-79,o),
(-25,-79,cs),
(-38,-79,o),
(-54,-78,o),
(-70,-75,c),
(-75,-125,l),
(-59,-130,o),
(-37,-133,o),
(-21,-133,cs)
);
}
);
width = 609;
},
{
anchors = (
{
name = bottom;
pos = (276,0);
},
{
name = top;
pos = (330,512);
}
);
guides = (
{
pos = (311,-142);
}
);
layerId = m002;
shapes = (
{
closed = 1;
nodes = (
(88,-142,o),
(135,-91,o),
(145,2,cs),
(173,270,ls),
(183,366,o),
(238,436,o),
(330,436,cs),
(397,436,o),
(438,403,o),
(429,316,cs),
(396,0,l),
(480,0,l),
(514,328,ls),
(527,448,o),
(463,512,o),
(366,512,cs),
(254,512,o),
(200,441,o),
(187,406,c),
(197,500,l),
(113,500,l),
(61,3,ls),
(55,-51,o),
(26,-70,o),
(-23,-70,cs),
(-36,-70,o),
(-54,-69,o),
(-69,-66,c),
(-76,-134,l),
(-60,-139,o),
(-37,-142,o),
(-21,-142,cs)
);
}
);
width = 617;
}
);
unicode = 626;
},
{
glyphname = nhookretroflex;
lastChange = "2024-11-21 09:34:42 +0000";
layers = (
{
anchors = (
{
name = bottom;
pos = (302,0);
},
{
name = top;
pos = (362,520);
}
);
guides = (
{
pos = (184,-165);
}
);
layerId = m003;
shapes = (
{
closed = 1;
nodes = (
(580,-165,o),
(618,-162,o),
(636,-157,c),
(649,-21,l),
(633,-24,o),
(601,-25,o),
(588,-25,cs),
(552,-25,o),
(532,1,o),
(536,37,cs),
(565,315,ls),
(578,435,o),
(529,520,o),
(395,520,cs),
(327,520,o),
(268,479,o),
(241,430,c),
(250,508,l),
(110,508,l),
(56,0,l),
(196,0,l),
(221,239,ls),
(233,347,o),
(267,408,o),
(350,408,cs),
(407,408,o),
(431,370,o),
(423,296,cs),
(392,-5,ls),
(382,-98,o),
(436,-165,o),
(564,-165,cs)
);
}
);
width = 646;
},
{
anchors = (
{
name = bottom;
pos = (272,0);
},
{
name = top;
pos = (326,512);
}
);
guides = (
{
pos = (562,-133);
}
);
layerId = m01;
shapes = (
{
closed = 1;
nodes = (
(539,-133,o),
(561,-130,o),
(579,-125,c),
(584,-75,l),
(568,-78,o),
(550,-79,o),
(537,-79,cs),
(489,-79,o),
(462,-61,o),
(470,12,cs),
(503,322,ls),
(516,442,o),
(438,512,o),
(341,512,cs),
(222,512,o),
(171,431,o),
(158,396,c),
(169,500,l),
(113,500,l),
(61,0,l),
(117,0,l),
(145,270,ls),
(155,366,o),
(220,462,o),
(319,462,cs),
(400,462,o),
(455,411,o),
(445,310,cs),
(414,11,ls),
(404,-82,o),
(438,-133,o),
(523,-133,cs)
);
}
);
width = 580;
},
{
anchors = (
{
name = bottom;
pos = (276,0);
},
{
name = top;
pos = (330,512);
}
);
guides = (
{
pos = (311,-142);
}
);
layerId = m002;
shapes = (
{
closed = 1;
nodes = (
(549,-142,o),
(572,-139,o),
(590,-134,c),
(597,-66,l),
(580,-69,o),
(562,-70,o),
(549,-70,cs),
(500,-70,o),
(475,-51,o),
(481,3,cs),
(514,328,ls),
(526,448,o),
(463,512,o),
(366,512,cs),
(254,512,o),
(200,441,o),
(187,406,c),
(197,500,l),
(113,500,l),
(61,0,l),
(145,0,l),
(173,270,ls),
(183,366,o),
(238,436,o),
(330,436,cs),
(397,436,o),
(438,403,o),
(429,316,cs),
(397,2,ls),
(387,-91,o),
(424,-142,o),
(533,-142,cs)
);
}
);
width = 590;
}
);
unicode = 627;
},
{
glyphname = eng;
lastChange = "2024-11-14 11:27:33 +0000";
layers = (
{
guides = (
{
pos = (154,-165);
}
);
layerId = m003;
shapes = (
{
pos = (-27,0);
ref = n;
},
{
closed = 1;
nodes = (
(424,-165,o),
(489,-104,o),
(500,-11,cs),
(510,70,l),
(370,70,l),
(366,37,ls),
(362,-1,o),
(338,-25,o),
(302,-25,cs),
(289,-25,o),
(257,-24,o),
(241,-21,c),
(226,-157,l),
(242,-162,o),
(280,-165,o),
(296,-165,cs)
);
}
);
width = 628;
},
{
guides = (
{
pos = (545,-133);
}
);
layerId = m01;
shapes = (
{
pos = (-26,0);
ref = n;
},
{
closed = 1;
nodes = (
(400,-133,o),
(442,-89,o),
(452,4,cs),
(458,56,l),
(402,56,l),
(397,10,ls),
(389,-63,o),
(359,-79,o),
(311,-79,cs),
(298,-79,o),
(282,-78,o),
(266,-75,c),
(261,-125,l),
(277,-130,o),
(299,-133,o),
(315,-133,cs)
);
}
);
width = 592;
},
{
guides = (
{
pos = (290,-142);
}
);
layerId = m002;
shapes = (
{
pos = (-26,0);
ref = n;
},
{
closed = 1;
nodes = (
(403,-142,o),
(450,-91,o),
(460,2,cs),
(469,90,l),
(385,90,l),
(376,3,ls),
(370,-51,o),
(341,-70,o),
(292,-70,cs),
(279,-70,o),
(261,-69,o),
(246,-66,c),
(239,-134,l),
(255,-139,o),
(278,-142,o),
(294,-142,cs)
);
}
);
width = 597;
}
);
unicode = 331;
},
{
glyphname = o;
kernLeft = o;
kernRight = o;
lastChange = "2024-11-02 04:49:56 +0000";
layers = (
{
anchors = (
{
name = bottom;
pos = (256,-12);
},
{
name = top;
pos = (312,512);
}
);
layerId = m01;
shapes = (
{
closed = 1;
nodes = (
(380,-12,o),
(494,78,o),
(512,250,cs),
(530,422,o),
(436,512,o),
(312,512,cs),
(188,512,o),
(74,422,o),
(56,250,cs),
(38,78,o),
(132,-12,o),
(256,-12,cs)
);
},
{
closed = 1;
nodes = (
(151,38,o),
(100,121,o),
(114,250,cs),
(128,379,o),
(195,462,o),
(306,462,cs),
(417,462,o),
(468,379,o),
(454,250,cs),
(440,121,o),
(373,38,o),
(262,38,cs)
);
}
);
width = 568;
},
{
anchors = (
{
name = bottom;
pos = (262,-12);
},
{
name = top;
pos = (318,512);
}
);
layerId = m002;
shapes = (
{
closed = 1;
nodes = (
(386,-12,o),
(506,78,o),
(524,250,cs),
(542,422,o),
(448,512,o),
(318,512,cs),
(194,512,o),
(74,422,o),
(56,250,cs),
(38,78,o),
(132,-12,o),
(262,-12,cs)
);
},
{
closed = 1;
nodes = (
(172,64,o),
(128,135,o),
(140,250,cs),
(152,365,o),
(214,436,o),
(310,436,cs),
(408,436,o),
(452,365,o),
(440,250,cs),
(428,135,o),
(368,64,o),
(270,64,cs)
);
}
);
width = 580;
},
{
anchors = (
{
name = bottom;
pos = (275,-12);
},
{
name = top;
pos = (331,520);
}
);
layerId = m003;
shapes = (
{
closed = 1;
nodes = (
(406,-12,o),
(549,70,o),
(568,254,cs),
(588,440,o),
(468,520,o),
(331,520,cs),
(202,520,o),
(56,440,o),
(36,254,cs),
(17,70,o),
(138,-12,o),
(275,-12,cs)
);
},
{
closed = 1;
nodes = (
(210,108,o),
(173,164,o),
(182,254,cs),
(191,342,o),
(241,400,o),
(318,400,cs),
(400,400,o),
(431,342,o),
(422,254,cs),
(413,164,o),
(369,108,o),
(288,108,cs)
);
}
);
width = 604;
}
);
unicode = 111;
},
{
glyphname = ohorn;
kernLeft = o;
kernRight = ohorn;
lastChange = "2024-11-21 09:36:21 +0000";
layers = (
{
layerId = m01;
shapes = (
{
closed = 1;
nodes = (
(537,434,o),
(630,512,o),
(593,634,c),
(540,616,l),
(565,530,o),
(519,483,o),
(461,483,cs),
(425,483,o),
(396,498,o),
(367,505,c),
(362,462,l),
(450,434,l)
);
},
{
ref = o;
}
);
width = 565;
},
{
layerId = m002;
shapes = (
{
closed = 1;
nodes = (
(583,428,o),
(654,511,o),
(617,633,c),
(535,611,l),
(558,552,o),
(541,482,o),
(473,482,cs),
(450,482,o),
(409,498,o),
(387,502,c),
(381,445,l),
(449,428,l)
);
},
{
ref = o;
}
);
width = 592;
},
{
layerId = m003;
shapes = (
{
closed = 1;
nodes = (
(623,413,o),
(719,522,o),
(679,657,c),
(562,626,l),
(585,567,o),
(573,494,o),
(492,494,cs),
(456,494,o),
(435,508,o),
(382,516,c),
(373,433,l),
(490,413,l)
);
},
{
ref = o;
}
);
width = 661;
}
);
metricLeft = o;
unicode = 417;
},
{
glyphname = oopen;
lastChange = "2024-11-09 08:22:43 +0000";
layers = (
{
layerId = m01;
shapes = (
{
closed = 1;
nodes = (
(60,32,o),
(127,-12,o),
(210,-12,cs),
(330,-12,o),
(444,78,o),
(462,250,cs),
(480,422,o),
(386,512,o),
(266,512,cs),
(166,512,o),
(109,465,o),
(61,379,c),
(110,358,l),
(137,414,o),
(189,462,o),
(260,462,cs),
(367,462,o),
(418,379,o),
(404,250,cs),
(390,121,o),
(323,38,o),
(216,38,cs),
(146,38,o),
(100,87,o),
(84,137,c),
(30,117,l)
);
}
);
width = 518;
},
{
layerId = m002;
shapes = (
{
closed = 1;
nodes = (
(59,35,o),
(128,-13,o),
(216,-13,c),
(342,-13,o),
(464,75,o),
(482,251,cs),
(500,425,o),
(398,512,o),
(272,512,cs),
(171,512,o),
(103,462,o),
(60,379,c),
(133,349,l),
(159,400,o),
(206,436,o),
(266,436,cs),
(370,436,o),
(410,359,o),
(398,248,cs),
(387,140,o),
(331,63,o),
(226,63,cs),
(166,63,o),
(127,97,o),
(111,148,c),
(32,118,l)
);
}
);
width = 536;
},
{
layerId = m003;
shapes = (
{
closed = 1;
nodes = (
(48,35,o),
(121,-12,o),
(209,-12,cs),
(372,-12,o),
(489,88,o),
(506,254,cs),
(523,420,o),
(428,520,o),
(265,520,cs),
(177,520,o),
(94,473,o),
(45,381,c),
(157,335,l),
(172,367,o),
(211,400,o),
(257,400,cs),
(329,400,o),
(370,345,o),
(360,253,cs),
(350,161,o),
(299,108,o),
(227,108,cs),
(181,108,o),
(148,141,o),
(139,173,c),
(19,127,l)
);
}
);
width = 550;
}
);
unicode = 596;
},
{
glyphname = oslash;
kernLeft = o;
kernRight = o;
lastChange = "2024-11-21 09:37:10 +0000";
layers = (
{
layerId = m01;
shapes = (
{
pos = (6,0);
ref = o;
},
{
closed = 1;
nodes = (
(69,-27,l),
(568,493,l),
(534,523,l),
(37,6,l)
);
}
);
width = 576;
},
{
layerId = m002;
shapes = (
{
pos = (2,0);
ref = o;
},
{
closed = 1;
nodes = (
(82,-34,l),
(589,488,l),
(540,532,l),
(35,13,l)
);
}
);
width = 595;
},
{
layerId = m003;
shapes = (
{
pos = (2,0);
ref = o;
},
{
closed = 1;
nodes = (
(70,-51,l),
(612,495,l),
(540,556,l),
(0,13,l)
);
}
);
width = 613;
}
);
unicode = 248;
},
{
glyphname = oe;
kernLeft = o;
kernRight = e;
lastChange = "2024-11-02 04:49:56 +0000";
layers = (
{
anchors = (
{
name = bottom;
pos = (834,-13);
},
{
name = top;
pos = (886,512);
}
);
layerId = m01;
shapes = (
{
closed = 1;
nodes = (
(380,-12,o),
(485,78,o),
(503,250,cs),
(521,422,o),
(436,512,o),
(312,512,cs),
(188,512,o),
(74,422,o),
(56,250,cs),
(38,78,o),
(132,-12,o),
(256,-12,cs)
);
},
{
closed = 1;
nodes = (
(151,38,o),
(100,121,o),
(114,250,cs),
(128,379,o),
(195,462,o),
(306,462,cs),
(417,462,o),
(468,379,o),
(454,250,cs),
(440,121,o),
(373,38,o),
(262,38,cs)
);
},
{
closed = 1;
nodes = (
(795,-13,o),
(870,62,o),
(904,144,c),
(852,154,l),
(827,100,o),
(772,37,o),
(676,37,cs),
(557,37,o),
(503,118,o),
(516,245,cs),
(529,368,o),
(587,462,o),
(717,462,cs),
(824,462,o),
(869,368,o),
(861,289,c),
(510,289,l),
(505,239,l),
(916,239,l),
(919,267,l),
(935,422,o),
(847,512,o),
(719,512,cs),
(582,512,o),
(482,412,o),
(465,248,cs),
(448,87,o),
(520,-13,o),
(666,-13,cs)
);
}
);
width = 973;
},
{
anchors = (
{
name = bottom;
pos = (848,-13);
},
{
name = top;
pos = (900,512);
}
);
layerId = m002;
shapes = (
{
closed = 1;
nodes = (
(386,-12,o),
(496,78,o),
(514,250,cs),
(532,422,o),
(448,512,o),
(318,512,cs),
(194,512,o),
(74,422,o),
(56,250,cs),
(38,78,o),
(132,-12,o),
(262,-12,cs)
);
},
{
closed = 1;
nodes = (
(172,64,o),
(128,135,o),
(140,250,cs),
(152,365,o),
(214,436,o),
(310,436,cs),
(408,436,o),
(452,365,o),
(440,250,cs),
(428,135,o),
(368,64,o),
(270,64,cs)
);
},
{
closed = 1;
nodes = (
(779,-13,o),
(855,55,o),
(888,137,c),
(808,151,l),
(783,97,o),
(723,63,o),
(666,63,cs),
(541,63,o),
(517,150,o),
(527,245,cs),
(540,367,o),
(594,436,o),
(703,436,cs),
(797,436,o),
(826,345,o),
(822,304,c),
(529,304,l),
(521,234,l),
(900,234,l),
(903,261,l),
(921,434,o),
(831,512,o),
(707,512,cs),
(570,512,o),
(469,412,o),
(452,248,cs),
(435,87,o),
(514,-13,o),
(654,-13,cs)
);
}
);
width = 958;
},
{
anchors = (
{
name = bottom;
pos = (306,-13);
},
{
name = top;
pos = (360,520);
}
);
layerId = m003;
shapes = (
{
closed = 1;
nodes = (
(406,-12,o),
(533,70,o),
(552,254,cs),
(572,440,o),
(468,520,o),
(331,520,cs),
(202,520,o),
(56,440,o),
(36,254,cs),
(17,70,o),
(138,-12,o),
(275,-12,cs)
);
},
{
closed = 1;
nodes = (
(210,108,o),
(173,164,o),
(182,254,cs),
(191,342,o),
(241,400,o),
(318,400,cs),
(400,400,o),
(431,342,o),
(422,254,cs),
(413,164,o),
(369,108,o),
(288,108,cs)
);
},
{
closed = 1;
nodes = (
(750,-13,o),
(850,23,o),
(908,134,c),
(780,173,l),
(757,130,o),
(708,107,o),
(678,107,cs),
(589,107,o),
(556,164,o),
(565,256,cs),
(574,337,o),
(619,400,o),
(703,400,cs),
(770,400,o),
(802,336,o),
(798,301,c),
(537,301,l),
(529,215,l),
(932,215,l),
(935,248,l),
(953,418,o),
(867,520,o),
(717,520,cs),
(586,520,o),
(461,436,o),
(442,256,cs),
(424,82,o),
(528,-13,o),
(663,-13,cs)
);
}
);
width = 972;
}
);
unicode = 339;
},
{
glyphname = p;
kernRight = o;
lastChange = "2024-11-02 04:49:56 +0000";
layers = (
{
layerId = m01;
shapes = (
{
closed = 1;
nodes = (
(150,43,o),
(207,-12,o),
(298,-12,cs),
(415,-12,o),
(521,86,o),
(538,250,cs),
(556,419,o),
(485,512,o),
(354,512,cs),
(269,512,o),
(194,457,o),
(168,402,c),
(178,500,l),
(122,500,l),
(46,-230,l),
(102,-230,l),
(136,98,l)
);
},
{
closed = 1;
nodes = (
(213,38,o),
(137,108,o),
(151,250,c),
(167,392,o),
(257,462,o),
(336,462,cs),
(449,462,o),
(492,377,o),
(479,252,cs),
(466,124,o),
(391,38,o),
(292,38,cs)
);
}
);
width = 594;
},
{
layerId = m002;
shapes = (
{
closed = 1;
nodes = (
(174,24,o),
(243,-12,o),
(312,-12,cs),
(446,-12,o),
(544,86,o),
(561,250,cs),
(579,419,o),
(502,512,o),
(363,512,cs),
(275,512,o),
(217,457,o),
(192,402,c),
(202,500,l),
(118,500,l),
(42,-230,l),
(126,-230,l),
(159,93,l)
);
},
{
closed = 1;
nodes = (
(211,64,o),
(166,148,o),
(177,250,cs),
(189,360,o),
(251,437,o),
(350,437,cs),
(448,437,o),
(487,356,o),
(476,252,cs),
(465,148,o),
(408,64,o),
(307,64,cs)
);
}
);
width = 615;
},
{
layerId = m003;
shapes = (
{
closed = 1;
nodes = (
(187,29,o),
(233,-12,o),
(316,-12,cs),
(447,-12,o),
(546,88,o),
(563,253,cs),
(581,421,o),
(498,520,o),
(367,520,cs),
(289,520,o),
(234,470,o),
(202,415,c),
(212,508,l),
(71,508,l),
(-6,-230,l),
(134,-230,l),
(167,83,l)
);
},
{
closed = 1;
nodes = (
(214,97,o),
(175,158,o),
(185,253,cs),
(194,341,o),
(247,410,o),
(315,410,cs),
(387,410,o),
(426,340,o),
(417,253,cs),
(407,157,o),
(354,95,o),
(282,96,cs)
);
}
);
width = 607;
}
);
unicode = 112;
},
{
glyphname = thorn;
lastChange = "2024-11-02 04:49:56 +0000";
layers = (
{
layerId = m01;
shapes = (
{
closed = 1;
nodes = (
(150,43,o),
(207,-12,o),
(298,-12,cs),
(415,-12,o),
(521,86,o),
(538,250,cs),
(556,419,o),
(485,512,o),
(354,512,cs),
(269,512,o),
(194,457,o),
(168,402,c),
(199,700,l),
(143,700,l),
(46,-230,l),
(102,-230,l),
(136,98,l)
);
},
{
closed = 1;
nodes = (
(213,38,o),
(137,108,o),
(151,250,c),
(167,392,o),
(257,462,o),
(336,462,cs),
(449,462,o),
(492,377,o),
(479,252,cs),
(466,124,o),
(391,38,o),
(292,38,cs)
);
}
);
width = 594;
},
{
layerId = m002;
shapes = (
{
closed = 1;
nodes = (
(174,24,o),
(243,-12,o),
(312,-12,cs),
(446,-12,o),
(544,86,o),
(561,250,cs),
(579,419,o),
(502,512,o),
(363,512,cs),
(275,512,o),
(217,457,o),
(192,402,c),
(223,700,l),
(139,700,l),
(42,-230,l),
(126,-230,l),
(159,93,l)
);
},
{
closed = 1;
nodes = (
(211,64,o),
(166,148,o),
(177,250,cs),
(189,360,o),
(251,437,o),
(350,437,cs),
(448,437,o),
(487,356,o),
(476,252,cs),
(465,148,o),
(408,64,o),
(307,64,cs)
);
}
);
width = 615;
},
{
layerId = m003;
shapes = (
{
closed = 1;
nodes = (
(195,29,o),
(241,-12,o),
(324,-12,cs),
(455,-12,o),
(554,88,o),
(571,253,cs),
(589,421,o),
(506,520,o),
(375,520,cs),
(297,520,o),
(242,470,o),
(210,415,c),
(240,700,l),
(99,700,l),
(2,-230,l),
(142,-230,l),
(175,83,l)
);
},
{
closed = 1;
nodes = (
(222,97,o),
(183,158,o),
(193,253,cs),
(202,341,o),
(255,410,o),
(323,410,cs),
(395,410,o),
(434,340,o),
(425,253,cs),
(415,157,o),
(362,95,o),
(290,96,cs)
);
}
);
width = 600;
}
);
unicode = 254;
},
{
glyphname = q;
kernLeft = o;
lastChange = "2024-11-02 04:49:56 +0000";
layers = (
{
layerId = m01;
shapes = (
{
closed = 1;
nodes = (
(496,-231,o),
(507,-226,o),
(522,-218,c),
(527,-171,l),
(484,-190,o),
(454,-176,o),
(459,-126,c),
(524,500,l),
(468,500,l),
(458,402,l),
(444,457,o),
(381,512,o),
(296,512,cs),
(165,512,o),
(74,419,o),
(56,250,cs),
(39,86,o),
(123,-12,o),
(240,-12,cs),
(331,-12,o),
(400,43,o),
(426,98,c),
(402,-141,ls),
(394,-212,o),
(433,-229,o),
(472,-230,cs)
);
},
{
closed = 1;
nodes = (
(159,38,o),
(102,124,o),
(115,252,cs),
(128,377,o),
(189,462,o),
(302,462,cs),
(381,462,o),
(457,392,o),
(443,250,c),
(427,108,o),
(337,38,o),
(258,38,cs)
);
}
);
width = 600;
},
{
layerId = m002;
shapes = (
{
closed = 1;
nodes = (
(507,-230,o),
(520,-226,o),
(535,-218,c),
(542,-150,l),
(492,-161,o),
(481,-143,o),
(487,-103,cs),
(550,500,l),
(467,500,l),
(457,402,l),
(442,457,o),
(396,512,o),
(308,512,cs),
(177,512,o),
(72,419,o),
(54,250,cs),
(37,86,o),
(116,-12,o),
(247,-12,cs),
(316,-12,o),
(396,27,o),
(424,96,c),
(401,-124,ls),
(392,-204,o),
(430,-230,o),
(482,-230,cs)
);
},
{
closed = 1;
nodes = (
(166,64,o),
(127,148,o),
(138,252,cs),
(149,356,o),
(206,437,o),
(304,437,cs),
(403,437,o),
(449,360,o),
(437,250,cs),
(426,148,o),
(363,64,o),
(267,64,cs)
);
}
);
width = 604;
},
{
layerId = m003;
shapes = (
{
closed = 1;
nodes = (
(520,-229,o),
(561,-222,o),
(576,-214,c),
(587,-104,l),
(537,-115,o),
(525,-100,o),
(529,-60,cs),
(590,508,l),
(449,508,l),
(439,415,l),
(419,470,o),
(374,520,o),
(296,520,cs),
(165,520,o),
(62,421,o),
(44,253,cs),
(27,88,o),
(104,-12,o),
(235,-12,cs),
(318,-12,o),
(372,29,o),
(404,83,c),
(384,-100,ls),
(374,-191,o),
(418,-229,o),
(493,-229,cs)
);
},
{
closed = 1;
nodes = (
(219,95,o),
(180,157,o),
(190,253,cs),
(199,340,o),
(252,410,o),
(324,410,cs),
(392,410,o),
(431,341,o),
(422,253,cs),
(412,158,o),
(359,97,o),
(291,96,cs)
);
}
);
width = 655;
}
);
unicode = 113;
},
{
glyphname = r;
lastChange = "2024-11-14 12:47:29 +0000";
layers = (
{
anchors = (
{
name = bottom;
pos = (99,0);
},
{
name = top;
pos = (242,500);
}
);
layerId = m01;
shapes = (
{
closed = 1;
nodes = (
(126,0,l),
(154,270,ls),
(164,366,o),
(229,456,o),
(328,456,cs),
(346,456,o),
(363,454,o),
(379,449,c),
(385,509,l),
(373,511,o),
(362,512,o),
(350,512,cs),
(231,512,o),
(180,431,o),
(167,396,c),
(178,500,l),
(122,500,l),
(70,0,l)
);
}
);
width = 375;
},
{
anchors = (
{
name = bottom;
pos = (110,0);
},
{
name = top;
pos = (259,500);
}
);
layerId = m002;
shapes = (
{
closed = 1;
nodes = (
(150,0,l),
(178,270,ls),
(188,366,o),
(239,420,o),
(322,436,cs),
(347,441,o),
(382,436,o),
(401,430,c),
(409,508,l),
(400,510,o),
(377,512,o),
(367,512,cs),
(264,512,o),
(217,454,o),
(192,401,c),
(202,500,l),
(118,500,l),
(66,0,l)
);
}
);
width = 402;
},
{
anchors = (
{
name = bottom;
pos = (122,0);
},
{
name = top;
pos = (249,520);
}
);
layerId = m003;
shapes = (
{
closed = 1;
nodes = (
(193,0,l),
(217,221,ls),
(227,317,o),
(255,375,o),
(335,391,cs),
(361,396,o),
(395,391,o),
(415,385,c),
(429,516,l),
(420,519,o),
(396,520,o),
(386,520,cs),
(318,520,o),
(263,477,o),
(238,424,c),
(247,508,l),
(107,508,l),
(53,0,l)
);
}
);
width = 419;
}
);
unicode = 114;
},
{
glyphname = s;
lastChange = "2024-11-02 04:49:56 +0000";
layers = (
{
anchors = (
{
name = bottom;
pos = (224,-12);
},
{
name = top;
pos = (281,512);
}
);
layerId = m01;
shapes = (
{
closed = 1;
nodes = (
(368,-12,o),
(430,53,o),
(439,134,cs),
(460,331,o),
(126,228,o),
(141,371,cs),
(147,432,o),
(208,462,o),
(274,462,cs),
(350,462,o),
(394,418,o),
(388,367,c),
(448,367,l),
(455,429,o),
(430,512,o),
(281,512,cs),
(158,512,o),
(90,441,o),
(82,368,cs),
(61,168,o),
(395,269,o),
(381,134,cs),
(374,70,o),
(317,38,o),
(232,38,cs),
(167,38,o),
(92,80,o),
(100,156,c),
(40,156,l),
(30,57,o),
(121,-12,o),
(224,-12,cs)
);
}
);
width = 505;
},
{
anchors = (
{
name = bottom;
pos = (223,-12);
},
{
name = top;
pos = (271,512);
}
);
layerId = m002;
shapes = (
{
closed = 1;
nodes = (
(370,-12,o),
(436,60,o),
(445,141,cs),
(465,338,o),
(137,253,o),
(149,365,cs),
(154,407,o),
(189,436,o),
(262,436,cs),
(342,436,o),
(376,400,o),
(372,367,c),
(458,367,l),
(465,429,o),
(424,512,o),
(271,512,cs),
(141,512,o),
(72,433,o),
(65,360,cs),
(44,161,o),
(373,258,o),
(360,137,cs),
(355,87,o),
(307,64,o),
(233,64,cs),
(175,64,o),
(115,93,o),
(122,156,c),
(32,156,l),
(22,57,o),
(114,-12,o),
(223,-12,c)
);
}
);
width = 503;
},
{
anchors = (
{
name = bottom;
pos = (247,-12);
},
{
name = top;
pos = (300,520);
}
);
layerId = m003;
shapes = (
{
closed = 1;
nodes = (
(401,-12,o),
(493,53,o),
(504,162,cs),
(524,347,o),
(198,287,o),
(206,361,cs),
(209,389,o),
(232,406,o),
(287,406,cs),
(344,406,o),
(377,380,o),
(374,351,c),
(510,351,l),
(518,424,o),
(472,520,o),
(300,520,cs),
(145,520,o),
(76,447,o),
(67,355,cs),
(46,157,o),
(372,224,o),
(365,155,cs),
(360,116,o),
(323,102,o),
(266,102,cs),
(200,102,o),
(159,126,o),
(164,175,c),
(28,176,l),
(17,77,o),
(89,-12,o),
(247,-12,c)
);
}
);
width = 554;
},
{
associatedMasterId = m003;
layerId = "F69D4450-EE1F-4301-BB03-F9CA77403C17";
name = "10 Aug 24 at 16:46";
shapes = (
{
closed = 1;
nodes = (
(434,-12,o),
(514,66,o),
(514,145,cs),
(514,351,o),
(195,285,o),
(195,361,cs),
(195,389,o),
(216,406,o),
(271,406,cs),
(328,406,o),
(364,380,o),
(364,351,c),
(500,351,l),
(500,424,o),
(444,520,o),
(272,520,cs),
(117,520,o),
(56,448,o),
(56,364,cs),
(56,156,o),
(375,226,o),
(375,155,cs),
(375,116,o),
(339,102,o),
(282,102,cs),
(216,102,o),
(172,126,o),
(172,175,c),
(36,176,l),
(36,77,o),
(117,-12,o),
(275,-12,c)
);
}
);
visible = 1;
width = 554;
}
);
unicode = 115;
},
{
glyphname = germandbls;
lastChange = "2024-11-02 04:49:56 +0000";
layers = (
{
layerId = m01;
shapes = (
{
closed = 1;
nodes = (
(194,122,l),
(186,46,o),
(242,-12,o),
(339,-12,cs),
(429,-12,o),
(508,41,o),
(518,140,cs),
(536,303,o),
(366,302,o),
(375,379,cs),
(380,431,o),
(443,461,o),
(453,557,cs),
(463,646,o),
(401,712,o),
(305,712,cs),
(196,712,o),
(125,642,o),
(111,506,cs),
(58,0,l),
(114,0,l),
(167,506,ls),
(177,598,o),
(212,662,o),
(302,662,cs),
(364,662,o),
(401,608,o),
(395,557,cs),
(386,473,o),
(325,458,o),
(317,379,cs),
(304,260,o),
(476,286,o),
(460,138,cs),
(454,74,o),
(408,38,o),
(346,38,cs),
(278,38,o),
(241,82,o),
(246,122,c)
);
}
);
width = 570;
},
{
layerId = m002;
shapes = (
{
closed = 1;
nodes = (
(203,140,l),
(195,58,o),
(240,-12,o),
(362,-12,cs),
(464,-12,o),
(540,54,o),
(551,157,cs),
(568,316,o),
(404,327,o),
(411,393,cs),
(416,445,o),
(471,460,o),
(481,552,cs),
(490,642,o),
(419,712,o),
(321,712,cs),
(198,712,o),
(126,631,o),
(113,506,cs),
(60,0,l),
(148,0,l),
(201,506,ls),
(209,583,o),
(235,636,o),
(316,636,cs),
(368,636,o),
(401,595,o),
(397,552,cs),
(389,480,o),
(335,472,o),
(327,393,cs),
(314,268,o),
(481,284,o),
(467,155,cs),
(461,97,o),
(422,64,o),
(370,64,cs),
(308,64,o),
(282,95,o),
(286,140,c)
);
}
);
width = 596;
},
{
layerId = m003;
shapes = (
{
closed = 1;
nodes = (
(237,163,l),
(225,43,o),
(302,-12,o),
(417,-12,cs),
(552,-12,o),
(623,68,o),
(634,170,cs),
(651,334,o),
(484,332,o),
(491,392,cs),
(496,443,o),
(534,462,o),
(542,537,cs),
(551,626,o),
(477,712,o),
(350,712,cs),
(177,712,o),
(117,602,o),
(102,463,cs),
(53,0,l),
(193,0,l),
(241,457,ls),
(252,554,o),
(281,598,o),
(339,598,cs),
(378,598,o),
(406,570,o),
(403,537,cs),
(395,465,o),
(358,459,o),
(351,392,cs),
(336,256,o),
(508,271,o),
(497,171,cs),
(493,126,o),
(470,102,o),
(430,102,cs),
(388,102,o),
(364,122,o),
(368,163,c)
);
}
);
width = 673;
}
);
unicode = 223;
},
{
glyphname = t;
lastChange = "2024-11-14 11:36:01 +0000";
layers = (
{
anchors = (
{
name = bottom;
pos = (201,-3);
},
{
name = top;
pos = (199,629);
}
);
layerId = m01;
shapes = (
{
closed = 1;
nodes = (
(242,-11,o),
(264,-8,o),
(281,-3,c),
(287,47,l),
(270,44,o),
(253,43,o),
(240,43,cs),
(192,43,o),
(166,61,o),
(174,134,cs),
(207,449,l),
(336,449,l),
(341,499,l),
(212,499,l),
(226,627,l),
(174,627,l),
(168,570,ls),
(161,506,o),
(150,500,o),
(89,500,cs),
(66,500,l),
(61,449,l),
(151,449,l),
(118,133,ls),
(108,40,o),
(141,-11,o),
(226,-11,cs)
);
}
);
width = 355;
},
{
anchors = (
{
name = bottom;
pos = (208,-8);
},
{
name = top;
pos = (197,627);
}
);
layerId = m002;
shapes = (
{
closed = 1;
nodes = (
(254,-12,o),
(277,-9,o),
(294,-4,c),
(301,64,l),
(285,61,o),
(268,60,o),
(255,60,cs),
(206,60,o),
(182,78,o),
(188,132,cs),
(218,423,l),
(347,423,l),
(355,499,l),
(226,499,l),
(240,627,l),
(156,627,l),
(150,570,ls),
(144,512,o),
(129,500,o),
(75,500,cs),
(52,500,l),
(44,423,l),
(134,423,l),
(104,132,ls),
(94,39,o),
(129,-12,o),
(238,-12,cs)
);
}
);
width = 366;
},
{
anchors = (
{
name = bottom;
pos = (203,-4);
},
{
name = top;
pos = (226,628);
}
);
layerId = m003;
shapes = (
{
closed = 1;
nodes = (
(289,-12,o),
(318,-9,o),
(336,-4,c),
(349,126,l),
(332,123,o),
(309,122,o),
(296,122,cs),
(269,122,o),
(242,137,o),
(247,184,cs),
(268,387,l),
(384,387,l),
(397,507,l),
(281,507,l),
(293,627,l),
(159,627,l),
(154,582,ls),
(149,527,o),
(127,508,o),
(64,508,cs),
(45,508,l),
(32,387,l),
(128,387,l),
(103,149,ls),
(92,42,o),
(142,-12,o),
(273,-12,cs)
);
}
);
width = 400;
}
);
unicode = 116;
},
{
glyphname = tcaron;
lastChange = "2024-11-07 16:48:54 +0000";
layers = (
{
layerId = m01;
shapes = (
{
closed = 1;
nodes = (
(338,582,l),
(406,700,l),
(313,700,l),
(288,582,l)
);
},
{
pos = (-26,0);
ref = t;
}
);
width = 359;
},
{
layerId = m002;
shapes = (
{
closed = 1;
nodes = (
(366,562,l),
(429,699,l),
(319,699,l),
(294,562,l)
);
},
{
pos = (-26,0);
ref = t;
}
);
width = 382;
},
{
layerId = m003;
shapes = (
{
closed = 1;
nodes = (
(432,562,l),
(502,702,l),
(372,702,l),
(337,562,l)
);
},
{
pos = (-27,0);
ref = t;
}
);
width = 455;
}
);
unicode = 357;
},
{
glyphname = u;
lastChange = "2024-11-14 11:36:29 +0000";
layers = (
{
anchors = (
{
name = bottom;
pos = (257,-12);
},
{
name = ogonek;
pos = (468,0);
},
{
name = top;
pos = (311,500);
}
);
layerId = m01;
shapes = (
{
closed = 1;
nodes = (
(464,500,l),
(436,230,ls),
(426,134,o),
(361,38,o),
(262,38,cs),
(181,38,o),
(125,89,o),
(136,190,cs),
(168,500,l),
(112,500,l),
(78,178,ls),
(66,58,o),
(143,-12,o),
(240,-12,cs),
(359,-12,o),
(410,69,o),
(423,104,c),
(412,0,l),
(468,0,l),
(520,500,l)
);
}
);
width = 584;
},
{
anchors = (
{
name = bottom;
pos = (262,-12);
},
{
name = ogonek;
pos = (479,0);
},
{
name = top;
pos = (316,500);
}
);
layerId = m002;
shapes = (
{
closed = 1;
nodes = (
(447,500,l),
(419,230,ls),
(409,134,o),
(354,64,o),
(262,64,cs),
(195,64,o),
(154,97,o),
(163,184,cs),
(196,500,l),
(112,500,l),
(78,172,ls),
(65,52,o),
(129,-12,o),
(226,-12,cs),
(338,-12,o),
(392,59,o),
(405,94,c),
(395,0,l),
(479,0,l),
(531,500,l)
);
}
);
width = 597;
},
{
anchors = (
{
name = bottom;
pos = (259,-12);
},
{
name = ogonek;
pos = (509,0);
},
{
name = top;
pos = (320,520);
}
);
layerId = m003;
shapes = (
{
closed = 1;
nodes = (
(423,508,l),
(398,269,ls),
(386,161,o),
(352,100,o),
(269,100,cs),
(212,100,o),
(188,138,o),
(196,212,cs),
(227,508,l),
(87,508,l),
(54,193,ls),
(41,73,o),
(90,-12,o),
(224,-12,cs),
(292,-12,o),
(351,29,o),
(378,78,c),
(369,0,l),
(509,0,l),
(563,508,l)
);
}
);
width = 616;
}
);
unicode = 117;
},
{
glyphname = uhorn;
kernLeft = u;
kernRight = uhorn;
lastChange = "2024-11-09 00:08:56 +0000";
layers = (
{
layerId = m01;
shapes = (
{
ref = u;
},
{
closed = 1;
nodes = (
(599,451,o),
(691,529,o),
(655,651,c),
(592,632,l),
(616,562,o),
(581,500,o),
(517,500,c),
(512,451,l)
);
}
);
width = 637;
},
{
layerId = m002;
shapes = (
{
ref = u;
},
{
closed = 1;
nodes = (
(639,446,o),
(709,529,o),
(673,651,c),
(591,629,l),
(614,570,o),
(602,500,o),
(521,500,c),
(516,446,l)
);
}
);
width = 668;
},
{
layerId = m003;
shapes = (
{
ref = u;
},
{
closed = 1;
nodes = (
(673,427,o),
(773,536,o),
(733,671,c),
(616,640,l),
(638,581,o),
(630,508,o),
(549,508,c),
(540,427,l)
);
}
);
width = 725;
}
);
unicode = 432;
},
{
glyphname = v;
lastChange = "2024-11-02 04:49:56 +0000";
layers = (
{
layerId = m01;
shapes = (
{
closed = 1;
nodes = (
(188,0,l),
(248,0,l),
(113,500,l),
(41,500,l)
);
},
{
closed = 1;
nodes = (
(425,500,l),
(188,0,l),
(248,0,l),
(490,500,l)
);
}
);
width = 480;
},
{
layerId = m002;
shapes = (
{
closed = 1;
nodes = (
(178,0,l),
(261,0,l),
(139,500,l),
(40,500,l)
);
},
{
closed = 1;
nodes = (
(417,500,l),
(188,0,l),
(269,0,l),
(508,500,l)
);
}
);
width = 496;
},
{
layerId = m003;
shapes = (
{
closed = 1;
nodes = (
(177,0,l),
(302,0,l),
(174,508,l),
(30,508,l)
);
},
{
closed = 1;
nodes = (
(434,508,l),
(192,0,l),
(311,0,l),
(568,508,l)
);
}
);
width = 544;
}
);
unicode = 118;
},
{
glyphname = w;
lastChange = "2024-11-08 08:57:27 +0000";
layers = (
{
anchors = (
{
name = bottom;
pos = (388,0);
},
{
name = top;
pos = (440,500);
}
);
guides = (
{
angle = 270;
pos = (414,596);
},
{
angle = 270;
pos = (232,568);
},
{
angle = 270;
pos = (601,594);
}
);
layerId = m01;
shapes = (
{
closed = 1;
nodes = (
(242,0,l),
(450,473,l),
(426,473,l),
(537,0,l),
(597,0,l),
(816,500,l),
(753,500,l),
(569,61,l),
(582,61,l),
(481,500,l),
(403,500,l),
(213,61,l),
(227,61,l),
(134,500,l),
(66,500,l),
(181,0,l)
);
}
);
width = 830;
},
{
anchors = (
{
name = bottom;
pos = (401,0);
},
{
name = top;
pos = (453,500);
}
);
layerId = m002;
shapes = (
{
closed = 1;
nodes = (
(269,0,l),
(463,420,l),
(427,420,l),
(532,0,l),
(622,0,l),
(838,500,l),
(751,500,l),
(575,62,l),
(596,62,l),
(496,500,l),
(413,500,l),
(224,62,l),
(243,62,l),
(157,500,l),
(62,500,l),
(179,0,l)
);
}
);
width = 848;
},
{
anchors = (
{
name = bottom;
pos = (432,-12);
},
{
name = top;
pos = (488,520);
}
);
layerId = m003;
shapes = (
{
closed = 1;
nodes = (
(317,0,l),
(490,408,l),
(461,408,l),
(545,0,l),
(682,0,l),
(913,508,l),
(777,508,l),
(609,95,l),
(633,95,l),
(564,508,l),
(418,508,l),
(254,95,l),
(278,95,l),
(205,508,l),
(59,508,l),
(180,0,l)
);
}
);
width = 918;
},
{
associatedMasterId = m002;
layerId = "30F2B960-0829-4076-A92C-CF2E7BC166CC";
name = m;
shapes = (
{
closed = 1;
nodes = (
(68,0,l),
(68,270,ls),
(68,366,o),
(115,436,o),
(207,436,cs),
(274,436,o),
(319,403,o),
(319,316,cs),
(319,0,l),
(403,0,l),
(403,328,ls),
(403,448,o),
(332,512,o),
(235,512,cs),
(123,512,o),
(77,441,o),
(68,406,c),
(68,500,l),
(-16,500,l),
(-16,0,l)
);
},
{
closed = 1;
nodes = (
(738,0,l),
(738,328,ls),
(738,448,o),
(667,512,o),
(570,512,cs),
(458,512,o),
(402,432,o),
(393,397,c),
(403,270,l),
(403,366,o),
(450,436,o),
(542,436,cs),
(609,436,o),
(654,403,o),
(654,316,cs),
(654,0,l)
);
}
);
width = 730;
},
{
associatedMasterId = m002;
layerId = "54EF5A92-DF5C-4F27-901D-AD1120EB6B99";
name = v;
shapes = (
{
closed = 1;
nodes = (
(130,0,l),
(213,0,l),
(39,500,l),
(-60,500,l)
);
},
{
closed = 1;
nodes = (
(317,500,l),
(140,0,l),
(221,0,l),
(408,500,l)
);
}
);
width = 730;
},
{
associatedMasterId = m003;
layerId = "6140675B-CD52-4F0B-8FAC-842A7E23690F";
name = "29 Jul 24 at 14:44";
shapes = (
{
closed = 1;
nodes = (
(332,0,l),
(442,394,l),
(395,394,l),
(500,0,l),
(673,0,l),
(812,508,l),
(671,508,l),
(566,60,l),
(609,60,l),
(490,508,l),
(345,508,l),
(225,60,l),
(270,60,l),
(165,508,l),
(25,508,l),
(164,0,l)
);
}
);
width = 837;
},
{
associatedMasterId = m003;
layerId = "C266404C-C364-4E5A-B81C-638BAB07B38C";
name = "29 Jul 24 at 14:44";
shapes = (
{
closed = 1;
nodes = (
(142,0,l),
(142,239,ls),
(142,347,o),
(174,408,o),
(257,408,cs),
(314,408,o),
(343,373,o),
(343,296,cs),
(343,0,l),
(483,0,l),
(483,315,ls),
(483,435,o),
(420,520,o),
(291,520,cs),
(223,520,o),
(163,479,o),
(142,430,c),
(142,508,l),
(2,508,l),
(2,0,l)
);
},
{
closed = 1;
nodes = (
(483,239,l),
(483,347,o),
(515,408,o),
(598,408,cs),
(655,408,o),
(684,373,o),
(684,296,cs),
(684,0,l),
(824,0,l),
(824,315,ls),
(824,435,o),
(761,520,o),
(632,520,cs),
(568,520,o),
(490,490,o),
(468,404,c)
);
}
);
width = 837;
},
{
associatedMasterId = m01;
guides = (
{
angle = 270;
pos = (415,596);
},
{
angle = 270;
pos = (233,568);
},
{
angle = 270;
pos = (602,594);
}
);
layerId = "CC5DFB62-56C2-4ABB-B478-555D61F8676C";
name = "29 Jul 24 at 16:40";
shapes = (
{
closed = 1;
nodes = (
(80,0,l),
(80,270,ls),
(80,366,o),
(135,458,o),
(234,458,cs),
(315,458,o),
(376,411,o),
(376,310,cs),
(376,0,l),
(432,0,l),
(432,322,ls),
(432,442,o),
(347,512,o),
(250,512,cs),
(131,512,o),
(89,431,o),
(80,396,c),
(80,500,l),
(24,500,l),
(24,0,l)
);
},
{
closed = 1;
nodes = (
(432,270,l),
(432,373,o),
(487,458,o),
(586,458,cs),
(667,458,o),
(728,411,o),
(728,310,cs),
(728,0,l),
(784,0,l),
(784,322,ls),
(784,442,o),
(699,512,o),
(602,512,cs),
(483,512,o),
(430,414,o),
(421,379,c)
);
}
);
width = 830;
}
);
unicode = 119;
},
{
glyphname = x;
lastChange = "2024-11-07 16:49:24 +0000";
layers = (
{
anchors = (
{
name = bottom;
pos = (246,0);
},
{
name = top;
pos = (246,500);
}
);
layerId = m01;
shapes = (
{
closed = 1;
nodes = (
(63,0,l),
(252,231,l),
(261,242,l),
(473,500,l),
(404,500,l),
(228,285,l),
(223,279,l),
(-6,0,l)
);
},
{
closed = 1;
nodes = (
(439,0,l),
(262,290,l),
(257,298,l),
(133,500,l),
(62,500,l),
(218,245,l),
(222,239,l),
(368,0,l)
);
}
);
width = 491;
},
{
anchors = (
{
name = bottom;
pos = (237,0);
},
{
name = top;
pos = (237,500);
}
);
layerId = m002;
shapes = (
{
closed = 1;
nodes = (
(74,0,l),
(249,213,l),
(256,221,l),
(484,500,l),
(389,500,l),
(215,287,l),
(208,279,l),
(-21,0,l)
);
},
{
closed = 1;
nodes = (
(442,0,l),
(266,288,l),
(262,294,l),
(136,500,l),
(36,500,l),
(200,232,l),
(206,221,l),
(342,0,l)
);
}
);
width = 473;
},
{
anchors = (
{
name = bottom;
pos = (278,0);
},
{
name = top;
pos = (278,508);
}
);
layerId = m003;
shapes = (
{
closed = 1;
nodes = (
(128,0,l),
(310,213,l),
(319,220,l),
(565,508,l),
(416,508,l),
(248,310,l),
(238,304,l),
(-21,0,l)
);
},
{
closed = 1;
nodes = (
(522,0,l),
(325,306,l),
(316,313,l),
(193,508,l),
(39,508,l),
(224,218,l),
(233,212,l),
(368,0,l)
);
}
);
width = 555;
}
);
unicode = 120;
},
{
glyphname = y;
lastChange = "2024-11-14 11:36:56 +0000";
layers = (
{
anchors = (
{
name = bottom;
pos = (365,0);
},
{
name = top;
pos = (283,500);
}
);
layerId = m01;
shapes = (
{
closed = 1;
nodes = (
(157,-230,o),
(190,-164,o),
(255,-34,cs),
(520,500,l),
(456,500,l),
(247,71,l),
(112,500,l),
(43,500,l),
(211,0,l),
(152,-126,o),
(119,-170,o),
(72,-170,c),
(54,-170,o),
(35,-169,o),
(23,-166,c),
(17,-222,l),
(30,-226,o),
(42,-230,o),
(63,-230,cs)
);
}
);
width = 510;
},
{
anchors = (
{
name = bottom;
pos = (374,0);
},
{
name = top;
pos = (271,500);
}
);
layerId = m002;
shapes = (
{
closed = 1;
nodes = (
(166,-230,o),
(201,-164,o),
(264,-34,cs),
(521,500,l),
(426,500,l),
(250,110,l),
(131,500,l),
(35,500,l),
(195,3,l),
(147,-126,o),
(113,-152,o),
(62,-152,c),
(44,-152,o),
(29,-151,o),
(17,-148,c),
(9,-222,l),
(22,-226,o),
(51,-230,o),
(72,-230,cs)
);
}
);
width = 507;
},
{
anchors = (
{
name = bottom;
pos = (403,0);
},
{
name = top;
pos = (297,508);
}
);
layerId = m003;
shapes = (
{
closed = 1;
nodes = (
(171,-230,o),
(242,-177,o),
(310,-34,cs),
(568,508,l),
(427,508,l),
(273,141,l),
(171,508,l),
(31,508,l),
(186,3,l),
(158,-78,o),
(104,-104,o),
(58,-104,c),
(48,-104,o),
(21,-103,o),
(10,-100,c),
(-4,-220,l),
(9,-224,o),
(41,-230,o),
(81,-230,cs)
);
}
);
width = 543;
},
{
associatedMasterId = m002;
layerId = "D87BC176-5E8B-42A9-9E7C-690C4401C1BD";
name = "14 Jul 24 at 12:20";
shapes = (
{
closed = 1;
nodes = (
(209,0,l),
(292,0,l),
(118,500,l),
(22,500,l)
);
},
{
closed = 1;
nodes = (
(396,500,l),
(219,0,l),
(300,0,l),
(484,500,l)
);
}
);
visible = 1;
width = 498;
}
);
unicode = 121;
},
{
glyphname = z;
lastChange = "2024-11-02 04:49:56 +0000";
layers = (
{
anchors = (
{
name = bottom;
pos = (213,0);
},
{
name = top;
pos = (265,500);
}
);
layerId = m01;
shapes = (
{
closed = 1;
nodes = (
(393,1,l),
(398,51,l),
(95,51,l),
(438,454,l),
(443,501,l),
(76,501,l),
(71,451,l),
(369,451,l),
(29,51,l),
(24,1,l)
);
}
);
width = 475;
},
{
anchors = (
{
name = bottom;
pos = (220,0);
},
{
name = top;
pos = (272,500);
}
);
layerId = m002;
shapes = (
{
closed = 1;
nodes = (
(403,1,l),
(411,77,l),
(136,77,l),
(446,428,l),
(453,501,l),
(80,501,l),
(72,425,l),
(345,425,l),
(36,75,l),
(28,1,l)
);
}
);
width = 483;
},
{
anchors = (
{
name = bottom;
pos = (225,0);
},
{
name = top;
pos = (284,508);
}
);
layerId = m003;
shapes = (
{
closed = 1;
nodes = (
(445,1,l),
(458,121,l),
(211,121,l),
(486,396,l),
(497,508,l),
(67,508,l),
(55,388,l),
(301,388,l),
(26,114,l),
(13,1,l)
);
}
);
width = 516;
}
);
unicode = 122;
},
{
glyphname = a.ss01;
kernLeft = a2;
kernRight = a2;
lastChange = "2024-11-14 11:37:42 +0000";
layers = (
{
anchors = (
{
name = bottom;
pos = (252,-10);
},
{
name = ogonek;
pos = (516,11);
},
{
name = top;
pos = (287,512);
}
);
layerId = m01;
shapes = (
{
closed = 1;
nodes = (
(340,-12,o),
(397,97,o),
(397,97,c),
(390,30,o),
(423,-1,o),
(466,-1,cs),
(491,-1,o),
(501,3,o),
(516,11,c),
(521,59,l),
(476,43,o),
(449,63,o),
(455,113,cs),
(478,338,ls),
(490,450,o),
(433,512,o),
(297,512,cs),
(218,512,o),
(142,476,o),
(95,400,c),
(144,373,l),
(170,420,o),
(222,460,o),
(291,460,cs),
(393,460,o),
(430,409,o),
(422,333,cs),
(420,318,l),
(192,318,o),
(59,278,o),
(44,135,cs),
(34,43,o),
(100,-12,o),
(184,-12,cs)
);
},
{
closed = 1;
nodes = (
(135,38,o),
(96,81,o),
(101,131,cs),
(112,228,o),
(190,268,o),
(415,268,c),
(411,233,ls),
(401,132,o),
(314,38,o),
(198,38,cs)
);
}
);
width = 581;
},
{
anchors = (
{
name = bottom;
pos = (289,-10);
},
{
name = ogonek;
pos = (551,14);
},
{
name = top;
pos = (346,520);
}
);
layerId = m003;
shapes = (
{
closed = 1;
nodes = (
(335,-12,o),
(363,97,o),
(363,97,c),
(357,37,o),
(393,0,o),
(468,0,cs),
(495,0,o),
(536,6,o),
(551,14,c),
(562,124,l),
(512,113,o),
(500,128,o),
(504,168,cs),
(522,340,ls),
(534,451,o),
(463,520,o),
(313,520,cs),
(192,520,o),
(111,459,o),
(79,387,c),
(179,342,l),
(198,385,o),
(239,412,o),
(294,412,cs),
(362,412,o),
(394,383,o),
(388,331,cs),
(388,327,l),
(171,327,o),
(42,273,o),
(28,144,cs),
(19,51,o),
(85,-12,o),
(199,-12,cs)
);
},
{
closed = 1;
nodes = (
(210,93,o),
(165,109,o),
(169,151,cs),
(174,199,o),
(206,239,o),
(378,239,c),
(375,206,ls),
(366,124,o),
(301,93,o),
(231,93,cs)
);
}
);
width = 631;
},
{
anchors = (
{
name = bottom;
pos = (270,-10);
},
{
name = ogonek;
pos = (538,12);
},
{
name = top;
pos = (325,512);
}
);
layerId = m002;
shapes = (
{
closed = 1;
nodes = (
(348,-12,o),
(401,96,o),
(401,96,c),
(396,25,o),
(433,0,o),
(485,0,cs),
(510,0,o),
(523,4,o),
(538,12,c),
(546,80,l),
(496,69,o),
(484,87,o),
(488,127,cs),
(509,330,ls),
(521,445,o),
(455,512,o),
(318,512,cs),
(207,512,o),
(139,462,o),
(102,392,c),
(167,356,l),
(190,413,o),
(251,442,o),
(306,442,cs),
(376,442,o),
(434,414,o),
(426,339,cs),
(425,326,l),
(169,326,o),
(69,261,o),
(57,141,cs),
(47,49,o),
(115,-12,o),
(198,-12,cs)
);
},
{
closed = 1;
nodes = (
(175,62,o),
(134,96,o),
(139,141,cs),
(146,210,o),
(194,260,o),
(418,260,c),
(414,225,ls),
(403,120,o),
(284,62,o),
(222,62,cs)
);
}
);
width = 620;
},
{
associatedMasterId = m003;
layerId = "75EC2996-E87C-4405-B059-48FBE7BE3912";
name = "6 May 24 at 07:51";
shapes = (
{
closed = 1;
nodes = (
(198,190,o),
(236,239,o),
(423,239,c),
(423,208,ls),
(423,126,o),
(351,93,o),
(281,93,cs),
(245,93,o),
(198,109,o),
(198,142,cs)
);
},
{
closed = 1;
nodes = (
(58,51,o),
(131,-12,o),
(245,-12,cs),
(391,-12,o),
(430,97,o),
(430,97,c),
(430,37,o),
(469,0,o),
(544,0,cs),
(569,0,o),
(613,4,o),
(627,12,c),
(627,107,l),
(577,96,o),
(563,114,o),
(563,154,cs),
(563,340,ls),
(563,459,o),
(444,520,o),
(315,520,cs),
(135,520,o),
(71,393,o),
(71,393,c),
(175,339,l),
(192,368,o),
(237,405,o),
(307,405,cs),
(373,405,o),
(423,366,o),
(423,331,cs),
(423,329,l),
(187,329,o),
(58,273,o),
(58,144,cs)
);
}
);
width = 629;
}
);
},
{
glyphname = g.ss01;
lastChange = "2024-11-14 11:37:54 +0000";
layers = (
{
anchors = (
{
name = bottom;
pos = (196,-230);
},
{
name = top;
pos = (297,512);
}
);
layerId = m01;
shapes = (
{
closed = 1;
nodes = (
(398,-230,o),
(484,-156,o),
(495,-54,cs),
(503,17,o),
(443,77,o),
(331,77,cs),
(152,77,ls),
(110,77,o),
(99,109,o),
(101,129,cs),
(104,159,o),
(135,182,o),
(174,192,c),
(131,218,l),
(68,192,o),
(47,157,o),
(43,115,cs),
(39,78,o),
(62,44,o),
(89,35,c),
(23,16,o),
(0,-51,o),
(-2,-74,cs),
(-12,-173,o),
(67,-230,o),
(228,-230,cs)
);
},
{
closed = 1;
nodes = (
(105,-180,o),
(49,-140,o),
(56,-69,cs),
(61,-24,o),
(107,27,o),
(180,27,c),
(319,27,l),
(396,28,o),
(442,-6,o),
(437,-59,cs),
(431,-110,o),
(392,-180,o),
(228,-180,cs)
);
},
{
closed = 1;
nodes = (
(378,176,o),
(462,243,o),
(473,345,cs),
(483,445,o),
(414,512,o),
(297,512,cs),
(183,512,o),
(96,445,o),
(86,345,cs),
(75,243,o),
(147,176,o),
(261,176,cs)
);
},
{
closed = 1;
nodes = (
(177,226,o),
(135,279,o),
(142,345,cs),
(149,409,o),
(202,462,o),
(291,462,cs),
(381,462,o),
(424,409,o),
(417,345,cs),
(410,279,o),
(356,226,o),
(266,226,cs)
);
},
{
closed = 1;
nodes = (
(459,484,o),
(515,508,o),
(563,495,c),
(569,553,l),
(478,569,o),
(430,516,o),
(416,475,c),
(443,455,l)
);
}
);
width = 562;
},
{
anchors = (
{
name = bottom;
pos = (216,-230);
},
{
name = top;
pos = (318,520);
}
);
layerId = m003;
shapes = (
{
closed = 1;
nodes = (
(457,-230,o),
(540,-137,o),
(551,-35,cs),
(559,41,o),
(496,104,o),
(375,104,cs),
(207,104,ls),
(173,104,o),
(153,112,o),
(156,137,cs),
(157,154,o),
(172,160,o),
(187,166,c),
(126,226,l),
(60,198,o),
(35,161,o),
(30,110,cs),
(25,61,o),
(45,28,o),
(88,7,c),
(33,-10,o),
(6,-50,o),
(2,-92,cs),
(-6,-167,o),
(59,-230,o),
(243,-230,cs)
);
},
{
closed = 1;
nodes = (
(161,-117,o),
(135,-90,o),
(139,-55,cs),
(141,-33,o),
(168,-6,o),
(205,-6,c),
(345,-6,l),
(386,-6,o),
(410,-21,o),
(406,-56,cs),
(403,-91,o),
(346,-117,o),
(250,-117,cs)
);
},
{
closed = 1;
nodes = (
(419,145,o),
(515,226,o),
(526,333,cs),
(538,440,o),
(458,520,o),
(318,520,cs),
(182,520,o),
(84,440,o),
(72,333,cs),
(61,226,o),
(143,145,o),
(279,145,cs)
);
},
{
closed = 1;
nodes = (
(229,257,o),
(205,293,o),
(209,333,cs),
(213,372,o),
(248,410,o),
(306,410,c),
(368,410,o),
(393,372,o),
(389,333,cs),
(385,293,o),
(352,257,o),
(290,257,cs)
);
},
{
closed = 1;
nodes = (
(507,471,o),
(574,469,o),
(601,456,c),
(613,568,l),
(522,584,o),
(451,525,o),
(443,480,c),
(491,442,l)
);
}
);
width = 601;
},
{
anchors = (
{
name = bottom;
pos = (205,-230);
},
{
name = top;
pos = (296,512);
}
);
layerId = m002;
shapes = (
{
closed = 1;
nodes = (
(405,-230,o),
(491,-156,o),
(502,-54,cs),
(510,22,o),
(466,82,o),
(336,82,cs),
(160,82,ls),
(118,82,o),
(104,104,o),
(106,129,cs),
(109,159,o),
(143,182,o),
(182,192,c),
(114,218,l),
(51,192,o),
(21,156,o),
(17,114,cs),
(13,77,o),
(30,37,o),
(71,16,c),
(5,-3,o),
(-18,-67,o),
(-21,-93,cs),
(-29,-167,o),
(45,-230,o),
(226,-230,cs)
);
},
{
closed = 1;
nodes = (
(108,-154,o),
(61,-114,o),
(65,-69,cs),
(70,-23,o),
(115,6,o),
(173,6,c),
(323,6,l),
(389,6,o),
(422,-21,o),
(416,-69,cs),
(412,-114,o),
(369,-154,o),
(229,-154,cs)
);
},
{
closed = 1;
nodes = (
(380,162,o),
(470,236,o),
(480,338,cs),
(491,438,o),
(417,512,o),
(296,512,cs),
(178,512,o),
(86,438,o),
(75,338,cs),
(65,236,o),
(141,162,o),
(259,162,cs)
);
},
{
closed = 1;
nodes = (
(184,238,o),
(147,281,o),
(153,338,cs),
(159,393,o),
(205,436,o),
(288,436,cs),
(373,436,o),
(408,393,o),
(402,338,cs),
(396,281,o),
(352,238,o),
(267,238,cs)
);
},
{
closed = 1;
nodes = (
(470,471,o),
(530,473,o),
(568,467,c),
(577,555,l),
(486,571,o),
(430,520,o),
(422,475,c),
(454,442,l)
);
}
);
width = 580;
},
{
associatedMasterId = m01;
layerId = "3EA75350-8DAD-4CD2-A32D-BF5A6E43F144";
name = "10 Aug 24 at 16:59";
shapes = (
{
closed = 1;
nodes = (
(443,-229,o),
(522,-148,o),
(522,-46,cs),
(522,20,o),
(479,87,o),
(352,87,cs),
(174,87,ls),
(105,87,o),
(113,176,o),
(173,176,cs),
(184,176,o),
(255,176,o),
(267,176,cs),
(399,176,o),
(469,247,o),
(469,340,cs),
(469,375,o),
(457,419,o),
(424,452,c),
(437,481,o),
(481,505,o),
(530,492,c),
(530,555,l),
(437,571,o),
(399,522,o),
(395,477,c),
(369,495,o),
(335,512,o),
(260,512,cs),
(119,512,o),
(56,420,o),
(56,340,cs),
(56,280,o),
(86,222,o),
(133,197,c),
(97,193,o),
(60,163,o),
(60,126,cs),
(60,85,o),
(89,58,o),
(122,49,c),
(58,30,o),
(37,-31,o),
(37,-73,cs),
(37,-172,o),
(122,-229,o),
(278,-229,cs)
);
},
{
closed = 1;
nodes = (
(155,-179,o),
(94,-137,o),
(94,-66,cs),
(94,-25,o),
(116,22,o),
(173,37,c),
(345,37,l),
(426,38,o),
(464,-2,o),
(464,-49,cs),
(464,-100,o),
(432,-179,o),
(273,-179,cs)
);
},
{
closed = 1;
nodes = (
(154,225,o),
(114,275,o),
(114,344,cs),
(114,408,o),
(154,463,o),
(259,463,cs),
(368,463,o),
(411,408,o),
(411,345,cs),
(411,275,o),
(368,225,o),
(259,225,cs)
);
}
);
width = 562;
},
{
associatedMasterId = m002;
layerId = "C08E6C22-B8C2-4688-8674-8526B1088BC5";
name = "10 Aug 24 at 17:56";
shapes = (
{
closed = 0;
nodes = (
(408,480,l),
(390,494,o),
(346,512,o),
(262,512,cs),
(116,512,o),
(49,424,o),
(49,337,cs),
(49,280,o),
(83,223,o),
(130,198,c),
(94,194,o),
(55,160,o),
(55,123,cs),
(55,87,o),
(79,60,o),
(113,48,c),
(54,27,o),
(30,-31,o),
(30,-73,cs),
(30,-172,o),
(117,-229,o),
(275,-229,cs),
(453,-229,o),
(532,-148,o),
(532,-46,cs),
(532,20,o),
(496,98,o),
(367,98,cs),
(192,98,ls),
(130,98,o),
(124,177,o),
(200,177,cs),
(211,177,o),
(257,177,o),
(269,177,cs),
(404,177,o),
(478,246,o),
(479,340,cs),
(479,375,o),
(467,417,o),
(444,447,c)
);
},
{
closed = 1;
nodes = (
(155,-154,o),
(108,-122,o),
(108,-59,cs),
(108,-22,o),
(134,16,o),
(177,26,c),
(359,26,l),
(431,26,o),
(453,-2,o),
(454,-49,cs),
(455,-100,o),
(416,-154,o),
(275,-154,cs)
);
},
{
closed = 1;
nodes = (
(163,247,o),
(127,289,o),
(127,344,cs),
(127,397,o),
(163,442,o),
(261,442,cs),
(365,442,o),
(401,398,o),
(401,345,cs),
(401,287,o),
(365,247,o),
(261,247,cs)
);
}
);
width = 580;
},
{
associatedMasterId = m003;
layerId = "F79AD273-4246-4744-B8B8-59AC46FF7D92";
name = "10 Aug 24 at 19:33";
shapes = (
{
closed = 1;
nodes = (
(475,-229,o),
(587,-151,o),
(587,-46,cs),
(587,20,o),
(551,111,o),
(394,111,cs),
(218,111,ls),
(174,111,o),
(175,166,o),
(218,166,cs),
(229,166,o),
(286,166,o),
(298,166,cs),
(435,166,o),
(534,242,o),
(534,340,cs),
(534,375,o),
(529,414,o),
(506,444,c),
(519,473,o),
(574,469,o),
(603,456,c),
(603,568,l),
(510,584,o),
(458,533,o),
(454,488,c),
(436,502,o),
(373,520,o),
(291,520,cs),
(129,520,o),
(51,432,o),
(51,337,cs),
(51,266,o),
(89,220,o),
(136,195,c),
(100,191,o),
(55,164,o),
(55,116,cs),
(55,75,o),
(83,46,o),
(116,37,c),
(57,16,o),
(32,-30,o),
(32,-72,cs),
(32,-171,o),
(152,-229,o),
(304,-229,cs)
);
},
{
closed = 1;
nodes = (
(211,-119,o),
(172,-96,o),
(172,-59,cs),
(172,-21,o),
(200,1,o),
(234,1,cs),
(323,1,ls),
(402,1,o),
(446,-4,o),
(446,-51,cs),
(446,-94,o),
(394,-119,o),
(304,-119,cs)
);
},
{
closed = 1;
nodes = (
(230,275,o),
(191,298,o),
(191,343,cs),
(191,387,o),
(230,411,o),
(290,411,cs),
(357,411,o),
(394,386,o),
(394,343,cs),
(394,297,o),
(357,275,o),
(290,275,cs)
);
}
);
width = 633;
}
);
},
{
glyphname = ordfeminine;
lastChange = "2024-11-21 09:38:35 +0000";
layers = (
{
layerId = m01;
shapes = (
{
closed = 1;
nodes = (
(252,370,o),
(285,441,o),
(285,441,c),
(282,395,o),
(308,378,o),
(341,378,cs),
(357,378,o),
(366,381,o),
(376,386,c),
(382,441,l),
(350,433,o),
(341,445,o),
(344,471,cs),
(357,594,ls),
(364,668,o),
(321,712,o),
(232,712,cs),
(159,712,o),
(119,681,o),
(88,637,c),
(128,604,l),
(147,634,o),
(177,657,o),
(224,657,cs),
(267,657,o),
(305,634,o),
(301,599,cs),
(300,591,l),
(134,591,o),
(71,549,o),
(63,471,cs),
(56,410,o),
(100,370,o),
(154,370,cs)
);
},
{
closed = 1;
nodes = (
(367,307,l),
(48,308,l),
(41,249,l),
(361,248,l)
);
},
{
closed = 1;
nodes = (
(139,426,o),
(118,444,o),
(121,471,cs),
(125,514,o),
(153,541,o),
(295,541,c),
(294,526,ls),
(287,466,o),
(214,426,o),
(173,426,cs)
);
}
);
width = 381;
},
{
layerId = m002;
shapes = (
{
closed = 1;
nodes = (
(259,353,o),
(282,427,o),
(282,427,c),
(279,379,o),
(307,361,o),
(352,361,cs),
(369,361,o),
(380,364,o),
(389,370,c),
(396,435,l),
(363,427,o),
(353,440,o),
(356,467,cs),
(369,588,ls),
(377,666,o),
(332,712,o),
(238,712,cs),
(167,712,o),
(120,684,o),
(88,637,c),
(132,595,l),
(144,615,o),
(181,644,o),
(229,644,cs),
(274,644,o),
(302,620,o),
(300,593,cs),
(299,585,l),
(125,585,o),
(67,533,o),
(59,459,cs),
(53,395,o),
(95,353,o),
(156,353,cs)
);
},
{
closed = 1;
nodes = (
(383,307,l),
(44,308,l),
(36,232,l),
(375,231,l)
);
},
{
closed = 1;
nodes = (
(147,421,o),
(128,434,o),
(131,462,cs),
(134,491,o),
(156,523,o),
(292,523,c),
(291,508,ls),
(285,454,o),
(220,421,o),
(177,421,cs)
);
}
);
width = 398;
},
{
layerId = m003;
shapes = (
{
closed = 1;
nodes = (
(250,349,o),
(283,420,o),
(283,420,c),
(279,380,o),
(309,357,o),
(361,357,cs),
(381,357,o),
(409,361,o),
(419,367,c),
(427,442,l),
(392,434,o),
(383,445,o),
(386,472,cs),
(399,589,ls),
(407,665,o),
(351,712,o),
(252,712,cs),
(189,712,o),
(130,692,o),
(88,637,c),
(146,580,l),
(160,600,o),
(196,621,o),
(238,621,cs),
(278,621,o),
(302,602,o),
(300,581,cs),
(299,578,l),
(146,580,o),
(70,537,o),
(62,456,cs),
(55,393,o),
(87,349,o),
(166,349,cs)
);
},
{
closed = 1;
nodes = (
(413,308,l),
(44,308,l),
(32,198,l),
(401,198,l)
);
},
{
closed = 1;
nodes = (
(188,439,o),
(171,448,o),
(173,467,cs),
(175,487,o),
(201,501,o),
(290,501,c),
(290,497,ls),
(287,466,o),
(257,439,o),
(223,439,cs)
);
}
);
width = 431;
}
);
unicode = 170;
},
{
glyphname = ordmasculine;
lastChange = "2024-11-21 09:38:48 +0000";
layers = (
{
layerId = m01;
shapes = (
{
closed = 1;
nodes = (
(44,249,l),
(340,248,l),
(346,307,l),
(50,308,l)
);
},
{
closed = 1;
nodes = (
(288,370,o),
(362,429,o),
(374,541,cs),
(385,653,o),
(324,712,o),
(241,712,cs),
(158,712,o),
(83,653,o),
(72,541,cs),
(60,429,o),
(122,370,o),
(205,370,cs)
);
},
{
closed = 1;
nodes = (
(153,427,o),
(123,470,o),
(131,540,cs),
(138,610,o),
(177,656,o),
(235,656,cs),
(293,656,o),
(322,611,o),
(315,541,cs),
(307,471,o),
(269,427,o),
(211,427,cs)
);
}
);
width = 360;
},
{
layerId = m002;
shapes = (
{
closed = 1;
nodes = (
(39,232,l),
(361,232,l),
(369,308,l),
(47,308,l)
);
},
{
closed = 1;
nodes = (
(303,354,o),
(381,416,o),
(393,533,cs),
(405,650,o),
(341,712,o),
(251,712,cs),
(161,712,o),
(83,650,o),
(71,533,cs),
(59,416,o),
(123,354,o),
(213,354,cs)
);
},
{
closed = 1;
nodes = (
(165,428,o),
(137,468,o),
(144,532,cs),
(151,596,o),
(187,639,o),
(243,639,cs),
(299,639,o),
(327,597,o),
(320,533,cs),
(313,469,o),
(277,428,o),
(221,428,cs)
);
}
);
width = 384;
},
{
layerId = m003;
shapes = (
{
closed = 1;
nodes = (
(39,198,l),
(392,198,l),
(403,308,l),
(50,308,l)
);
},
{
closed = 1;
nodes = (
(322,349,o),
(419,405,o),
(432,530,cs),
(445,657,o),
(364,712,o),
(270,712,cs),
(182,712,o),
(82,657,o),
(69,530,cs),
(56,405,o),
(139,349,o),
(232,349,cs)
);
},
{
closed = 1;
nodes = (
(203,456,o),
(185,485,o),
(190,530,cs),
(194,575,o),
(220,605,o),
(259,605,cs),
(301,605,o),
(315,575,o),
(311,530,cs),
(306,485,o),
(285,456,o),
(243,456,c)
);
}
);
width = 422;
}
);
unicode = 186;
},
{
glyphname = zero;
lastChange = "2024-11-09 02:28:58 +0000";
layers = (
{
layerId = m01;
shapes = (
{
closed = 1;
nodes = (
(479,-13,o),
(562,171,o),
(581,354,cs),
(601,547,o),
(554,712,o),
(362,712,cs),
(169,712,o),
(85,547,o),
(65,354,cs),
(46,171,o),
(90,-13,o),
(285,-13,cs)
);
},
{
closed = 1;
nodes = (
(192,68,l),
(521,635,l),
(456,635,l),
(127,68,l)
);
},
{
closed = 1;
nodes = (
(153,42,o),
(108,177,o),
(127,355,cs),
(146,536,o),
(218,657,o),
(357,657,cs),
(490,657,o),
(538,536,o),
(519,355,cs),
(500,177,o),
(425,42,o),
(291,42,cs)
);
}
);
width = 624;
},
{
layerId = m002;
shapes = (
{
closed = 1;
nodes = (
(479,-13,o),
(568,171,o),
(587,354,cs),
(607,547,o),
(554,712,o),
(362,712,cs),
(168,712,o),
(79,547,o),
(59,354,cs),
(40,171,o),
(89,-13,o),
(285,-13,cs)
);
},
{
closed = 1;
nodes = (
(212,75,l),
(527,625,l),
(437,625,l),
(122,75,l)
);
},
{
closed = 1;
nodes = (
(170,67,o),
(134,197,o),
(151,355,cs),
(168,516,o),
(229,632,o),
(354,632,cs),
(473,632,o),
(512,516,o),
(495,355,cs),
(478,197,o),
(414,67,o),
(294,67,cs)
);
}
);
width = 624;
},
{
layerId = m003;
shapes = (
{
closed = 1;
nodes = (
(510,-13,o),
(615,161,o),
(636,354,cs),
(657,557,o),
(584,712,o),
(388,712,cs),
(189,712,o),
(84,557,o),
(63,354,cs),
(42,161,o),
(111,-13,o),
(312,-13,c)
);
},
{
closed = 1;
nodes = (
(264,86,l),
(564,610,l),
(434,610,l),
(134,86,l)
);
},
{
closed = 1;
nodes = (
(222,117,o),
(188,213,o),
(203,355,cs),
(218,500,o),
(270,582,o),
(375,582,cs),
(474,582,o),
(511,500,o),
(496,355,cs),
(481,213,o),
(426,117,o),
(326,117,cs)
);
}
);
width = 677;
}
);
unicode = 48;
},
{
glyphname = one;
lastChange = "2024-11-09 02:26:20 +0000";
layers = (
{
layerId = m01;
shapes = (
{
closed = 1;
nodes = (
(343,0,l),
(349,57,l),
(222,57,l),
(289,699,l),
(242,699,l),
(230,586,o),
(211,563,o),
(93,563,c),
(88,512,l),
(210,512,l),
(162,57,l),
(35,57,l),
(29,0,l)
);
}
);
width = 424;
},
{
layerId = m002;
shapes = (
{
closed = 1;
nodes = (
(377,0,l),
(385,80,l),
(252,80,l),
(317,699,l),
(242,699,l),
(232,606,o),
(206,592,o),
(96,592,c),
(88,512,l),
(210,512,l),
(164,80,l),
(37,80,l),
(29,0,l)
);
}
);
width = 458;
},
{
layerId = m003;
shapes = (
{
closed = 1;
nodes = (
(432,0,l),
(446,126,l),
(317,126,l),
(377,699,l),
(244,699,l),
(234,606,o),
(210,592,o),
(93,592,c),
(79,467,l),
(206,467,l),
(171,126,l),
(40,126,l),
(26,0,l)
);
}
);
width = 512;
}
);
unicode = 49;
},
{
glyphname = two;
lastChange = "2024-11-21 09:39:01 +0000";
layers = (
{
layerId = m01;
shapes = (
{
closed = 1;
nodes = (
(442,1,l),
(448,57,l),
(108,57,l),
(132,290,o),
(458,283,o),
(484,528,cs),
(497,647,o),
(414,712,o),
(299,712,cs),
(239,712,o),
(163,677,o),
(120,615,cs),
(103,589,o),
(90,555,o),
(86,519,c),
(146,519,l),
(152,576,o),
(202,656,o),
(295,656,cs),
(411,656,o),
(430,584,o),
(424,528,cs),
(404,337,o),
(68,306,o),
(43,73,cs),
(36,1,l)
);
}
);
width = 533;
},
{
layerId = m002;
shapes = (
{
closed = 1;
nodes = (
(460,1,l),
(468,81,l),
(135,81,l),
(156,277,o),
(479,284,o),
(504,528,cs),
(517,647,o),
(433,712,o),
(318,712,cs),
(238,712,o),
(162,677,o),
(119,615,c),
(102,589,o),
(89,555,o),
(85,519,c),
(173,519,l),
(179,576,o),
(230,632,o),
(308,632,cs),
(386,632,o),
(424,584,o),
(418,528,cs),
(398,335,o),
(69,332,o),
(42,81,cs),
(34,1,l)
);
}
);
width = 546;
},
{
layerId = m003;
shapes = (
{
closed = 1;
nodes = (
(492,1,l),
(506,127,l),
(202,127,l),
(215,253,o),
(510,276,o),
(536,518,cs),
(549,642,o),
(448,712,o),
(327,712,c),
(220,712,o),
(153,677,o),
(111,615,c),
(86,579,o),
(77,523,o),
(73,487,c),
(219,487,l),
(225,538,o),
(250,582,o),
(312,582,cs),
(364,582,o),
(384,542,o),
(381,509,cs),
(363,341,o),
(64,332,o),
(41,107,cs),
(29,1,l)
);
}
);
width = 574;
}
);
unicode = 50;
},
{
glyphname = three;
lastChange = "2024-11-02 04:49:56 +0000";
layers = (
{
layerId = m01;
shapes = (
{
closed = 1;
nodes = (
(389,-12,o),
(490,69,o),
(505,208,cs),
(517,324,o),
(458,423,o),
(311,423,c),
(527,639,l),
(533,700,l),
(122,700,l),
(116,644,l),
(454,644,l),
(230,423,l),
(225,370,l),
(275,370,ls),
(397,370,o),
(454,309,o),
(444,212,cs),
(435,128,o),
(375,44,o),
(250,44,cs),
(157,44,o),
(115,88,o),
(104,167,cs),
(103,179,o),
(102,198,o),
(103,210,c),
(43,203,l),
(41,182,o),
(42,162,o),
(45,144,cs),
(61,44,o),
(139,-12,o),
(244,-12,cs)
);
}
);
width = 568;
},
{
layerId = m002;
shapes = (
{
closed = 1;
nodes = (
(382,-12,o),
(503,71,o),
(518,210,cs),
(531,337,o),
(462,423,o),
(339,423,c),
(534,615,l),
(543,700,l),
(116,700,l),
(108,620,l),
(429,620,l),
(221,423,l),
(214,355,l),
(293,355,ls),
(393,355,o),
(435,299,o),
(426,212,cs),
(417,128,o),
(352,68,o),
(263,68,cs),
(190,68,o),
(134,94,o),
(122,173,c),
(120,185,o),
(120,198,o),
(121,210,c),
(30,203,l),
(28,182,o),
(29,162,o),
(31,144,c),
(47,43,o),
(138,-12,o),
(247,-12,cs)
);
}
);
width = 575;
},
{
layerId = m003;
shapes = (
{
closed = 1;
nodes = (
(427,-12,o),
(533,79,o),
(547,218,cs),
(561,347,o),
(485,414,o),
(394,423,c),
(553,574,l),
(566,700,l),
(120,700,l),
(107,574,l),
(396,574,l),
(233,423,l),
(222,318,l),
(298,318,ls),
(369,318,o),
(410,288,o),
(402,215,cs),
(395,153,o),
(339,118,o),
(279,118,cs),
(215,118,o),
(182,144,o),
(172,197,c),
(170,209,o),
(170,222,o),
(171,234,c),
(36,203,l),
(33,182,o),
(34,162,o),
(36,144,c),
(53,43,o),
(146,-12,o),
(269,-12,cs)
);
}
);
width = 598;
}
);
unicode = 51;
},
{
glyphname = four;
lastChange = "2024-11-09 02:27:23 +0000";
layers = (
{
layerId = m01;
shapes = (
{
closed = 1;
nodes = (
(411,1,l),
(425,140,l),
(542,140,l),
(549,200,l),
(432,200,l),
(484,701,l),
(419,701,l),
(40,205,l),
(33,140,l),
(365,140,l),
(351,1,l)
);
},
{
closed = 1;
nodes = (
(414,602,l),
(372,200,l),
(110,200,l)
);
}
);
width = 599;
},
{
layerId = m002;
shapes = (
{
closed = 1;
nodes = (
(426,1,l),
(439,131,l),
(559,131,l),
(568,212,l),
(448,212,l),
(499,701,l),
(408,701,l),
(41,212,l),
(33,132,l),
(352,132,l),
(338,1,l)
);
},
{
closed = 1;
nodes = (
(396,559,l),
(360,212,l),
(136,212,l)
);
}
);
width = 612;
},
{
layerId = m003;
shapes = (
{
closed = 1;
nodes = (
(488,1,l),
(501,121,l),
(608,121,l),
(621,248,l),
(514,248,l),
(562,701,l),
(398,701,l),
(43,238,l),
(31,121,l),
(355,121,l),
(342,1,l)
);
},
{
closed = 1;
nodes = (
(395,504,l),
(368,248,l),
(201,248,l)
);
}
);
width = 661;
}
);
unicode = 52;
},
{
glyphname = five;
lastChange = "2024-11-02 04:49:56 +0000";
layers = (
{
layerId = m01;
shapes = (
{
closed = 1;
nodes = (
(396,-12,o),
(506,77,o),
(522,234,cs),
(538,387,o),
(452,469,o),
(324,469,cs),
(267,469,o),
(199,445,o),
(176,409,c),
(232,640,l),
(510,640,l),
(516,700,l),
(189,700,l),
(109,366,l),
(182,347,l),
(208,386,o),
(254,413,o),
(306,413,cs),
(421,413,o),
(470,330,o),
(460,234,cs),
(449,126,o),
(381,44,o),
(268,44,cs),
(180,44,o),
(122,106,o),
(117,187,c),
(48,163,l),
(63,49,o),
(152,-12,o),
(261,-12,cs)
);
}
);
width = 569;
},
{
layerId = m002;
shapes = (
{
closed = 1;
nodes = (
(402,-12,o),
(524,77,o),
(540,234,cs),
(556,387,o),
(458,469,o),
(330,469,cs),
(273,469,o),
(217,448,o),
(191,417,c),
(237,620,l),
(529,620,l),
(537,700,l),
(178,700,l),
(96,343,l),
(181,322,l),
(207,361,o),
(253,388,o),
(305,388,cs),
(396,388,o),
(458,330,o),
(448,234,cs),
(437,126,o),
(366,68,o),
(277,68,cs),
(203,68,o),
(154,123,o),
(147,195,c),
(54,163,l),
(69,49,o),
(158,-12,o),
(267,-12,cs)
);
}
);
width = 597;
},
{
layerId = m003;
shapes = (
{
closed = 1;
nodes = (
(434,-12,o),
(555,86,o),
(572,243,cs),
(588,396,o),
(490,487,o),
(352,487,cs),
(301,487,o),
(253,472,o),
(240,461,c),
(273,574,l),
(552,574,l),
(565,700,l),
(176,700,l),
(81,333,l),
(207,302,l),
(225,338,o),
(264,367,o),
(316,367,cs),
(380,367,o),
(430,325,o),
(422,243,cs),
(415,178,o),
(362,118,o),
(300,118,cs),
(233,118,o),
(197,155,o),
(191,216,c),
(48,172,l),
(61,74,o),
(139,-12,o),
(289,-12,cs)
);
}
);
width = 616;
}
);
unicode = 53;
},
{
glyphname = six;
lastChange = "2024-11-09 02:27:57 +0000";
layers = (
{
layerId = m01;
shapes = (
{
closed = 1;
nodes = (
(403,-12,o),
(505,90,o),
(520,229,cs),
(534,367,o),
(453,462,o),
(327,462,cs),
(268,462,o),
(232,444,o),
(219,429,c),
(375,700,l),
(305,700,l),
(139,420,ls),
(109,370,o),
(69,308,o),
(60,226,cs),
(46,87,o),
(126,-12,o),
(269,-12,cs)
);
},
{
closed = 1;
nodes = (
(161,44,o),
(111,116,o),
(122,226,cs),
(133,330,o),
(199,406,o),
(310,406,cs),
(415,406,o),
(468,324,o),
(457,226,cs),
(445,110,o),
(377,44,o),
(276,44,cs)
);
}
);
width = 567;
},
{
layerId = m002;
shapes = (
{
closed = 1;
nodes = (
(408,-12,o),
(506,97,o),
(520,233,cs),
(534,368,o),
(454,474,o),
(318,474,cs),
(284,474,o),
(238,464,o),
(225,449,c),
(370,700,l),
(270,700,l),
(116,426,ls),
(88,376,o),
(44,288,o),
(38,231,cs),
(23,92,o),
(98,-12,o),
(252,-12,cs)
);
},
{
closed = 1;
nodes = (
(164,68,o),
(121,147,o),
(130,234,cs),
(138,309,o),
(198,393,o),
(292,393,cs),
(408,393,o),
(436,310,o),
(428,234,cs),
(419,147,o),
(367,68,o),
(262,68,cs)
);
}
);
width = 561;
},
{
layerId = m003;
shapes = (
{
closed = 1;
nodes = (
(431,-12,o),
(546,94,o),
(561,233,cs),
(575,371,o),
(502,477,o),
(361,477,cs),
(315,477,o),
(287,460,o),
(287,460,c),
(423,700,l),
(271,700,l),
(118,434,ls),
(80,367,o),
(56,298,o),
(49,233,cs),
(34,94,o),
(118,-12,o),
(280,-12,cs)
);
},
{
closed = 1;
nodes = (
(214,109,o),
(187,170,o),
(194,237,cs),
(200,291,o),
(240,356,o),
(316,356,cs),
(400,356,o),
(422,291,o),
(416,237,cs),
(409,170,o),
(374,109,o),
(294,109,cs)
);
}
);
width = 600;
}
);
unicode = 54;
},
{
glyphname = seven;
lastChange = "2024-11-09 02:28:13 +0000";
layers = (
{
layerId = m01;
shapes = (
{
closed = 1;
nodes = (
(193,1,l),
(500,646,l),
(505,700,l),
(92,700,l),
(86,644,l),
(434,644,l),
(128,1,l)
);
}
);
width = 493;
},
{
layerId = m002;
shapes = (
{
closed = 1;
nodes = (
(202,1,l),
(512,622,l),
(520,700,l),
(82,700,l),
(74,620,l),
(413,620,l),
(103,1,l)
);
}
);
width = 486;
},
{
layerId = m003;
shapes = (
{
closed = 1;
nodes = (
(235,1,l),
(526,574,l),
(539,700,l),
(82,700,l),
(69,574,l),
(388,574,l),
(92,1,l)
);
}
);
width = 502;
}
);
unicode = 55;
},
{
glyphname = eight;
lastChange = "2024-11-09 02:28:33 +0000";
layers = (
{
layerId = m01;
shapes = (
{
closed = 1;
nodes = (
(412,-12,o),
(527,64,o),
(542,203,cs),
(551,286,o),
(502,348,o),
(443,384,c),
(488,416,o),
(534,465,o),
(540,530,cs),
(553,649,o),
(471,712,o),
(350,712,cs),
(231,712,o),
(134,649,o),
(121,530,cs),
(115,465,o),
(151,415,o),
(188,384,c),
(122,348,o),
(62,286,o),
(53,203,cs),
(38,64,o),
(135,-12,o),
(274,-12,cs)
);
},
{
closed = 1;
nodes = (
(157,44,o),
(107,123,o),
(115,203,cs),
(123,278,o),
(187,350,o),
(312,350,cs),
(437,350,o),
(488,278,o),
(480,203,cs),
(472,123,o),
(406,44,o),
(281,44,cs)
);
},
{
closed = 1;
nodes = (
(213,401,o),
(177,465,o),
(183,530,cs),
(189,586,o),
(237,656,o),
(343,656,cs),
(449,656,o),
(484,586,o),
(478,530,cs),
(472,465,o),
(422,401,o),
(318,401,cs)
);
}
);
width = 605;
},
{
layerId = m002;
shapes = (
{
closed = 1;
nodes = (
(415,-12,o),
(532,64,o),
(547,203,cs),
(556,286,o),
(519,348,o),
(460,384,c),
(505,416,o),
(539,465,o),
(545,530,cs),
(558,649,o),
(476,712,o),
(347,712,cs),
(220,712,o),
(123,649,o),
(110,530,cs),
(104,465,o),
(128,415,o),
(165,384,c),
(99,348,o),
(51,286,o),
(42,203,cs),
(27,64,o),
(126,-12,o),
(271,-12,cs)
);
},
{
closed = 1;
nodes = (
(181,68,o),
(126,123,o),
(134,203,cs),
(142,278,o),
(204,340,o),
(307,340,cs),
(410,340,o),
(463,278,o),
(455,203,cs),
(447,123,o),
(382,68,o),
(281,68,cs)
);
},
{
closed = 1;
nodes = (
(230,418,o),
(192,465,o),
(198,530,cs),
(204,586,o),
(250,636,o),
(338,636,cs),
(426,636,o),
(463,586,o),
(457,530,cs),
(451,465,o),
(403,418,o),
(317,418,cs)
);
}
);
width = 600;
},
{
layerId = m003;
shapes = (
{
closed = 1;
nodes = (
(450,-12,o),
(579,74,o),
(593,203,cs),
(601,286,o),
(565,348,o),
(506,384,c),
(551,416,o),
(584,465,o),
(591,530,cs),
(602,639,o),
(521,712,o),
(373,712,cs),
(228,712,o),
(129,639,o),
(118,530,cs),
(111,465,o),
(136,415,o),
(173,384,c),
(107,348,o),
(58,286,o),
(50,203,cs),
(36,74,o),
(138,-12,o),
(298,-12,cs)
);
},
{
closed = 1;
nodes = (
(229,116,o),
(199,157,o),
(205,212,cs),
(210,260,o),
(249,306,o),
(330,306,cs),
(419,306,o),
(445,260,o),
(440,212,cs),
(434,157,o),
(399,116,o),
(312,116,cs)
);
},
{
closed = 1;
nodes = (
(297,433,o),
(260,458,o),
(266,512,cs),
(270,550,o),
(310,584,o),
(359,584,cs),
(407,584,o),
(443,550,o),
(439,512,cs),
(433,458,o),
(391,433,o),
(345,433,cs)
);
}
);
width = 653;
}
);
unicode = 56;
},
{
glyphname = nine;
lastChange = "2024-11-09 02:28:45 +0000";
layers = (
{
layerId = m01;
shapes = (
{
closed = 1;
nodes = (
(205,712,o),
(103,610,o),
(88,471,cs),
(74,333,o),
(155,238,o),
(281,238,cs),
(340,238,o),
(376,256,o),
(389,271,c),
(233,0,l),
(303,0,l),
(469,280,ls),
(499,330,o),
(539,392,o),
(548,474,cs),
(562,613,o),
(482,712,o),
(339,712,cs)
);
},
{
closed = 1;
nodes = (
(447,656,o),
(497,584,o),
(486,474,cs),
(475,370,o),
(409,294,o),
(298,294,cs),
(193,294,o),
(140,376,o),
(151,474,cs),
(163,590,o),
(231,656,o),
(332,656,cs)
);
}
);
width = 587;
},
{
layerId = m002;
shapes = (
{
closed = 1;
nodes = (
(174,712,o),
(76,603,o),
(62,467,cs),
(47,328,o),
(128,222,o),
(264,222,cs),
(298,222,o),
(343,232,o),
(357,247,c),
(212,0,l),
(312,0,l),
(465,270,ls),
(493,320,o),
(538,408,o),
(544,469,cs),
(559,608,o),
(484,712,o),
(330,712,cs)
);
},
{
closed = 1;
nodes = (
(418,632,o),
(461,553,o),
(452,466,cs),
(443,386,o),
(384,303,o),
(290,303,cs),
(174,303,o),
(145,386,o),
(154,466,cs),
(163,553,o),
(215,632,o),
(320,632,cs)
);
}
);
width = 561;
},
{
layerId = m003;
shapes = (
{
closed = 1;
nodes = (
(207,712,o),
(92,606,o),
(77,467,cs),
(62,324,o),
(136,223,o),
(277,223,cs),
(323,223,o),
(352,240,o),
(352,240,c),
(215,0,l),
(367,0,l),
(521,271,ls),
(559,338,o),
(583,407,o),
(589,467,cs),
(604,606,o),
(520,712,o),
(358,712,cs)
);
},
{
closed = 1;
nodes = (
(424,591,o),
(452,535,o),
(444,468,cs),
(439,414,o),
(398,344,o),
(322,344,cs),
(238,344,o),
(217,414,o),
(222,468,cs),
(230,535,o),
(264,591,o),
(344,591,cs)
);
}
);
width = 597;
}
);
unicode = 57;
},
{
glyphname = period;
lastChange = "2024-11-09 08:22:56 +0000";
layers = (
{
layerId = m01;
shapes = (
{
closed = 1;
nodes = (
(136,-12,o),
(161,10,o),
(164,37,cs),
(167,66,o),
(147,88,o),
(119,88,cs),
(91,88,o),
(66,66,o),
(63,37,cs),
(60,10,o),
(80,-12,o),
(108,-12,cs)
);
}
);
width = 271;
},
{
associatedMasterId = m01;
layerId = "2626C257-C8D1-4BEC-A76B-04061BD798F2";
name = foreground;
width = 309;
},
{
layerId = m002;
shapes = (
{
closed = 1;
nodes = (
(153,-12,o),
(186,18,o),
(189,53,cs),
(193,89,o),
(167,119,o),
(132,119,cs),
(96,119,o),
(63,89,o),
(59,53,cs),
(56,18,o),
(82,-12,o),
(118,-12,cs)
);
}
);
width = 290;
},
{
layerId = m003;
shapes = (
{
closed = 1;
nodes = (
(190,-16,o),
(235,24,o),
(240,74,cs),
(245,122,o),
(208,161,o),
(160,161,cs),
(111,161,o),
(66,122,o),
(61,74,cs),
(56,24,o),
(93,-16,o),
(142,-16,cs)
);
}
);
width = 339;
}
);
unicode = 46;
},
{
glyphname = comma;
lastChange = "2024-11-09 08:23:04 +0000";
layers = (
{
layerId = m01;
shapes = (
{
closed = 1;
nodes = (
(101,-92,o),
(143,-35,o),
(150,27,cs),
(153,62,o),
(139,88,o),
(102,88,cs),
(73,88,o),
(51,63,o),
(49,38,cs),
(46,14,o),
(65,-7,o),
(90,-7,cs),
(91,-7,o),
(95,-7,o),
(96,-7,c),
(91,-58,o),
(37,-69,o),
(37,-69,c),
(37,-69,o),
(34,-92,o),
(35,-92,cs)
);
}
);
width = 244;
},
{
associatedMasterId = m01;
layerId = "7090993E-1050-418C-BDF4-9BE23E3E6164";
name = foreground;
shapes = (
{
closed = 1;
nodes = (
(132,0,o),
(136,0,o),
(139,1,c),
(139,-76,o),
(60,-92,o),
(60,-92,c),
(60,-92,o),
(59,-131,o),
(60,-131,cs),
(171,-131,o),
(214,-21,o),
(214,50,c),
(214,94,o),
(190,142,o),
(131,142,cs),
(91,142,o),
(60,105,o),
(60,67,cs),
(60,32,o),
(92,0,o),
(129,0,cs)
);
}
);
width = 274;
},
{
layerId = m002;
shapes = (
{
closed = 1;
nodes = (
(109,-119,o),
(155,-26,o),
(163,38,c),
(167,76,o),
(152,119,o),
(98,119,cs),
(61,119,o),
(33,86,o),
(29,53,cs),
(26,21,o),
(52,-7,o),
(83,-7,cs),
(85,-7,o),
(89,-7,o),
(92,-6,c),
(85,-74,o),
(14,-89,o),
(14,-89,c),
(14,-89,o),
(10,-119,o),
(11,-119,cs)
);
}
);
width = 235;
},
{
layerId = m003;
shapes = (
{
closed = 1;
nodes = (
(140,-144,o),
(200,-21,o),
(208,58,cs),
(213,106,o),
(193,160,o),
(128,160,cs),
(79,160,o),
(44,118,o),
(39,76,cs),
(35,37,o),
(65,2,o),
(109,2,cs),
(113,2,o),
(118,2,o),
(121,3,c),
(112,-83,o),
(21,-101,o),
(21,-101,c),
(21,-101,o),
(15,-144,o),
(16,-144,cs)
);
}
);
width = 293;
}
);
unicode = 44;
},
{
glyphname = colon;
lastChange = "2024-11-09 08:23:20 +0000";
layers = (
{
layerId = m01;
shapes = (
{
closed = 1;
nodes = (
(155,-12,o),
(180,10,o),
(183,37,cs),
(186,66,o),
(166,88,o),
(138,88,cs),
(110,88,o),
(85,66,o),
(82,37,cs),
(79,10,o),
(99,-12,o),
(127,-12,cs)
);
},
{
closed = 1;
nodes = (
(194,354,o),
(218,376,o),
(221,403,cs),
(224,432,o),
(204,454,o),
(176,454,cs),
(148,454,o),
(123,432,o),
(120,403,cs),
(117,376,o),
(138,354,o),
(166,354,cs)
);
}
);
width = 309;
},
{
associatedMasterId = m01;
layerId = "1129757A-F034-4623-96F5-2C126444C93D";
name = foreground;
shapes = (
{
closed = 1;
nodes = (
(196,-12,o),
(229,23,o),
(229,62,cs),
(229,104,o),
(196,139,o),
(156,139,cs),
(115,139,o),
(80,104,o),
(80,62,cs),
(80,23,o),
(115,-12,o),
(156,-12,cs)
);
},
{
closed = 1;
nodes = (
(196,289,o),
(229,324,o),
(229,363,cs),
(229,405,o),
(196,440,o),
(156,440,cs),
(115,440,o),
(80,405,o),
(80,363,cs),
(80,324,o),
(115,289,o),
(156,289,cs)
);
}
);
width = 309;
},
{
layerId = m002;
shapes = (
{
closed = 1;
nodes = (
(163,-12,o),
(196,18,o),
(199,53,cs),
(203,89,o),
(177,119,o),
(142,119,cs),
(106,119,o),
(73,89,o),
(69,53,cs),
(66,18,o),
(92,-12,o),
(128,-12,cs)
);
},
{
closed = 1;
nodes = (
(201,349,o),
(234,379,o),
(237,414,cs),
(241,450,o),
(215,480,o),
(180,480,cs),
(144,480,o),
(111,450,o),
(107,414,cs),
(104,379,o),
(130,349,o),
(166,349,cs)
);
}
);
width = 310;
},
{
layerId = m003;
shapes = (
{
closed = 1;
nodes = (
(186,-12,o),
(229,27,o),
(234,75,cs),
(239,122,o),
(204,160,o),
(157,160,cs),
(109,160,o),
(66,122,o),
(61,75,cs),
(56,27,o),
(91,-12,o),
(139,-12,cs)
);
},
{
closed = 1;
nodes = (
(222,329,o),
(265,368,o),
(270,416,cs),
(275,463,o),
(240,501,o),
(193,501,cs),
(145,501,o),
(102,463,o),
(97,416,cs),
(92,368,o),
(127,329,o),
(175,329,cs)
);
}
);
width = 333;
}
);
unicode = 58;
},
{
glyphname = semicolon;
lastChange = "2024-11-09 08:23:24 +0000";
layers = (
{
layerId = m01;
shapes = (
{
closed = 1;
nodes = (
(114,-92,o),
(156,-35,o),
(163,27,cs),
(166,62,o),
(152,88,o),
(115,88,cs),
(86,88,o),
(64,63,o),
(62,38,cs),
(59,14,o),
(78,-7,o),
(103,-7,cs),
(104,-7,o),
(108,-7,o),
(109,-7,c),
(104,-58,o),
(50,-69,o),
(50,-69,c),
(50,-69,o),
(47,-92,o),
(48,-92,cs)
);
},
{
closed = 1;
nodes = (
(175,354,o),
(199,376,o),
(202,403,cs),
(205,432,o),
(185,454,o),
(157,454,cs),
(129,454,o),
(104,432,o),
(101,403,cs),
(98,376,o),
(119,354,o),
(147,354,cs)
);
}
);
width = 270;
},
{
associatedMasterId = m01;
layerId = "7C7B3130-D28B-462C-85A7-59917ACED75E";
name = foreground;
shapes = (
{
closed = 1;
nodes = (
(180,289,o),
(213,324,o),
(213,363,cs),
(213,405,o),
(180,440,o),
(140,440,cs),
(99,440,o),
(64,405,o),
(64,363,cs),
(64,324,o),
(99,289,o),
(140,289,cs)
);
},
{
closed = 1;
nodes = (
(132,0,o),
(136,0,o),
(139,1,c),
(139,-76,o),
(60,-92,o),
(60,-92,c),
(60,-92,o),
(59,-131,o),
(60,-131,cs),
(171,-131,o),
(214,-21,o),
(214,50,c),
(214,94,o),
(190,142,o),
(131,142,cs),
(91,142,o),
(60,105,o),
(60,67,cs),
(60,32,o),
(92,0,o),
(129,0,cs)
);
}
);
width = 274;
},
{
layerId = m002;
shapes = (
{
closed = 1;
nodes = (
(132,-119,o),
(178,-26,o),
(186,38,c),
(190,76,o),
(175,119,o),
(121,119,cs),
(84,119,o),
(56,86,o),
(52,53,cs),
(49,21,o),
(75,-7,o),
(106,-7,cs),
(108,-7,o),
(112,-7,o),
(115,-6,c),
(108,-74,o),
(37,-89,o),
(37,-89,c),
(37,-89,o),
(33,-119,o),
(34,-119,cs)
);
},
{
closed = 1;
nodes = (
(187,349,o),
(220,379,o),
(223,414,cs),
(227,450,o),
(201,480,o),
(166,480,cs),
(130,480,o),
(97,450,o),
(93,414,cs),
(90,379,o),
(116,349,o),
(152,349,cs)
);
}
);
width = 265;
},
{
layerId = m003;
shapes = (
{
closed = 1;
nodes = (
(163,-144,o),
(223,-21,o),
(231,58,cs),
(236,106,o),
(216,160,o),
(151,160,cs),
(102,160,o),
(67,118,o),
(62,76,cs),
(58,37,o),
(88,2,o),
(132,2,cs),
(136,2,o),
(141,2,o),
(144,3,c),
(135,-83,o),
(44,-101,o),
(44,-101,c),
(44,-101,o),
(38,-144,o),
(39,-144,cs)
);
},
{
closed = 1;
nodes = (
(222,329,o),
(265,368,o),
(270,416,cs),
(275,463,o),
(240,501,o),
(193,501,cs),
(145,501,o),
(102,463,o),
(97,416,cs),
(92,368,o),
(127,329,o),
(175,329,cs)
);
}
);
width = 333;
}
);
unicode = 59;
},
{
glyphname = exclam;
lastChange = "2024-11-02 04:49:56 +0000";
layers = (
{
layerId = m01;
shapes = (
{
closed = 1;
nodes = (
(169,162,l),
(239,700,l),
(164,700,l),
(125,162,l)
);
},
{
closed = 1;
nodes = (
(153,-12,o),
(178,10,o),
(181,36,cs),
(183,64,o),
(164,85,o),
(137,85,cs),
(110,85,o),
(85,64,o),
(83,36,cs),
(80,10,o),
(99,-12,o),
(126,-12,cs)
);
}
);
width = 308;
},
{
associatedMasterId = m01;
layerId = "A93029F6-5A44-47E5-8EBB-60AEDDECB850";
name = foreground;
shapes = (
{
closed = 1;
nodes = (
(205,215,l),
(218,720,l),
(89,720,l),
(105,215,l)
);
},
{
closed = 1;
nodes = (
(196,-12,o),
(229,23,o),
(229,62,cs),
(229,104,o),
(196,139,o),
(156,139,cs),
(115,139,o),
(80,104,o),
(80,62,cs),
(80,23,o),
(115,-12,o),
(156,-12,cs)
);
}
);
width = 309;
},
{
layerId = m002;
shapes = (
{
closed = 1;
nodes = (
(187,215,l),
(251,700,l),
(144,700,l),
(109,215,l)
);
},
{
closed = 1;
nodes = (
(157,-12,o),
(189,17,o),
(192,51,cs),
(196,86,o),
(171,115,o),
(137,115,cs),
(102,115,o),
(70,86,o),
(66,51,cs),
(63,17,o),
(88,-12,o),
(123,-12,cs)
);
}
);
width = 300;
},
{
layerId = m003;
shapes = (
{
closed = 1;
nodes = (
(240,231,l),
(303,700,l),
(152,700,l),
(118,231,l)
);
},
{
closed = 1;
nodes = (
(200,-12,o),
(243,27,o),
(248,75,cs),
(253,122,o),
(218,160,o),
(171,160,cs),
(123,160,o),
(80,122,o),
(75,75,cs),
(70,27,o),
(105,-12,o),
(153,-12,cs)
);
}
);
width = 361;
}
);
unicode = 33;
},
{
glyphname = exclamdown;
lastChange = "2024-11-02 04:49:56 +0000";
layers = (
{
layerId = m01;
shapes = (
{
closed = 1;
nodes = (
(70,-200,l),
(145,-200,l),
(187,338,l),
(143,338,l)
);
},
{
closed = 1;
nodes = (
(155,512,o),
(130,490,o),
(127,464,cs),
(125,436,o),
(144,415,o),
(171,415,cs),
(198,415,o),
(223,436,o),
(225,464,cs),
(228,490,o),
(209,512,o),
(182,512,cs)
);
}
);
width = 308;
},
{
layerId = m002;
shapes = (
{
closed = 1;
nodes = (
(53,-200,l),
(160,-200,l),
(198,285,l),
(120,285,l)
);
},
{
closed = 1;
nodes = (
(147,512,o),
(114,483,o),
(111,449,cs),
(107,414,o),
(133,385,o),
(168,385,cs),
(202,385,o),
(233,414,o),
(237,449,cs),
(240,483,o),
(216,512,o),
(182,512,cs)
);
}
);
width = 306;
},
{
layerId = m003;
shapes = (
{
closed = 1;
nodes = (
(58,-192,l),
(209,-192,l),
(244,277,l),
(122,277,l)
);
},
{
closed = 1;
nodes = (
(161,520,o),
(118,481,o),
(113,433,cs),
(108,386,o),
(143,348,o),
(191,348,cs),
(238,348,o),
(281,386,o),
(286,433,cs),
(291,481,o),
(256,520,o),
(209,520,cs)
);
}
);
width = 361;
}
);
unicode = 161;
},
{
glyphname = question;
lastChange = "2024-11-02 04:49:56 +0000";
layers = (
{
hints = (
{
horizontal = 1;
origin = (0,16);
target = (0,6);
type = Stem;
},
{
horizontal = 1;
place = (-38,226);
target = (0,22);
type = Stem;
},
{
origin = (0,12);
target = (0,13);
type = Stem;
},
{
origin = (0,22);
target = (0,1);
type = Stem;
},
{
origin = (0,19);
target = (0,3);
type = Stem;
},
{
origin = (0,22);
target = (0,1);
type = Stem;
}
);
layerId = m01;
shapes = (
{
closed = 1;
nodes = (
(253,188,l),
(275,392,o),
(461,332,o),
(482,537,cs),
(494,649,o),
(415,719,o),
(302,719,cs),
(229,719,o),
(163,685,o),
(120,623,c),
(102,597,o),
(90,566,o),
(86,530,c),
(148,530,l),
(157,611,o),
(224,663,o),
(295,663,cs),
(371,663,o),
(428,616,o),
(420,536,cs),
(403,372,o),
(216,426,o),
(191,188,c)
);
},
{
closed = 1;
nodes = (
(228,-12,o),
(253,10,o),
(256,36,cs),
(258,64,o),
(239,85,o),
(212,85,cs),
(185,85,o),
(160,64,o),
(158,36,cs),
(155,10,o),
(174,-12,o),
(201,-12,cs)
);
}
);
width = 502;
},
{
associatedMasterId = m01;
layerId = "CB6FE323-AA22-456B-834C-E280C3EC3E3D";
name = foreground;
shapes = (
{
closed = 1;
nodes = (
(312,380,o),
(500,311,o),
(500,530,cs),
(500,649,o),
(404,719,o),
(289,719,c),
(209,719,o),
(137,685,o),
(101,623,c),
(86,597,o),
(77,566,o),
(77,530,c),
(174,530,l),
(174,587,o),
(210,636,o),
(288,636,c),
(366,636,o),
(405,592,o),
(405,536,cs),
(405,372,o),
(208,437,o),
(208,216,cs),
(208,216,o),
(312,216,o),
(312,216,c)
);
},
{
closed = 1;
nodes = (
(308,-12,o),
(341,23,o),
(341,62,cs),
(341,104,o),
(308,139,o),
(268,139,cs),
(227,139,o),
(192,104,o),
(192,62,cs),
(192,23,o),
(227,-12,o),
(268,-12,cs)
);
}
);
width = 587;
},
{
layerId = m002;
shapes = (
{
closed = 1;
nodes = (
(275,200,l),
(293,371,o),
(471,322,o),
(493,536,cs),
(505,645,o),
(420,719,o),
(305,719,cs),
(229,719,o),
(154,685,o),
(111,623,c),
(93,597,o),
(81,566,o),
(77,530,c),
(159,530,l),
(165,587,o),
(222,639,o),
(296,639,cs),
(374,639,o),
(409,592,o),
(403,536,cs),
(386,372,o),
(206,421,o),
(183,200,c)
);
},
{
closed = 1;
nodes = (
(237,-12,o),
(269,17,o),
(272,51,cs),
(276,86,o),
(251,115,o),
(217,115,cs),
(182,115,o),
(150,86,o),
(146,51,cs),
(143,17,o),
(168,-12,o),
(203,-12,cs)
);
}
);
width = 511;
},
{
layerId = m003;
shapes = (
{
closed = 1;
nodes = (
(312,209,l),
(328,356,o),
(495,325,o),
(517,531,cs),
(530,650,o),
(447,720,o),
(315,720,cs),
(218,720,o),
(147,686,o),
(105,624,cs),
(87,598,o),
(72,544,o),
(69,508,c),
(221,508,l),
(226,555,o),
(246,590,o),
(300,590,cs),
(347,590,o),
(366,560,o),
(363,527,cs),
(348,383,o),
(183,427,o),
(160,209,c)
);
},
{
closed = 1;
nodes = (
(262,-16,o),
(305,23,o),
(310,71,cs),
(315,118,o),
(280,156,o),
(233,156,cs),
(185,156,o),
(142,118,o),
(137,71,cs),
(132,23,o),
(167,-16,o),
(215,-16,cs)
);
}
);
width = 528;
}
);
unicode = 63;
},
{
glyphname = questiondown;
lastChange = "2024-11-07 16:49:54 +0000";
layers = (
{
layerId = m01;
shapes = (
{
closed = 1;
nodes = (
(280,-219,o),
(346,-185,o),
(389,-123,c),
(407,-97,o),
(419,-66,o),
(423,-30,c),
(361,-30,l),
(352,-111,o),
(285,-163,o),
(214,-163,cs),
(138,-163,o),
(81,-116,o),
(89,-36,cs),
(106,128,o),
(293,74,o),
(318,312,c),
(256,312,l),
(234,108,o),
(48,168,o),
(27,-37,cs),
(15,-149,o),
(94,-219,o),
(207,-219,cs)
);
},
{
closed = 1;
nodes = (
(324,415,o),
(349,436,o),
(351,464,cs),
(354,490,o),
(335,512,o),
(308,512,cs),
(281,512,o),
(256,490,o),
(253,464,cs),
(251,436,o),
(270,415,o),
(297,415,cs)
);
}
);
width = 495;
},
{
layerId = m002;
shapes = (
{
closed = 1;
nodes = (
(282,-219,o),
(357,-185,o),
(400,-123,c),
(418,-97,o),
(430,-66,o),
(434,-30,c),
(352,-30,l),
(346,-87,o),
(289,-139,o),
(215,-139,cs),
(137,-139,o),
(102,-92,o),
(108,-36,cs),
(125,128,o),
(305,79,o),
(328,300,c),
(236,300,l),
(218,129,o),
(40,178,o),
(18,-36,cs),
(6,-145,o),
(91,-219,o),
(206,-219,cs)
);
},
{
closed = 1;
nodes = (
(329,385,o),
(361,414,o),
(365,449,cs),
(368,483,o),
(343,512,o),
(308,512,cs),
(274,512,o),
(242,483,o),
(239,449,cs),
(235,414,o),
(260,385,o),
(294,385,cs)
);
}
);
width = 511;
},
{
layerId = m003;
shapes = (
{
closed = 1;
nodes = (
(312,-216,o),
(382,-182,o),
(425,-120,cs),
(442,-94,o),
(457,-40,o),
(461,-4,c),
(309,-4,l),
(304,-51,o),
(283,-86,o),
(229,-86,cs),
(182,-86,o),
(163,-56,o),
(167,-23,cs),
(182,121,o),
(346,77,o),
(369,295,c),
(217,295,l),
(202,148,o),
(34,179,o),
(12,-27,cs),
(0,-146,o),
(83,-216,o),
(215,-216,cs)
);
},
{
closed = 1;
nodes = (
(345,348,o),
(388,386,o),
(393,433,cs),
(398,481,o),
(363,520,o),
(315,520,cs),
(268,520,o),
(225,481,o),
(220,433,cs),
(215,386,o),
(250,348,o),
(297,348,cs)
);
}
);
width = 528;
}
);
unicode = 191;
},
{
glyphname = periodcentered;
lastChange = "2024-11-02 04:49:56 +0000";
layers = (
{
layerId = m01;
shapes = (
{
closed = 1;
nodes = (
(164,255,o),
(188,277,o),
(191,304,cs),
(194,333,o),
(174,355,o),
(146,355,cs),
(118,355,o),
(93,333,o),
(90,304,cs),
(87,277,o),
(108,255,o),
(136,255,cs)
);
}
);
width = 269;
},
{
layerId = m002;
shapes = (
{
closed = 1;
nodes = (
(188,239,o),
(220,268,o),
(224,304,cs),
(227,340,o),
(202,369,o),
(166,369,cs),
(130,369,o),
(97,340,o),
(94,304,cs),
(90,268,o),
(116,239,o),
(152,239,cs)
);
}
);
width = 306;
},
{
layerId = m003;
shapes = (
{
closed = 1;
nodes = (
(211,217,o),
(256,257,o),
(262,307,cs),
(267,355,o),
(230,394,o),
(182,394,cs),
(133,394,o),
(88,355,o),
(83,307,cs),
(77,257,o),
(114,217,o),
(163,217,cs)
);
}
);
width = 333;
}
);
unicode = 183;
},
{
glyphname = bullet;
lastChange = "2024-11-02 04:49:56 +0000";
layers = (
{
layerId = m01;
shapes = (
{
closed = 1;
nodes = (
(172,247,o),
(202,275,o),
(205,306,cs),
(208,339,o),
(184,367,o),
(153,367,cs),
(120,367,o),
(89,339,o),
(86,306,cs),
(83,275,o),
(108,247,o),
(141,247,cs)
);
}
);
width = 279;
},
{
layerId = m002;
shapes = (
{
closed = 1;
nodes = (
(213,223,o),
(255,262,o),
(260,307,cs),
(265,354,o),
(231,393,o),
(186,393,cs),
(139,393,o),
(96,354,o),
(91,307,cs),
(86,262,o),
(121,223,o),
(168,223,cs)
);
}
);
width = 339;
},
{
layerId = m003;
shapes = (
{
closed = 1;
nodes = (
(234,197,o),
(289,247,o),
(296,309,cs),
(302,370,o),
(257,419,o),
(196,419,cs),
(134,419,o),
(79,370,o),
(73,309,cs),
(66,247,o),
(111,197,o),
(173,197,cs)
);
}
);
width = 357;
}
);
unicode = 8226;
},
{
glyphname = asterisk;
lastChange = "2024-11-02 04:49:56 +0000";
layers = (
{
layerId = m01;
shapes = (
{
closed = 1;
nodes = (
(285,489,l),
(243,489,l),
(354,339,l),
(402,374,l),
(285,533,l),
(276,488,l),
(452,567,l),
(435,616,l),
(263,540,l),
(297,522,l),
(317,712,l),
(261,712,l),
(240,519,l),
(277,536,l),
(119,613,l),
(93,567,l),
(253,488,l),
(253,533,l),
(102,374,l),
(141,339,l)
);
}
);
width = 479;
},
{
associatedMasterId = m01;
layerId = "52A87255-65B2-4E80-95F9-0AF50A018D84";
name = foreground;
shapes = (
{
closed = 1;
nodes = (
(146,321,l),
(246,438,l),
(344,320,l),
(407,374,l),
(310,489,l),
(436,553,l),
(400,624,l),
(287,568,l),
(287,714,l),
(204,714,l),
(204,568,l),
(92,624,l),
(55,553,l),
(180,490,l),
(83,374,l)
);
}
);
width = 491;
},
{
layerId = m002;
shapes = (
{
closed = 1;
nodes = (
(298,489,l),
(240,489,l),
(358,330,l),
(415,374,l),
(298,533,l),
(280,480,l),
(464,562,l),
(442,624,l),
(269,548,l),
(308,522,l),
(328,712,l),
(260,712,l),
(239,519,l),
(283,545,l),
(125,622,l),
(91,561,l),
(256,480,l),
(250,533,l),
(99,374,l),
(146,330,l)
);
}
);
width = 489;
},
{
layerId = m003;
shapes = (
{
closed = 1;
nodes = (
(332,489,l),
(232,489,l),
(367,310,l),
(450,374,l),
(332,533,l),
(292,459,l),
(493,551,l),
(459,646,l),
(285,570,l),
(343,522,l),
(363,712,l),
(253,712,l),
(233,519,l),
(299,568,l),
(136,646,l),
(81,548,l),
(267,456,l),
(243,533,l),
(93,374,l),
(165,311,l)
);
}
);
width = 512;
}
);
unicode = 42;
},
{
glyphname = numbersign;
lastChange = "2024-11-21 09:40:29 +0000";
layers = (
{
layerId = m01;
shapes = (
{
closed = 1;
nodes = (
(436,0,l),
(684,720,l),
(622,720,l),
(374,0,l)
);
},
{
closed = 1;
nodes = (
(642,183,l),
(647,239,l),
(73,239,l),
(68,183,l)
);
},
{
closed = 1;
nodes = (
(199,0,l),
(447,720,l),
(385,720,l),
(137,0,l)
);
},
{
closed = 1;
nodes = (
(737,482,l),
(743,538,l),
(169,538,l),
(163,482,l)
);
}
);
width = 787;
},
{
associatedMasterId = m01;
layerId = "21C28542-C2BA-4EFE-9B17-DE8F14164D30";
name = foreground;
shapes = (
{
closed = 1;
nodes = (
(227,0,l),
(400,720,l),
(306,720,l),
(133,0,l)
);
},
{
closed = 1;
nodes = (
(462,0,l),
(635,720,l),
(541,720,l),
(368,0,l)
);
},
{
closed = 1;
nodes = (
(707,425,l),
(707,523,l),
(133,523,l),
(133,425,l)
);
},
{
closed = 1;
nodes = (
(644,199,l),
(644,297,l),
(70,297,l),
(70,199,l)
);
}
);
width = 777;
},
{
layerId = m002;
shapes = (
{
closed = 1;
nodes = (
(434,0,l),
(682,720,l),
(609,720,l),
(361,0,l)
);
},
{
closed = 1;
nodes = (
(639,187,l),
(648,267,l),
(74,267,l),
(65,187,l)
);
},
{
closed = 1;
nodes = (
(206,0,l),
(454,720,l),
(381,720,l),
(133,0,l)
);
},
{
closed = 1;
nodes = (
(732,457,l),
(740,537,l),
(166,537,l),
(158,457,l)
);
}
);
width = 782;
},
{
layerId = m003;
shapes = (
{
closed = 1;
nodes = (
(482,0,l),
(731,720,l),
(597,720,l),
(348,0,l)
);
},
{
closed = 1;
nodes = (
(677,152,l),
(691,278,l),
(68,278,l),
(54,152,l)
);
},
{
closed = 1;
nodes = (
(230,0,l),
(479,720,l),
(345,720,l),
(96,0,l)
);
},
{
closed = 1;
nodes = (
(752,416,l),
(765,542,l),
(148,542,l),
(135,416,l)
);
}
);
width = 800;
}
);
unicode = 35;
},
{
glyphname = slash;
lastChange = "2024-11-02 04:49:56 +0000";
layers = (
{
guides = (
{
pos = (208,-160);
},
{
pos = (177,775);
}
);
layerId = m01;
shapes = (
{
closed = 1;
nodes = (
(39,-160,l),
(485,775,l),
(420,775,l),
(-26,-160,l)
);
}
);
width = 438;
},
{
associatedMasterId = m01;
layerId = "B6C497E8-57DB-4813-80B4-1FC1C004D65A";
name = foreground;
shapes = (
{
closed = 1;
nodes = (
(97,0,l),
(390,720,l),
(303,720,l),
(10,0,l)
);
}
);
width = 385;
},
{
guides = (
{
pos = (-230,-160);
},
{
pos = (-230,776);
}
);
layerId = m002;
shapes = (
{
closed = 1;
nodes = (
(63,-160,l),
(514,776,l),
(424,776,l),
(-27,-160,l)
);
}
);
width = 460;
},
{
guides = (
{
pos = (-242,-159);
},
{
pos = (6,775);
}
);
layerId = m003;
shapes = (
{
closed = 1;
nodes = (
(104,-161,l),
(557,775,l),
(417,775,l),
(-36,-161,l)
);
}
);
width = 482;
}
);
unicode = 47;
},
{
glyphname = backslash;
lastChange = "2024-11-02 04:49:56 +0000";
layers = (
{
layerId = m01;
shapes = (
{
closed = 1;
nodes = (
(378,-160,l),
(128,775,l),
(63,775,l),
(313,-160,l)
);
}
);
width = 438;
},
{
associatedMasterId = m01;
layerId = "343D6EAE-1DF2-4E0E-B6B5-032545DCA862";
name = foreground;
shapes = (
{
closed = 1;
nodes = (
(82,720,l),
(-5,720,l),
(288,0,l),
(375,0,l)
);
}
);
width = 385;
},
{
layerId = m002;
shapes = (
{
closed = 1;
nodes = (
(401,-160,l),
(146,776,l),
(56,776,l),
(311,-160,l)
);
}
);
width = 460;
},
{
guides = (
{
pos = (-270,-159);
},
{
pos = (-22,775);
}
);
layerId = m003;
shapes = (
{
closed = 1;
nodes = (
(430,-161,l),
(175,775,l),
(35,775,l),
(290,-161,l)
);
}
);
width = 482;
}
);
unicode = 92;
},
{
glyphname = periodcentered.loclCAT;
lastChange = "2024-11-02 04:49:56 +0000";
layers = (
{
layerId = m01;
shapes = (
{
closed = 1;
nodes = (
(158,257,o),
(181,279,o),
(184,303,cs),
(186,329,o),
(168,351,o),
(144,351,cs),
(118,351,o),
(93,329,o),
(91,303,cs),
(88,279,o),
(108,257,o),
(134,257,cs)
);
}
);
width = 263;
},
{
layerId = m002;
shapes = (
{
closed = 1;
nodes = (
(178,239,o),
(210,269,o),
(214,304,cs),
(217,340,o),
(192,370,o),
(157,370,cs),
(121,370,o),
(87,340,o),
(84,304,cs),
(80,269,o),
(107,239,o),
(143,239,cs)
);
}
);
width = 286;
},
{
layerId = m003;
shapes = (
{
closed = 1;
nodes = (
(211,217,o),
(256,257,o),
(262,307,cs),
(267,355,o),
(230,394,o),
(182,394,cs),
(133,394,o),
(88,355,o),
(83,307,cs),
(77,257,o),
(114,217,o),
(163,217,cs)
);
}
);
width = 333;
}
);
},
{
glyphname = periodcentered.loclCAT.case;
lastChange = "2024-11-02 04:49:56 +0000";
layers = (
{
layerId = m01;
shapes = (
{
closed = 1;
nodes = (
(158,257,o),
(181,279,o),
(184,303,cs),
(186,329,o),
(168,351,o),
(144,351,cs),
(118,351,o),
(93,329,o),
(91,303,cs),
(88,279,o),
(108,257,o),
(134,257,cs)
);
}
);
width = 263;
},
{
layerId = m002;
shapes = (
{
closed = 1;
nodes = (
(185,239,o),
(217,269,o),
(221,304,cs),
(224,340,o),
(199,370,o),
(164,370,cs),
(128,370,o),
(94,340,o),
(91,304,cs),
(87,269,o),
(114,239,o),
(150,239,cs)
);
}
);
width = 300;
},
{
layerId = m003;
shapes = (
{
closed = 1;
nodes = (
(211,217,o),
(256,257,o),
(262,307,cs),
(267,355,o),
(230,394,o),
(182,394,cs),
(133,394,o),
(88,355,o),
(83,307,cs),
(77,257,o),
(114,217,o),
(163,217,cs)
);
}
);
width = 333;
}
);
},
{
glyphname = hyphen;
lastChange = "2024-11-02 04:49:56 +0000";
layers = (
{
guides = (
{
pos = (259,296);
}
);
hints = (
{
horizontal = 1;
origin = (0,3);
target = (0,2);
type = Stem;
},
{
origin = (0,3);
target = (0,0);
type = Stem;
}
);
layerId = m01;
shapes = (
{
closed = 1;
nodes = (
(420,268,l),
(426,324,l),
(78,324,l),
(72,268,l)
);
}
);
width = 488;
},
{
associatedMasterId = m01;
layerId = "A4E3A6E5-E339-49A3-BA7C-5350A83F40F5";
name = foreground;
shapes = (
{
closed = 1;
nodes = (
(428,247,l),
(428,345,l),
(80,345,l),
(80,247,l)
);
}
);
width = 508;
},
{
guides = (
{
pos = (251,295);
}
);
layerId = m002;
shapes = (
{
closed = 1;
nodes = (
(418,253,l),
(427,337,l),
(79,337,l),
(70,253,l)
);
}
);
width = 488;
},
{
guides = (
{
pos = (251,295);
}
);
layerId = m003;
shapes = (
{
closed = 1;
nodes = (
(458,230,l),
(472,358,l),
(76,358,l),
(62,230,l)
);
}
);
width = 526;
}
);
unicode = 45;
},
{
glyphname = endash;
lastChange = "2024-11-02 04:49:56 +0000";
layers = (
{
layerId = m01;
shapes = (
{
closed = 1;
nodes = (
(486,270,l),
(492,322,l),
(78,322,l),
(72,270,l)
);
}
);
width = 554;
},
{
layerId = m002;
shapes = (
{
closed = 1;
nodes = (
(484,256,l),
(492,334,l),
(79,334,l),
(71,256,l)
);
}
);
width = 553;
},
{
layerId = m003;
shapes = (
{
closed = 1;
nodes = (
(515,236,l),
(527,352,l),
(75,352,l),
(63,236,l)
);
}
);
width = 582;
}
);
unicode = 8211;
},
{
glyphname = emdash;
lastChange = "2024-11-02 04:49:56 +0000";
layers = (
{
layerId = m01;
shapes = (
{
closed = 1;
nodes = (
(816,270,l),
(822,322,l),
(78,322,l),
(72,270,l)
);
}
);
width = 884;
},
{
layerId = m002;
shapes = (
{
closed = 1;
nodes = (
(816,254,l),
(825,332,l),
(80,332,l),
(71,254,l)
);
}
);
width = 886;
},
{
layerId = m003;
shapes = (
{
closed = 1;
nodes = (
(851,236,l),
(863,352,l),
(75,352,l),
(63,236,l)
);
}
);
width = 918;
}
);
unicode = 8212;
},
{
glyphname = underscore;
lastChange = "2024-11-02 04:49:56 +0000";
layers = (
{
hints = (
{
horizontal = 1;
origin = (0,3);
target = (0,2);
type = Stem;
},
{
origin = (0,3);
target = (0,0);
type = Stem;
}
);
layerId = m01;
shapes = (
{
closed = 1;
nodes = (
(430,0,l),
(435,52,l),
(-24,52,l),
(-29,0,l)
);
}
);
width = 453;
},
{
associatedMasterId = m01;
layerId = "1AB4D43C-2735-4A3F-815D-32BCD16357D5";
name = foreground;
shapes = (
{
closed = 1;
nodes = (
(546,0,l),
(546,98,l),
(60,98,l),
(60,0,l)
);
}
);
width = 606;
},
{
layerId = m002;
shapes = (
{
closed = 1;
nodes = (
(457,0,l),
(465,78,l),
(-21,78,l),
(-29,0,l)
);
}
);
width = 480;
},
{
layerId = m003;
shapes = (
{
closed = 1;
nodes = (
(505,0,l),
(517,116,l),
(-18,116,l),
(-30,0,l)
);
}
);
width = 529;
}
);
unicode = 95;
},
{
glyphname = parenleft;
lastChange = "2024-11-02 04:49:56 +0000";
layers = (
{
guides = (
{
pos = (183,-160);
},
{
pos = (152,775);
}
);
layerId = m01;
shapes = (
{
closed = 1;
nodes = (
(221,-160,l),
(224,-158,o),
(108,4,o),
(140,308,c),
(172,610,o),
(322,773,o),
(319,775,c),
(257,775,l),
(258,775,o),
(105,579,o),
(76,308,c),
(47,35,o),
(160,-160,o),
(160,-160,c)
);
}
);
width = 299;
},
{
associatedMasterId = m01;
layerId = "A003329C-BEC9-4397-9AAD-9155A5EADE70";
name = foreground;
shapes = (
{
closed = 1;
nodes = (
(62,109,o),
(172,-60,o),
(172,-60,c),
(280,-60,l),
(283,-58,o),
(163,82,o),
(163,345,c),
(163,607,o),
(283,748,o),
(280,750,c),
(172,750,l),
(172,750,o),
(62,580,o),
(62,345,c)
);
}
);
width = 313;
},
{
guides = (
{
pos = (-216,-160);
},
{
pos = (-216,776);
}
);
layerId = m002;
shapes = (
{
closed = 1;
nodes = (
(235,-160,l),
(238,-158,o),
(132,5,o),
(164,308,cs),
(196,610,o),
(336,774,o),
(333,776,c),
(249,776,l),
(249,776,o),
(105,580,o),
(76,308,cs),
(47,35,o),
(150,-160,o),
(150,-160,c)
);
}
);
width = 308;
},
{
guides = (
{
pos = (-342,-159);
},
{
pos = (-94,775);
}
);
layerId = m003;
shapes = (
{
closed = 1;
nodes = (
(255,-159,l),
(258,-157,o),
(144,4,o),
(176,309,c),
(208,611,o),
(355,773,o),
(352,775,c),
(213,775,l),
(213,775,o),
(54,579,o),
(26,309,c),
(-3,36,o),
(116,-159,o),
(116,-159,c)
);
}
);
width = 366;
}
);
unicode = 40;
},
{
glyphname = parenright;
lastChange = "2024-11-02 04:49:56 +0000";
layers = (
{
layerId = m01;
shapes = (
{
closed = 1;
nodes = (
(53,-160,o),
(206,35,o),
(235,308,c),
(264,579,o),
(151,775,o),
(152,775,c),
(90,775,l),
(87,773,o),
(203,610,o),
(171,308,c),
(139,4,o),
(-11,-158,o),
(-8,-160,c),
(53,-160,l)
);
}
);
width = 299;
},
{
associatedMasterId = m01;
layerId = "FEA7CF8C-5847-4A35-8A6B-C76339FB953A";
name = foreground;
shapes = (
{
closed = 1;
nodes = (
(243,580,o),
(133,750,o),
(133,750,c),
(25,750,l),
(22,748,o),
(142,607,o),
(142,345,c),
(142,82,o),
(22,-58,o),
(25,-60,c),
(133,-60,l),
(133,-60,o),
(243,109,o),
(243,345,c)
);
}
);
width = 303;
},
{
layerId = m002;
shapes = (
{
closed = 1;
nodes = (
(72,-160,o),
(215,35,o),
(244,308,cs),
(273,580,o),
(169,776,o),
(169,776,c),
(85,776,l),
(82,774,o),
(188,610,o),
(156,308,cs),
(124,5,o),
(-16,-158,o),
(-13,-160,c),
(72,-160,l)
);
}
);
width = 308;
},
{
guides = (
{
pos = (-297,-159);
},
{
pos = (-49,775);
}
);
layerId = m003;
shapes = (
{
closed = 1;
nodes = (
(164,-159,o),
(323,36,o),
(352,309,c),
(380,579,o),
(263,775,o),
(263,775,c),
(124,775,l),
(121,773,o),
(234,611,o),
(202,309,c),
(170,4,o),
(22,-157,o),
(25,-159,c),
(164,-159,l)
);
}
);
width = 366;
}
);
unicode = 41;
},
{
glyphname = braceleft;
lastChange = "2024-11-02 04:49:56 +0000";
layers = (
{
guides = (
{
pos = (238,-160);
},
{
pos = (207,775);
}
);
layerId = m01;
shapes = (
{
closed = 1;
nodes = (
(294,-159,l),
(300,-105,l),
(241,-105,ls),
(193,-105,o),
(167,-77,o),
(173,-18,cs),
(196,205,ls),
(203,270,o),
(183,294,o),
(149,303,c),
(149,311,l),
(185,321,o),
(210,340,o),
(218,416,cs),
(241,634,ls),
(248,693,o),
(280,721,o),
(328,721,cs),
(387,721,l),
(392,775,l),
(326,775,ls),
(226,775,o),
(190,712,o),
(181,632,cs),
(158,416,ls),
(154,378,o),
(119,340,o),
(74,340,c),
(68,278,l),
(114,278,o),
(141,251,o),
(136,205,cs),
(113,-16,ls),
(105,-96,o),
(128,-159,o),
(228,-159,cs)
);
}
);
width = 370;
},
{
guides = (
{
pos = (-216,-160);
},
{
pos = (-216,776);
}
);
layerId = m002;
shapes = (
{
closed = 1;
nodes = (
(324,-159,l),
(332,-79,l),
(254,-79,ls),
(211,-79,o),
(188,-46,o),
(193,0,cs),
(215,209,ls),
(221,267,o),
(198,296,o),
(153,305,c),
(154,313,l),
(201,323,o),
(230,354,o),
(236,414,cs),
(257,616,ls),
(263,673,o),
(293,695,o),
(336,695,cs),
(414,695,l),
(422,775,l),
(327,775,ls),
(246,775,o),
(179,705,o),
(170,624,cs),
(151,444,ls),
(146,389,o),
(118,357,o),
(66,357,c),
(57,266,l),
(109,266,o),
(129,235,o),
(124,180,cs),
(104,-9,ls),
(95,-90,o),
(148,-159,o),
(229,-159,cs)
);
}
);
width = 400;
},
{
guides = (
{
pos = (-253,-159);
},
{
pos = (-5,775);
}
);
layerId = m003;
shapes = (
{
closed = 1;
nodes = (
(377,-159,l),
(390,-33,l),
(296,-33,ls),
(261,-33,o),
(245,0,o),
(250,40,cs),
(267,209,ls),
(273,267,o),
(245,296,o),
(200,305,c),
(201,313,l),
(248,323,o),
(283,354,o),
(289,414,cs),
(306,576,ls),
(311,626,o),
(333,649,o),
(368,649,cs),
(462,649,l),
(475,775,l),
(335,775,ls),
(252,775,o),
(179,703,o),
(171,622,cs),
(153,455,ls),
(147,400,o),
(121,376,o),
(69,376,c),
(55,246,l),
(107,246,o),
(129,223,o),
(123,168,cs),
(105,-6,ls),
(96,-87,o),
(154,-159,o),
(237,-159,cs)
);
}
);
width = 442;
}
);
unicode = 123;
},
{
glyphname = braceright;
lastChange = "2024-11-02 04:49:56 +0000";
layers = (
{
layerId = m01;
shapes = (
{
closed = 1;
nodes = (
(156,-159,o),
(193,-96,o),
(201,-16,cs),
(224,205,ls),
(229,251,o),
(262,277,o),
(308,277,c),
(315,342,l),
(270,342,o),
(242,378,o),
(246,416,cs),
(269,632,ls),
(278,712,o),
(254,775,o),
(154,775,cs),
(88,775,l),
(83,721,l),
(142,721,ls),
(190,721,o),
(216,693,o),
(209,634,cs),
(186,416,ls),
(178,340,o),
(199,321,o),
(233,311,c),
(233,303,l),
(197,294,o),
(171,270,o),
(164,205,cs),
(141,-18,ls),
(135,-77,o),
(103,-105,o),
(55,-105,cs),
(-4,-105,l),
(-10,-159,l),
(56,-159,ls)
);
}
);
width = 370;
},
{
layerId = m002;
shapes = (
{
closed = 1;
nodes = (
(166,-159,o),
(233,-90,o),
(242,-9,cs),
(262,180,ls),
(267,235,o),
(295,266,o),
(347,266,c),
(356,357,l),
(304,357,o),
(284,389,o),
(289,444,cs),
(308,624,ls),
(317,705,o),
(264,775,o),
(183,775,cs),
(88,775,l),
(80,695,l),
(158,695,ls),
(201,695,o),
(225,673,o),
(219,616,cs),
(198,414,ls),
(192,354,o),
(212,323,o),
(257,313,c),
(256,305,l),
(209,296,o),
(183,267,o),
(177,209,cs),
(155,0,ls),
(150,-46,o),
(119,-79,o),
(76,-79,cs),
(-2,-79,l),
(-10,-159,l),
(85,-159,ls)
);
}
);
width = 400;
},
{
guides = (
{
pos = (-373,-159);
},
{
pos = (-125,775);
}
);
layerId = m003;
shapes = (
{
closed = 1;
nodes = (
(202,-159,o),
(274,-87,o),
(283,-6,cs),
(301,168,ls),
(307,223,o),
(333,246,o),
(385,246,c),
(399,376,l),
(347,376,o),
(325,400,o),
(331,455,cs),
(349,622,ls),
(357,703,o),
(300,775,o),
(217,775,cs),
(77,775,l),
(64,649,l),
(158,649,ls),
(193,649,o),
(209,626,o),
(204,576,cs),
(187,414,ls),
(181,354,o),
(208,323,o),
(253,313,c),
(252,305,l),
(205,296,o),
(171,267,o),
(165,209,cs),
(148,40,ls),
(143,0,o),
(121,-33,o),
(86,-33,cs),
(-8,-33,l),
(-21,-159,l),
(119,-159,ls)
);
}
);
width = 442;
}
);
unicode = 125;
},
{
glyphname = bracketleft;
lastChange = "2024-11-02 04:49:56 +0000";
layers = (
{
guides = (
{
pos = (181,-160);
},
{
pos = (150,775);
}
);
layerId = m01;
shapes = (
{
closed = 1;
nodes = (
(272,-160,l),
(278,-104,l),
(123,-104,l),
(209,718,l),
(365,718,l),
(371,774,l),
(155,774,l),
(57,-160,l)
);
}
);
width = 356;
},
{
guides = (
{
pos = (-259,-160);
},
{
pos = (-259,776);
}
);
layerId = m002;
shapes = (
{
closed = 1;
nodes = (
(301,-160,l),
(309,-84,l),
(140,-84,l),
(222,700,l),
(392,700,l),
(400,775,l),
(150,775,l),
(52,-160,l)
);
}
);
width = 383;
},
{
guides = (
{
pos = (-305,-159);
}
);
layerId = m003;
shapes = (
{
closed = 1;
nodes = (
(363,-158,l),
(376,-32,l),
(200,-32,l),
(272,649,l),
(449,649,l),
(462,775,l),
(145,775,l),
(47,-158,l)
);
}
);
width = 439;
}
);
unicode = 91;
},
{
glyphname = bracketright;
lastChange = "2024-11-02 04:49:56 +0000";
layers = (
{
layerId = m01;
shapes = (
{
closed = 1;
nodes = (
(311,774,l),
(95,774,l),
(89,718,l),
(245,718,l),
(159,-104,l),
(4,-104,l),
(-2,-160,l),
(213,-160,l)
);
}
);
width = 356;
},
{
guides = (
{
pos = (-259,-160);
},
{
pos = (-259,776);
}
);
layerId = m002;
shapes = (
{
closed = 1;
nodes = (
(400,775,l),
(150,775,l),
(142,700,l),
(312,700,l),
(230,-84,l),
(61,-84,l),
(53,-160,l),
(302,-160,l)
);
}
);
width = 383;
},
{
guides = (
{
pos = (-305,-159);
},
{
pos = (-57,750);
}
);
layerId = m003;
shapes = (
{
closed = 1;
nodes = (
(463,775,l),
(146,775,l),
(133,649,l),
(310,649,l),
(238,-32,l),
(62,-32,l),
(49,-158,l),
(365,-158,l)
);
}
);
width = 439;
}
);
unicode = 93;
},
{
glyphname = quotedblleft;
lastChange = "2024-11-09 08:25:08 +0000";
layers = (
{
layerId = m01;
shapes = (
{
closed = 1;
nodes = (
(309,532,o),
(332,557,o),
(335,582,cs),
(337,606,o),
(319,627,o),
(294,627,cs),
(293,627,o),
(289,627,o),
(288,627,c),
(293,678,o),
(346,689,o),
(346,689,c),
(346,689,o),
(350,712,o),
(349,712,cs),
(283,712,o),
(241,655,o),
(234,593,cs),
(230,558,o),
(250,532,o),
(284,532,cs)
);
},
{
closed = 1;
nodes = (
(171,532,o),
(194,557,o),
(197,582,c),
(199,606,o),
(181,627,o),
(156,627,cs),
(155,627,o),
(151,627,o),
(150,627,c),
(155,678,o),
(208,689,o),
(208,689,c),
(208,689,o),
(212,712,o),
(211,712,cs),
(145,712,o),
(103,655,o),
(96,593,cs),
(92,558,o),
(112,532,o),
(146,532,cs)
);
}
);
width = 361;
},
{
layerId = m002;
shapes = (
{
closed = 1;
nodes = (
(372,482,o),
(404,515,o),
(407,548,cs),
(411,580,o),
(385,608,o),
(354,608,cs),
(352,608,o),
(348,608,o),
(345,607,c),
(352,675,o),
(422,690,o),
(422,690,c),
(422,690,o),
(426,720,o),
(425,720,cs),
(327,720,o),
(282,627,o),
(274,563,c),
(270,525,o),
(286,482,o),
(338,482,cs)
);
},
{
closed = 1;
nodes = (
(184,482,o),
(216,515,o),
(219,548,cs),
(223,580,o),
(197,608,o),
(166,608,cs),
(164,608,o),
(160,608,o),
(157,607,c),
(164,675,o),
(234,690,o),
(234,690,c),
(234,690,o),
(238,720,o),
(237,720,cs),
(139,720,o),
(94,627,o),
(86,563,c),
(82,525,o),
(98,482,o),
(150,482,cs)
);
}
);
width = 432;
},
{
layerId = m003;
shapes = (
{
closed = 1;
nodes = (
(407,417,o),
(446,459,o),
(450,501,cs),
(454,540,o),
(422,575,o),
(381,575,cs),
(377,575,o),
(372,575,o),
(369,574,c),
(378,660,o),
(469,678,o),
(469,678,c),
(469,678,o),
(474,721,o),
(473,721,cs),
(349,721,o),
(289,598,o),
(281,519,cs),
(276,471,o),
(296,417,o),
(361,417,cs)
);
},
{
closed = 1;
nodes = (
(204,417,o),
(243,459,o),
(247,501,cs),
(251,540,o),
(219,575,o),
(178,575,cs),
(174,575,o),
(169,575,o),
(166,574,c),
(175,660,o),
(266,678,o),
(266,678,c),
(266,678,o),
(271,721,o),
(270,721,cs),
(146,721,o),
(86,598,o),
(78,519,cs),
(73,471,o),
(93,417,o),
(158,417,cs)
);
}
);
width = 467;
}
);
unicode = 8220;
},
{
glyphname = quotedblright;
lastChange = "2024-11-09 08:25:08 +0000";
layers = (
{
layerId = m01;
shapes = (
{
closed = 1;
nodes = (
(295,532,o),
(337,589,o),
(343,651,cs),
(347,686,o),
(328,712,o),
(294,712,cs),
(269,712,o),
(245,687,o),
(242,662,c),
(240,638,o),
(259,617,o),
(284,617,cs),
(285,617,o),
(289,617,o),
(290,617,c),
(284,566,o),
(231,555,o),
(231,555,c),
(231,555,o),
(229,532,o),
(229,532,cs)
);
},
{
closed = 1;
nodes = (
(161,532,o),
(203,589,o),
(209,651,cs),
(213,686,o),
(194,712,o),
(160,712,cs),
(135,712,o),
(111,687,o),
(108,662,cs),
(106,638,o),
(125,617,o),
(150,617,cs),
(151,617,o),
(155,617,o),
(156,617,c),
(150,566,o),
(97,555,o),
(97,555,c),
(97,555,o),
(94,532,o),
(95,532,cs)
);
}
);
width = 361;
},
{
layerId = m002;
shapes = (
{
closed = 1;
nodes = (
(364,482,o),
(410,575,o),
(418,639,c),
(422,677,o),
(405,720,o),
(353,720,cs),
(319,720,o),
(288,687,o),
(284,654,cs),
(281,622,o),
(307,594,o),
(338,594,cs),
(340,594,o),
(344,594,o),
(347,595,c),
(340,527,o),
(270,512,o),
(270,512,c),
(270,512,o),
(265,482,o),
(266,482,cs)
);
},
{
closed = 1;
nodes = (
(176,482,o),
(222,575,o),
(230,639,c),
(234,677,o),
(217,720,o),
(165,720,cs),
(131,720,o),
(100,687,o),
(96,654,cs),
(93,622,o),
(119,594,o),
(150,594,cs),
(152,594,o),
(156,594,o),
(159,595,c),
(152,527,o),
(82,512,o),
(82,512,c),
(82,512,o),
(77,482,o),
(78,482,cs)
);
}
);
width = 432;
},
{
layerId = m003;
shapes = (
{
closed = 1;
nodes = (
(389,417,o),
(449,540,o),
(457,619,cs),
(462,667,o),
(442,721,o),
(377,721,cs),
(331,721,o),
(293,679,o),
(288,637,cs),
(284,598,o),
(316,563,o),
(357,563,cs),
(361,563,o),
(366,563,o),
(370,564,c),
(361,478,o),
(270,460,o),
(270,460,c),
(270,460,o),
(264,417,o),
(265,417,cs)
);
},
{
closed = 1;
nodes = (
(186,417,o),
(246,540,o),
(254,619,cs),
(259,667,o),
(239,721,o),
(174,721,cs),
(128,721,o),
(90,679,o),
(85,637,cs),
(81,598,o),
(113,563,o),
(154,563,cs),
(158,563,o),
(163,563,o),
(167,564,c),
(158,478,o),
(67,460,o),
(67,460,c),
(67,460,o),
(61,417,o),
(62,417,cs)
);
}
);
width = 469;
}
);
unicode = 8221;
},
{
glyphname = quoteleft;
lastChange = "2024-11-09 08:25:19 +0000";
layers = (
{
layerId = m01;
shapes = (
{
closed = 1;
nodes = (
(145,720,o),
(103,663,o),
(97,601,cs),
(93,566,o),
(112,540,o),
(146,540,cs),
(171,540,o),
(195,565,o),
(198,590,c),
(200,614,o),
(181,635,o),
(156,635,cs),
(155,635,o),
(151,635,o),
(150,635,c),
(156,686,o),
(209,697,o),
(209,697,c),
(209,697,o),
(212,720,o),
(211,720,cs)
);
}
);
width = 212;
},
{
layerId = m002;
shapes = (
{
closed = 1;
nodes = (
(131,720,o),
(86,627,o),
(78,563,c),
(74,525,o),
(90,482,o),
(142,482,cs),
(176,482,o),
(208,515,o),
(211,548,cs),
(215,580,o),
(189,608,o),
(158,608,cs),
(156,608,o),
(152,608,o),
(149,607,c),
(156,675,o),
(226,690,o),
(226,690,c),
(226,690,o),
(230,720,o),
(229,720,cs)
);
}
);
width = 244;
},
{
layerId = m003;
shapes = (
{
closed = 1;
nodes = (
(139,720,o),
(79,597,o),
(71,518,cs),
(66,470,o),
(86,416,o),
(151,416,cs),
(197,416,o),
(235,458,o),
(240,500,cs),
(244,539,o),
(212,574,o),
(171,574,cs),
(167,574,o),
(162,574,o),
(159,573,c),
(168,659,o),
(258,677,o),
(258,677,c),
(258,677,o),
(264,720,o),
(263,720,cs)
);
}
);
width = 264;
}
);
unicode = 8216;
},
{
glyphname = quoteright;
lastChange = "2024-11-09 08:25:37 +0000";
layers = (
{
layerId = m01;
shapes = (
{
closed = 1;
nodes = (
(146,532,o),
(188,589,o),
(194,651,cs),
(198,686,o),
(179,712,o),
(145,712,cs),
(120,712,o),
(96,687,o),
(93,662,c),
(91,638,o),
(110,617,o),
(135,617,cs),
(136,617,o),
(140,617,o),
(141,617,c),
(135,566,o),
(82,555,o),
(82,555,c),
(82,555,o),
(79,532,o),
(80,532,cs)
);
}
);
width = 212;
},
{
layerId = m002;
shapes = (
{
closed = 1;
nodes = (
(180,482,o),
(226,575,o),
(234,639,c),
(238,677,o),
(221,720,o),
(169,720,cs),
(135,720,o),
(104,687,o),
(100,654,cs),
(97,622,o),
(123,594,o),
(154,594,cs),
(156,594,o),
(160,594,o),
(163,595,c),
(156,527,o),
(86,512,o),
(86,512,c),
(86,512,o),
(81,482,o),
(82,482,cs)
);
}
);
width = 244;
},
{
layerId = m003;
shapes = (
{
closed = 1;
nodes = (
(191,417,o),
(251,540,o),
(259,619,cs),
(264,667,o),
(244,721,o),
(179,721,cs),
(133,721,o),
(95,679,o),
(90,637,cs),
(86,598,o),
(118,563,o),
(159,563,cs),
(163,563,o),
(168,563,o),
(172,564,c),
(163,478,o),
(72,460,o),
(72,460,c),
(72,460,o),
(66,417,o),
(67,417,cs)
);
}
);
width = 264;
}
);
unicode = 8217;
},
{
glyphname = guillemetleft;
lastChange = "2024-11-09 08:23:54 +0000";
layers = (
{
layerId = m01;
shapes = (
{
closed = 1;
nodes = (
(617,99,l),
(351,291,l),
(350,283,l),
(657,475,l),
(664,545,l),
(314,326,l),
(306,250,l),
(610,31,l)
);
},
{
closed = 1;
nodes = (
(361,99,l),
(95,291,l),
(94,283,l),
(401,475,l),
(408,545,l),
(58,326,l),
(50,250,l),
(354,31,l)
);
}
);
width = 693;
},
{
layerId = m002;
shapes = (
{
closed = 1;
nodes = (
(617,120,l),
(352,312,l),
(346,262,l),
(652,454,l),
(662,544,l),
(312,325,l),
(304,249,l),
(608,30,l)
);
},
{
closed = 1;
nodes = (
(361,121,l),
(96,313,l),
(90,263,l),
(397,455,l),
(406,545,l),
(56,326,l),
(48,250,l),
(352,31,l)
);
}
);
width = 687;
},
{
layerId = m003;
shapes = (
{
closed = 1;
nodes = (
(663,145,l),
(397,337,l),
(387,240,l),
(693,432,l),
(707,571,l),
(357,352,l),
(344,222,l),
(648,3,l)
);
},
{
closed = 1;
nodes = (
(361,145,l),
(95,337,l),
(85,240,l),
(391,432,l),
(405,571,l),
(55,352,l),
(42,222,l),
(346,3,l)
);
}
);
width = 715;
}
);
unicode = 171;
},
{
glyphname = guillemetright;
lastChange = "2024-11-09 08:26:08 +0000";
layers = (
{
layerId = m01;
shapes = (
{
closed = 1;
nodes = (
(643,250,l),
(651,326,l),
(347,545,l),
(340,475,l),
(605,283,l),
(606,291,l),
(300,99,l),
(293,31,l)
);
},
{
closed = 1;
nodes = (
(387,250,l),
(395,326,l),
(91,545,l),
(84,475,l),
(349,283,l),
(350,291,l),
(44,99,l),
(37,31,l)
);
}
);
width = 693;
},
{
layerId = m002;
shapes = (
{
closed = 1;
nodes = (
(639,250,l),
(647,326,l),
(343,545,l),
(334,455,l),
(599,263,l),
(605,313,l),
(298,121,l),
(289,31,l)
);
},
{
closed = 1;
nodes = (
(383,249,l),
(391,325,l),
(87,544,l),
(77,454,l),
(343,262,l),
(349,312,l),
(42,120,l),
(33,30,l)
);
}
);
width = 687;
},
{
layerId = m003;
shapes = (
{
closed = 1;
nodes = (
(671,222,l),
(684,352,l),
(380,571,l),
(366,432,l),
(632,240,l),
(642,337,l),
(336,145,l),
(321,3,l)
);
},
{
closed = 1;
nodes = (
(369,222,l),
(382,352,l),
(78,571,l),
(64,432,l),
(330,240,l),
(340,337,l),
(34,145,l),
(19,3,l)
);
}
);
width = 715;
}
);
unicode = 187;
},
{
glyphname = guilsinglleft;
lastChange = "2024-11-09 08:26:08 +0000";
layers = (
{
layerId = m01;
shapes = (
{
closed = 1;
nodes = (
(331,100,l),
(93,294,l),
(91,281,l),
(371,475,l),
(378,545,l),
(58,326,l),
(50,250,l),
(324,31,l)
);
}
);
width = 407;
},
{
layerId = m002;
shapes = (
{
closed = 1;
nodes = (
(331,121,l),
(93,315,l),
(87,261,l),
(367,455,l),
(376,545,l),
(56,326,l),
(48,250,l),
(322,31,l)
);
}
);
width = 401;
},
{
layerId = m003;
shapes = (
{
closed = 1;
nodes = (
(360,145,l),
(94,337,l),
(84,240,l),
(390,432,l),
(404,571,l),
(54,352,l),
(41,222,l),
(345,3,l)
);
}
);
width = 421;
}
);
unicode = 8249;
},
{
glyphname = guilsinglright;
lastChange = "2024-11-09 08:26:08 +0000";
layers = (
{
layerId = m01;
shapes = (
{
closed = 1;
nodes = (
(357,250,l),
(365,326,l),
(91,545,l),
(84,475,l),
(322,281,l),
(324,294,l),
(44,100,l),
(37,31,l)
);
}
);
width = 407;
},
{
layerId = m002;
shapes = (
{
closed = 1;
nodes = (
(353,250,l),
(361,326,l),
(87,545,l),
(78,455,l),
(316,261,l),
(322,315,l),
(42,121,l),
(33,31,l)
);
}
);
width = 401;
},
{
layerId = m003;
shapes = (
{
closed = 1;
nodes = (
(368,222,l),
(381,352,l),
(77,571,l),
(63,432,l),
(329,240,l),
(339,337,l),
(33,145,l),
(18,3,l)
);
}
);
width = 421;
}
);
unicode = 8250;
},
